<?xml version="1.0" standalone="no"?>
<!DOCTYPE svg PUBLIC "-//W3C//DTD SVG 20010904//EN"
 "http://www.w3.org/TR/2001/REC-SVG-20010904/DTD/svg10.dtd">
<svg version="1.0" xmlns="http://www.w3.org/2000/svg"
 width="2400.000000pt" height="2400.000000pt" viewBox="0 0 2400.000000 2400.000000"
 preserveAspectRatio="xMidYMid meet">

<g transform="translate(0.000000,2400.000000) scale(0.100000,-0.100000)"
fill="#000000" stroke="none">
<path d="M11765 23503 c-2618 -45 -5142 -984 -7156 -2665 -461 -384 -970 -886
-1360 -1338 -1333 -1551 -2226 -3419 -2593 -5425 -80 -437 -129 -836 -168
-1370 -8 -105 -13 -374 -13 -705 0 -525 5 -652 41 -1045 112 -1245 428 -2464
940 -3625 86 -197 315 -657 429 -865 371 -676 851 -1367 1364 -1965 390 -452
899 -954 1360 -1338 1799 -1501 4005 -2414 6336 -2622 823 -73 1737 -53 2555
56 2149 287 4165 1173 5834 2563 1282 1067 2335 2424 3038 3913 1096 2322
1388 4929 832 7433 -579 2607 -2056 4934 -4180 6586 -1140 887 -2467 1563
-3859 1964 -770 222 -1536 359 -2363 420 -175 13 -859 38 -887 33 -5 -1 -73
-3 -150 -5z m695 -633 c2011 -96 3877 -709 5542 -1821 857 -572 1657 -1292
2320 -2086 763 -915 1381 -1965 1810 -3077 140 -363 293 -848 393 -1244 513
-2050 415 -4236 -281 -6220 -254 -723 -608 -1466 -1007 -2112 -1074 -1738
-2602 -3136 -4427 -4051 -1089 -545 -2264 -902 -3470 -1053 -510 -64 -791 -81
-1365 -81 -568 0 -859 18 -1365 81 -2174 271 -4224 1210 -5885 2693 -196 175
-607 583 -790 786 -1307 1440 -2198 3171 -2599 5045 -152 714 -223 1360 -233
2120 -9 731 32 1280 147 1970 416 2484 1717 4777 3650 6435 1085 930 2320
1630 3660 2075 958 319 1974 502 3005 543 190 8 704 6 895 -3z"/>
<path d="M11305 22219 c-2614 -148 -5446 -1550 -7026 -3479 -90 -110 -207
-261 -223 -288 -4 -7 57 30 136 81 501 328 995 531 1538 631 1451 267 3076
-306 4613 -1627 281 -241 675 -645 852 -872 334 -429 363 -1017 83 -1701 -92
-227 -240 -464 -328 -529 -260 -191 -958 -328 -1265 -249 -90 23 -110 37 -239
163 -173 169 -310 320 -640 705 -368 429 -470 542 -667 737 -615 609 -1214
911 -1942 980 -270 25 -693 1 -1002 -56 -760 -142 -1621 -490 -2627 -1065 -81
-46 -146 -85 -145 -86 2 -3 139 23 487 90 408 78 637 106 874 106 281 -1 445
-41 604 -149 221 -150 315 -355 284 -625 -22 -203 -75 -371 -283 -897 -239
-605 -326 -863 -409 -1204 -225 -924 -168 -1815 176 -2740 81 -219 178 -437
304 -683 55 -107 100 -196 100 -198 0 -7 -83 27 -245 101 -816 368 -1250 505
-1481 466 -145 -25 -267 -116 -315 -236 -20 -52 -23 -76 -23 -180 1 -99 6
-136 28 -210 80 -272 229 -461 615 -785 409 -342 773 -716 1188 -1218 263
-318 554 -723 727 -1012 84 -139 200 -381 237 -490 43 -129 51 -258 20 -322
-75 -156 -343 -118 -648 93 -350 243 -835 754 -1343 1417 -383 500 -795 1110
-1041 1539 -49 87 -87 145 -83 128 10 -44 114 -330 173 -477 257 -643 670
-1379 1187 -2118 202 -290 363 -507 482 -650 116 -140 356 -381 472 -474 266
-212 567 -363 895 -448 126 -32 136 -33 320 -33 178 1 196 3 280 28 50 15 131
48 182 73 204 101 359 302 430 560 24 88 27 116 27 249 -1 177 -21 287 -90
495 -142 429 -535 1040 -1043 1625 -148 170 -562 581 -718 712 -323 272 -708
537 -1338 919 -390 236 -489 305 -541 375 -35 48 -32 88 11 129 60 58 160 54
379 -17 288 -93 941 -410 1320 -641 634 -387 1367 -1076 1895 -1782 491 -655
780 -1273 831 -1769 49 -488 -227 -970 -717 -1249 -215 -123 -485 -201 -698
-202 l-80 -1 35 -30 c131 -114 566 -423 830 -589 334 -211 874 -494 1245 -652
1028 -440 2103 -697 3265 -782 544 -40 946 -40 1490 0 1070 78 2101 312 3035
689 305 123 462 194 750 340 503 255 910 509 1370 855 l220 165 -115 6 c-647
36 -1238 515 -1366 1109 -27 126 -25 360 5 500 86 411 272 820 586 1296 489
741 1206 1477 1915 1965 217 150 525 320 960 533 510 248 821 341 921 273 73
-49 75 -99 6 -174 -57 -62 -174 -141 -492 -333 -969 -586 -1430 -939 -1923
-1472 -600 -649 -1007 -1253 -1187 -1763 -126 -354 -137 -647 -36 -900 86
-215 217 -357 414 -450 137 -65 227 -86 391 -92 217 -9 377 23 644 127 440
171 795 453 1172 930 208 263 628 874 849 1235 261 426 531 939 686 1305 77
184 217 558 229 615 5 27 4 26 -15 -10 -89 -169 -287 -492 -472 -770 -729
-1092 -1505 -1991 -2012 -2330 -206 -138 -396 -198 -518 -164 -242 67 -137
464 299 1127 456 693 1124 1450 1759 1994 351 300 462 424 560 623 143 291
135 552 -22 695 -60 55 -133 87 -236 103 -214 34 -624 -95 -1397 -438 -295
-131 -310 -137 -310 -130 0 3 63 132 139 288 207 419 338 766 431 1142 231
933 175 1798 -182 2810 -33 94 -123 329 -200 524 -163 413 -208 537 -249 681
-119 422 -59 688 198 878 172 127 340 172 638 172 248 0 477 -30 1020 -134
323 -62 335 -64 335 -60 0 5 -269 158 -454 259 -1032 561 -1931 872 -2729 946
-185 17 -585 7 -755 -20 -561 -86 -1045 -317 -1522 -726 -252 -215 -467 -443
-931 -985 -446 -521 -699 -784 -794 -829 -73 -34 -153 -46 -315 -45 -377 1
-858 132 -1052 286 -87 68 -260 376 -348 618 -96 264 -142 508 -143 760 0 297
63 534 201 746 111 171 575 660 872 919 1086 946 2246 1533 3340 1689 1029
147 2007 -78 2885 -664 135 -90 134 -89 101 -44 -820 1098 -2082 2095 -3499
2761 -1246 586 -2495 913 -3757 983 -216 12 -1097 11 -1315 -1z m-3858 -7926
c114 -39 188 -117 226 -237 18 -59 22 -93 21 -201 -2 -207 -57 -421 -176 -680
-116 -251 -205 -392 -310 -490 -110 -104 -218 -142 -369 -132 -165 11 -259 58
-469 238 -251 214 -504 273 -880 206 -175 -31 -301 -67 -395 -111 -134 -63
-180 -125 -165 -226 38 -261 241 -433 697 -590 155 -54 253 -68 539 -80 393
-16 517 -48 685 -176 63 -48 107 -99 171 -199 69 -107 92 -178 86 -272 -6 -98
-28 -148 -71 -162 -18 -5 -117 -13 -222 -16 -104 -4 -197 -10 -207 -14 -14 -5
-9 -18 38 -86 221 -322 364 -803 364 -1229 0 -302 42 -777 115 -1302 75 -533
83 -601 96 -762 9 -116 9 -176 0 -254 -6 -56 -14 -104 -17 -107 -17 -17 -171
212 -253 376 -107 215 -181 443 -241 743 -49 242 -80 493 -125 1000 -37 417
-58 566 -105 759 -104 427 -301 848 -468 1003 -110 101 -220 162 -492 272
-219 89 -323 145 -462 250 -436 327 -637 585 -638 817 0 76 32 196 75 277 101
193 290 319 660 441 313 103 533 142 795 143 267 0 431 -33 747 -151 152 -57
233 -80 233 -67 0 3 -20 36 -44 73 -83 130 -126 280 -126 436 1 285 153 490
390 526 89 13 234 5 297 -16z m9525 1 c142 -42 248 -157 299 -324 19 -61 23
-97 22 -190 -1 -172 -44 -313 -137 -449 -20 -29 -36 -55 -36 -58 0 -12 82 12
219 62 295 107 422 138 636 154 282 21 569 -22 927 -139 344 -113 515 -218
627 -386 56 -83 97 -196 107 -296 23 -229 -160 -484 -583 -815 -152 -119 -245
-173 -412 -244 -80 -34 -193 -81 -249 -105 -287 -121 -425 -252 -575 -546
-114 -221 -208 -503 -266 -793 -30 -146 -43 -262 -96 -825 -73 -773 -173
-1208 -362 -1578 -76 -149 -222 -366 -237 -351 -14 14 -26 123 -26 243 0 153
21 345 90 830 85 599 111 879 130 1361 10 259 23 367 66 544 57 233 165 483
286 663 l65 96 -31 6 c-17 3 -112 8 -211 11 -215 8 -237 13 -261 63 -89 188
80 514 338 652 140 75 258 97 583 110 292 12 383 26 556 86 263 91 425 181
540 301 125 129 184 311 129 400 -59 98 -290 184 -625 233 -168 24 -217 25
-326 5 -200 -37 -334 -102 -500 -243 -141 -120 -198 -156 -291 -190 -63 -22
-90 -26 -193 -27 -120 0 -122 0 -198 38 -151 74 -253 203 -396 497 -161 332
-232 599 -218 830 16 280 165 409 454 395 55 -3 125 -13 155 -21z m-8168
-1444 c103 -15 271 -75 351 -125 143 -89 235 -199 433 -517 148 -238 229 -344
358 -468 166 -160 320 -266 552 -378 l132 -64 15 -53 c69 -236 37 -612 -90
-1048 -119 -412 -225 -638 -583 -1242 -342 -577 -512 -1046 -567 -1562 -17
-158 -19 -454 -5 -592 6 -52 9 -96 6 -98 -5 -5 -282 418 -398 607 -331 542
-653 1168 -828 1609 -21 53 -53 133 -73 177 -116 267 -227 668 -302 1089 -73
410 -105 744 -112 1170 -5 324 -5 333 21 480 71 403 161 619 326 786 73 73
101 94 180 132 187 91 392 124 584 97z m6720 -24 c55 -14 143 -47 195 -72 83
-40 108 -59 186 -138 135 -136 211 -287 275 -541 65 -256 85 -452 75 -745 -25
-838 -181 -1664 -420 -2230 -29 -69 -74 -179 -100 -245 -166 -422 -512 -1090
-835 -1610 -129 -208 -352 -547 -357 -542 -2 3 1 62 7 132 46 571 -81 1167
-373 1750 -60 122 -106 204 -252 450 -61 105 -138 235 -170 290 -373 636 -588
1540 -457 1925 17 51 18 51 112 94 230 104 419 235 601 416 145 144 195 210
375 496 164 260 255 369 374 451 209 142 498 187 764 119z m-3336 -2856 c136
-48 281 -164 482 -386 74 -82 186 -205 249 -274 554 -605 980 -1269 1149
-1790 72 -223 86 -309 86 -525 0 -165 -3 -201 -22 -270 -25 -91 -76 -203 -123
-272 -141 -207 -488 -450 -780 -547 -163 -54 -238 -67 -426 -73 -196 -6 -307
5 -480 47 -124 30 -149 45 -186 115 -32 59 -31 237 1 350 54 186 133 300 276
397 118 81 211 113 496 171 101 21 185 44 217 60 91 46 153 143 169 265 12 96
-54 243 -147 329 -84 77 -228 88 -435 35 -301 -78 -486 -171 -652 -329 l-72
-68 -68 63 c-171 162 -379 266 -672 337 -149 36 -232 42 -305 21 -84 -24 -126
-55 -180 -130 -93 -130 -109 -255 -51 -384 54 -118 117 -153 369 -202 266 -53
365 -87 486 -170 147 -99 228 -220 272 -406 37 -157 29 -290 -22 -367 -33 -49
-48 -58 -162 -87 -159 -40 -290 -53 -482 -47 -190 6 -275 20 -431 72 -301 100
-669 363 -792 568 -97 161 -134 303 -135 512 0 160 18 279 68 456 134 464 482
1054 961 1629 143 172 543 609 637 696 124 117 236 185 357 219 81 22 265 15
348 -15z m-1258 -4285 c69 -9 235 -31 370 -49 386 -54 461 -60 700 -60 238 0
309 7 760 69 414 57 431 58 478 40 34 -14 44 -25 58 -61 79 -207 -158 -426
-635 -583 -233 -77 -537 -141 -671 -141 -139 0 -448 66 -685 147 -403 137
-626 313 -624 492 0 80 17 120 59 142 42 23 35 23 190 4z"/>
<path d="M8503 12281 c-91 -23 -203 -134 -262 -262 -107 -229 -74 -449 90
-604 78 -73 126 -92 354 -140 299 -62 369 -107 502 -323 151 -247 230 -330
288 -304 19 9 24 23 34 87 54 362 -87 804 -370 1160 -74 94 -227 238 -306 289
-120 78 -252 116 -330 97z"/>
<path d="M15340 12284 c-52 -9 -146 -48 -214 -88 -92 -54 -299 -259 -389 -386
-177 -251 -298 -576 -313 -845 -6 -99 6 -257 22 -300 9 -23 40 -27 77 -11 44
18 95 83 219 278 107 169 126 190 212 242 76 46 146 68 343 110 198 42 251 66
332 150 161 169 181 408 52 631 -42 73 -135 170 -184 193 -44 22 -115 33 -157
26z"/>
</g>
</svg>
