<svg id="svg" version="1.1" xmlns="http://www.w3.org/2000/svg" xmlns:xlink="http://www.w3.org/1999/xlink" width="400" height="154.63182897862234" viewBox="0, 0, 400,154.63182897862234"><g id="svgg"><path id="path0" d="M128.167 12.000 L 128.167 13.333 129.417 13.333 L 130.667 13.333 130.667 12.000 L 130.667 10.667 129.417 10.667 L 128.167 10.667 128.167 12.000 M131.833 12.000 L 131.833 13.333 133.000 13.333 L 134.167 13.333 134.167 12.000 L 134.167 10.667 133.000 10.667 L 131.833 10.667 131.833 12.000 M96.348 14.277 C 92.437 15.708,92.923 20.776,97.136 22.503 C 100.003 23.678,100.500 24.065,100.500 25.119 C 100.500 27.108,97.520 27.191,96.183 25.240 L 95.796 24.675 94.565 25.535 C 93.088 26.566,93.102 26.462,94.293 27.653 C 97.861 31.221,104.145 29.009,103.600 24.377 C 103.372 22.437,102.393 21.409,99.686 20.268 C 97.476 19.337,96.667 18.706,96.667 17.914 C 96.667 16.287,99.150 16.071,100.477 17.582 L 100.969 18.143 102.026 17.399 C 103.338 16.476,103.330 16.503,102.522 15.627 C 101.166 14.155,98.358 13.541,96.348 14.277 M16.000 20.054 C 16.000 28.238,16.607 29.333,21.143 29.333 C 25.812 29.333,26.500 28.080,26.500 19.575 L 26.500 14.333 24.842 14.333 L 23.183 14.333 23.133 20.015 L 23.083 25.696 22.624 26.091 C 21.637 26.939,19.984 26.718,19.459 25.667 C 19.199 25.148,19.167 24.492,19.167 19.708 L 19.167 14.333 17.583 14.333 L 16.000 14.333 16.000 20.054 M30.667 21.667 L 30.667 29.000 32.108 29.000 L 33.550 29.000 33.460 24.068 C 33.410 21.355,33.427 19.199,33.498 19.276 C 33.627 19.416,36.319 24.542,37.795 27.458 L 38.575 29.000 39.954 29.000 L 41.333 29.000 41.333 21.667 L 41.333 14.333 39.919 14.333 L 38.505 14.333 38.461 18.755 L 38.417 23.176 37.791 21.963 C 37.209 20.834,36.690 19.848,34.589 15.875 L 33.774 14.333 32.220 14.333 L 30.667 14.333 30.667 21.667 M45.833 21.667 L 45.833 29.000 47.417 29.000 L 49.000 29.000 49.000 21.667 L 49.000 14.333 47.417 14.333 L 45.833 14.333 45.833 21.667 M52.066 14.619 C 53.062 17.822,54.111 21.235,55.080 24.417 C 55.415 25.517,55.877 26.998,56.108 27.708 L 56.527 29.000 58.234 29.000 L 59.941 29.000 60.397 27.458 C 60.647 26.610,61.143 24.979,61.499 23.833 C 63.127 18.587,64.333 14.606,64.333 14.476 C 64.333 14.397,63.624 14.333,62.758 14.333 L 61.182 14.333 61.029 14.875 C 59.260 21.146,58.253 24.483,58.161 24.379 C 58.099 24.308,57.812 23.387,57.523 22.333 C 57.234 21.279,56.601 19.067,56.115 17.417 L 55.231 14.417 53.602 14.369 C 52.103 14.325,51.981 14.345,52.066 14.619 M67.000 21.667 L 67.000 29.000 72.167 29.000 L 77.333 29.000 77.333 27.583 L 77.333 26.167 73.833 26.167 L 70.333 26.167 70.333 24.417 L 70.333 22.667 72.583 22.667 L 74.833 22.667 74.833 21.250 L 74.833 19.833 72.583 19.833 L 70.333 19.833 70.333 18.500 L 70.333 17.167 73.667 17.167 L 77.000 17.167 77.000 15.750 L 77.000 14.333 72.000 14.333 L 67.000 14.333 67.000 21.667 M80.667 21.667 L 80.667 29.000 82.246 29.000 L 83.826 29.000 83.871 26.042 L 83.917 23.083 84.459 23.031 L 85.001 22.979 86.099 25.281 C 86.703 26.547,87.348 27.902,87.533 28.292 L 87.870 29.000 89.602 29.000 C 90.554 29.000,91.333 28.962,91.333 28.915 C 91.333 28.868,90.658 27.481,89.833 25.833 C 88.157 22.484,88.176 22.546,88.744 22.403 C 89.951 22.100,91.151 19.777,90.919 18.192 C 90.468 15.112,89.003 14.333,83.658 14.333 L 80.667 14.333 80.667 21.667 M107.333 21.667 L 107.333 29.000 108.917 29.000 L 110.500 29.000 110.500 21.667 L 110.500 14.333 108.917 14.333 L 107.333 14.333 107.333 21.667 M113.333 15.750 L 113.333 17.167 115.167 17.167 L 117.000 17.167 117.000 23.083 L 117.000 29.000 118.667 29.000 L 120.333 29.000 120.333 23.083 L 120.333 17.167 122.167 17.167 L 124.000 17.167 124.000 15.750 L 124.000 14.333 118.667 14.333 L 113.333 14.333 113.333 15.750 M129.245 14.583 C 129.202 14.721,129.121 14.965,129.064 15.125 C 129.008 15.285,128.904 15.642,128.834 15.917 C 128.764 16.192,127.910 19.173,126.937 22.542 C 125.963 25.911,125.167 28.745,125.167 28.840 C 125.167 28.950,125.722 28.995,126.698 28.965 L 128.230 28.917 128.373 28.333 C 128.452 28.012,128.628 27.354,128.764 26.870 L 129.012 25.990 131.211 26.037 L 133.409 26.083 133.808 27.542 L 134.207 29.000 135.788 29.000 C 137.226 29.000,137.359 28.974,137.256 28.708 C 137.194 28.548,136.805 27.217,136.391 25.750 C 135.977 24.283,135.270 21.808,134.818 20.250 C 134.367 18.692,133.799 16.723,133.555 15.875 L 133.111 14.333 131.217 14.333 C 129.679 14.333,129.308 14.380,129.245 14.583 M138.500 15.750 L 138.500 17.167 140.333 17.167 L 142.167 17.167 142.167 23.083 L 142.167 29.000 143.750 29.000 L 145.333 29.000 145.333 23.083 L 145.333 17.167 147.250 17.167 L 149.167 17.167 149.167 15.750 L 149.167 14.333 143.833 14.333 L 138.500 14.333 138.500 15.750 M87.274 17.395 C 87.708 17.900,87.823 19.230,87.487 19.858 C 87.212 20.371,86.304 20.667,85.005 20.667 L 83.833 20.667 83.833 18.730 L 83.833 16.793 85.357 16.865 C 86.768 16.933,86.910 16.972,87.274 17.395 M132.227 21.083 C 132.895 23.882,132.986 23.667,131.138 23.667 L 129.630 23.667 129.745 23.042 C 129.906 22.173,130.988 17.638,131.108 17.333 C 131.221 17.045,131.426 17.731,132.227 21.083 M98.004 41.267 C 95.464 41.950,94.024 43.718,93.869 46.347 C 93.674 49.628,94.850 51.033,99.438 53.000 C 102.255 54.208,103.000 54.850,103.000 56.071 C 103.000 58.907,98.750 58.914,96.999 56.081 L 96.640 55.501 95.445 56.336 C 94.788 56.795,94.029 57.347,93.758 57.563 L 93.266 57.956 93.580 58.435 C 97.452 64.344,107.167 62.390,107.167 55.702 C 107.166 52.552,105.996 51.246,101.472 49.350 C 98.381 48.054,97.362 47.042,97.891 45.792 C 98.635 44.035,101.051 44.067,102.842 45.858 L 103.666 46.682 105.159 45.632 C 106.933 44.386,106.922 44.435,105.708 43.201 C 103.801 41.261,100.816 40.512,98.004 41.267 M211.542 41.258 C 209.148 41.902,207.642 43.508,207.170 45.921 C 206.843 47.592,207.017 56.858,207.395 57.920 C 208.742 61.705,213.994 63.179,217.169 60.664 C 217.543 60.369,217.871 60.154,217.897 60.188 C 217.924 60.222,218.062 60.550,218.204 60.917 C 218.458 61.574,218.474 61.584,219.397 61.633 L 220.333 61.683 220.333 56.258 L 220.333 50.833 217.000 50.833 L 213.667 50.833 213.667 52.492 L 213.667 54.151 214.792 54.201 L 215.917 54.250 215.970 54.995 C 216.107 56.925,215.277 58.000,213.648 58.000 C 211.524 58.000,211.333 57.461,211.333 51.460 C 211.333 48.824,211.406 46.859,211.520 46.405 C 212.078 44.190,215.430 44.283,215.922 46.526 L 216.026 47.000 218.203 47.000 L 220.380 47.000 220.280 46.154 C 219.837 42.417,215.747 40.125,211.542 41.258 M15.944 41.611 C 15.883 41.672,15.833 46.142,15.833 51.543 L 15.833 61.364 20.542 61.298 C 28.806 61.182,29.833 60.089,29.833 51.417 C 29.833 44.545,28.802 42.456,25.057 41.740 C 23.761 41.492,16.171 41.385,15.944 41.611 M44.500 48.569 C 44.500 56.335,44.603 57.475,45.443 59.019 C 47.419 62.650,55.280 62.919,57.623 59.436 C 58.722 57.803,58.731 57.731,58.794 49.208 L 58.852 41.500 56.691 41.500 L 54.530 41.500 54.463 48.792 C 54.380 57.857,54.338 58.000,51.758 58.000 C 48.983 58.000,48.933 57.840,48.862 48.708 L 48.806 41.500 46.653 41.500 L 44.500 41.500 44.500 48.569 M74.667 51.417 L 74.667 61.333 76.833 61.333 L 79.000 61.333 79.000 51.417 L 79.000 41.500 76.833 41.500 L 74.667 41.500 74.667 51.417 M121.333 51.430 L 121.333 61.360 126.042 61.298 C 131.416 61.228,132.018 61.104,133.468 59.769 C 135.803 57.620,135.468 52.947,132.868 51.393 L 131.989 50.868 132.536 50.529 C 135.472 48.712,135.268 43.794,132.195 42.306 C 130.843 41.652,129.650 41.512,125.375 41.506 L 121.333 41.500 121.333 51.430 M149.500 48.759 C 149.500 57.936,149.720 59.067,151.796 60.575 C 154.103 62.250,159.227 62.253,161.531 60.579 C 163.561 59.105,163.708 58.357,163.790 49.125 L 163.857 41.500 161.595 41.500 L 159.333 41.500 159.330 48.792 C 159.325 57.930,159.305 58.000,156.616 58.000 C 154.002 58.000,153.939 57.790,153.870 48.708 L 153.814 41.500 151.657 41.500 L 149.500 41.500 149.500 48.759 M179.000 51.417 L 179.000 61.333 181.167 61.333 L 183.333 61.333 183.333 57.333 L 183.333 53.333 184.139 53.333 L 184.944 53.333 185.889 55.333 C 186.408 56.433,187.258 58.233,187.778 59.333 L 188.722 61.333 191.111 61.333 C 192.425 61.333,193.500 61.291,193.500 61.240 C 193.500 61.188,192.550 59.270,191.388 56.976 C 189.277 52.807,189.180 52.515,189.902 52.503 C 190.395 52.494,191.841 51.102,192.276 50.214 C 192.966 48.811,192.979 45.866,192.301 44.573 C 191.000 42.088,189.239 41.515,182.875 41.506 L 179.000 41.500 179.000 51.417 M129.149 44.907 C 130.582 45.649,130.485 48.466,129.000 49.208 C 128.586 49.415,128.017 49.500,127.042 49.500 L 125.667 49.500 125.667 47.111 C 125.667 45.797,125.723 44.664,125.792 44.593 C 126.008 44.368,128.570 44.608,129.149 44.907 M187.493 45.273 C 188.668 45.967,188.902 48.427,187.880 49.341 C 187.251 49.902,185.956 50.203,184.475 50.133 L 183.417 50.083 183.371 47.433 L 183.325 44.783 185.158 44.880 C 186.479 44.949,187.132 45.059,187.493 45.273 M22.984 45.495 C 24.949 46.059,25.230 46.725,25.302 50.987 C 25.394 56.505,24.839 57.487,21.625 57.496 L 20.333 57.500 20.333 51.417 L 20.333 45.333 21.376 45.333 C 21.950 45.333,22.673 45.406,22.984 45.495 M129.243 52.926 C 130.267 53.434,130.569 53.976,130.565 55.294 C 130.558 57.460,129.908 58.039,127.375 58.138 L 125.667 58.204 125.667 55.463 C 125.667 53.956,125.723 52.665,125.792 52.594 C 126.033 52.346,128.565 52.590,129.243 52.926 M61.000 60.943 C 57.024 61.559,54.768 64.851,55.921 68.353 C 56.660 70.602,57.629 71.374,61.957 73.167 C 64.644 74.279,65.599 75.815,64.485 77.232 C 63.160 78.916,60.482 78.256,58.780 75.826 L 58.507 75.435 57.128 76.384 C 54.812 77.979,54.930 77.693,56.037 79.034 C 60.798 84.798,70.715 81.014,68.919 74.118 C 68.318 71.811,67.272 70.893,63.380 69.258 C 60.456 68.030,59.685 67.395,59.673 66.202 C 59.649 64.034,62.677 63.745,64.675 65.725 C 65.630 66.672,65.384 66.697,67.079 65.484 C 68.701 64.324,68.651 64.425,68.029 63.567 C 66.659 61.675,63.612 60.539,61.000 60.943 M86.500 60.948 C 82.722 61.580,80.610 64.691,81.569 68.214 C 82.156 70.375,83.241 71.322,86.880 72.853 C 90.060 74.190,90.901 75.053,90.487 76.554 C 89.816 78.985,86.280 78.568,84.447 75.843 L 84.173 75.435 82.795 76.389 C 80.806 77.766,80.784 77.785,80.928 78.031 C 84.520 84.171,94.668 82.495,94.734 75.750 C 94.767 72.420,93.625 71.196,88.417 68.982 C 86.423 68.134,85.333 67.203,85.333 66.347 C 85.333 64.077,88.324 63.673,90.323 65.672 C 91.327 66.676,91.048 66.698,92.746 65.484 C 94.376 64.318,94.319 64.439,93.667 63.553 C 92.248 61.624,89.164 60.503,86.500 60.948 M29.333 71.333 L 29.333 81.333 36.333 81.333 L 43.333 81.333 43.333 79.417 L 43.333 77.500 38.500 77.500 L 33.667 77.500 33.667 75.083 L 33.667 72.667 36.750 72.667 L 39.833 72.667 39.833 70.750 L 39.833 68.833 36.750 68.833 L 33.667 68.833 33.667 67.000 L 33.667 65.167 38.167 65.167 L 42.667 65.167 42.667 63.250 L 42.667 61.333 36.000 61.333 L 29.333 61.333 29.333 71.333 M107.833 71.333 L 107.833 81.333 114.833 81.333 L 121.833 81.333 121.833 79.417 L 121.833 77.500 117.000 77.500 L 112.167 77.500 112.167 75.083 L 112.167 72.667 115.250 72.667 L 118.333 72.667 118.333 70.750 L 118.333 68.833 115.250 68.833 L 112.167 68.833 112.167 67.000 L 112.167 65.167 116.667 65.167 L 121.167 65.167 121.167 63.250 L 121.167 61.333 114.500 61.333 L 107.833 61.333 107.833 71.333 M135.167 71.339 L 135.167 81.344 137.038 81.297 L 138.910 81.250 138.858 74.583 C 138.825 70.362,138.864 67.978,138.964 68.083 C 139.051 68.175,139.968 69.900,141.002 71.917 C 142.035 73.933,142.934 75.658,143.000 75.750 C 143.065 75.842,143.742 77.138,144.504 78.630 L 145.889 81.344 147.653 81.297 L 149.417 81.250 149.417 71.333 L 149.417 61.417 147.583 61.417 L 145.750 61.417 145.715 67.250 C 145.696 70.458,145.677 73.158,145.673 73.250 C 145.668 73.342,145.566 73.229,145.445 73.000 C 145.324 72.771,143.892 70.052,142.263 66.958 L 139.301 61.333 137.234 61.333 L 135.167 61.333 135.167 71.339 M0.000 127.000 L 0.000 154.500 16.177 154.500 C 25.944 154.500,32.316 154.439,32.259 154.347 C 32.207 154.263,32.387 153.157,32.659 151.889 C 32.932 150.621,33.573 147.596,34.085 145.167 C 34.597 142.737,35.317 139.325,35.686 137.583 C 36.261 134.863,36.348 134.184,36.303 132.762 L 36.250 131.108 37.750 130.476 C 39.916 129.563,40.045 129.633,40.276 131.840 L 40.373 132.762 41.395 131.746 C 43.536 129.617,46.504 129.156,48.243 130.683 C 50.839 132.962,49.492 141.824,45.978 145.580 C 44.021 147.673,40.988 148.463,38.786 147.455 L 37.874 147.037 37.270 149.810 C 36.938 151.335,36.666 152.706,36.666 152.857 C 36.667 153.481,36.105 153.830,34.583 154.151 C 33.107 154.462,36.020 154.467,216.542 154.483 L 400.000 154.500 400.000 127.000 L 400.000 99.500 200.000 99.500 L 0.000 99.500 0.000 127.000 M160.864 122.586 C 160.911 122.633,160.703 123.814,160.401 125.211 C 160.099 126.607,159.470 129.550,159.002 131.750 C 158.535 133.950,157.840 137.175,157.457 138.917 C 156.763 142.080,156.606 143.819,156.833 145.815 L 156.917 146.546 155.879 147.119 C 155.309 147.434,154.771 147.648,154.685 147.594 C 154.478 147.467,154.167 145.997,154.167 145.152 L 154.167 144.488 153.149 145.575 C 149.258 149.735,145.076 148.137,145.101 142.500 C 145.138 133.836,150.355 128.249,155.783 131.057 C 156.553 131.455,156.589 131.431,156.793 130.375 C 157.183 128.359,158.179 123.732,158.307 123.338 C 158.475 122.823,160.504 122.226,160.864 122.586 M192.667 122.575 C 192.667 122.616,192.251 124.585,191.743 126.950 C 188.140 143.721,188.270 143.038,188.413 144.407 C 188.649 146.659,188.696 146.501,187.607 147.115 C 186.241 147.887,186.123 147.780,185.897 145.572 L 185.788 144.511 185.305 145.130 C 183.247 147.771,179.882 148.559,177.941 146.855 C 175.567 144.771,177.001 135.558,180.209 132.290 C 182.158 130.303,184.763 129.843,187.418 131.018 C 188.332 131.422,188.287 131.447,188.493 130.404 C 188.581 129.953,188.886 128.496,189.170 127.167 C 189.453 125.837,189.748 124.425,189.824 124.027 C 189.989 123.165,190.151 122.980,190.965 122.727 C 191.589 122.533,192.667 122.437,192.667 122.575 M126.667 123.309 C 126.896 123.476,127.189 123.913,127.319 124.279 C 127.997 126.197,125.280 127.673,124.020 126.071 C 122.615 124.285,124.834 121.968,126.667 123.309 M28.696 123.327 C 32.533 124.468,33.695 129.288,31.911 136.658 C 30.095 144.159,26.344 147.990,20.997 147.807 C 15.802 147.630,13.809 143.456,15.318 135.917 C 17.223 126.397,22.457 121.471,28.696 123.327 M105.121 123.801 C 105.251 123.884,105.538 125.745,105.911 128.924 C 106.234 131.670,106.574 134.463,106.666 135.132 C 106.758 135.800,106.837 136.625,106.841 136.965 L 106.849 137.583 107.358 136.583 C 107.815 135.687,109.977 131.640,110.921 129.917 C 111.122 129.550,111.907 128.087,112.666 126.667 C 114.308 123.594,114.232 123.667,115.772 123.667 C 117.321 123.667,117.267 123.442,116.660 127.371 C 116.373 129.230,116.077 131.162,116.001 131.667 C 114.844 139.385,113.601 146.961,113.465 147.125 C 113.274 147.355,111.075 147.423,110.939 147.203 C 110.895 147.131,110.924 146.737,111.004 146.328 C 111.084 145.918,111.267 144.946,111.409 144.167 C 111.552 143.387,112.268 139.497,113.001 135.520 C 113.734 131.544,114.330 128.244,114.326 128.187 C 114.322 128.130,114.163 128.383,113.973 128.750 C 112.131 132.301,107.071 141.610,106.931 141.706 C 106.633 141.908,105.387 141.849,105.209 141.625 C 105.052 141.426,104.947 140.520,104.161 132.583 C 103.666 127.577,103.683 127.648,103.331 129.167 C 103.172 129.854,102.845 131.242,102.604 132.250 C 102.364 133.258,101.980 134.871,101.750 135.833 C 101.091 138.598,100.594 140.688,99.830 143.917 C 98.981 147.504,99.090 147.333,97.656 147.333 C 96.303 147.333,96.275 147.303,96.590 146.150 C 96.725 145.655,97.398 143.150,98.084 140.583 C 98.771 138.017,99.596 134.942,99.918 133.750 C 100.240 132.558,100.957 129.898,101.512 127.838 C 102.066 125.778,102.600 123.997,102.697 123.880 C 102.892 123.645,104.778 123.584,105.121 123.801 M24.583 126.984 C 20.576 128.846,17.683 143.023,21.083 144.135 C 24.414 145.224,27.853 138.472,27.901 130.750 C 27.924 126.996,26.946 125.886,24.583 126.984 M63.480 130.108 C 66.899 131.213,67.477 135.749,64.551 138.516 C 62.977 140.004,61.141 140.636,57.958 140.783 L 55.833 140.881 55.837 141.649 C 55.850 144.395,58.279 145.243,61.631 143.672 C 63.360 142.861,63.269 142.836,63.889 144.303 C 64.538 145.840,64.517 145.903,63.148 146.593 C 56.843 149.768,51.750 147.376,51.773 141.250 C 51.801 133.792,57.651 128.226,63.480 130.108 M73.497 130.080 C 73.610 130.216,73.779 130.928,73.872 131.662 L 74.043 132.998 75.101 131.930 C 76.615 130.401,77.676 129.917,79.512 129.917 C 82.561 129.917,83.592 131.951,82.680 136.167 C 81.843 140.035,80.308 146.627,80.167 146.958 C 79.977 147.403,76.541 147.548,76.212 147.125 C 76.102 146.984,76.470 145.071,77.359 141.167 C 79.104 133.510,79.057 132.906,76.770 133.570 C 74.578 134.207,73.740 135.922,72.257 142.802 C 71.759 145.113,71.305 147.078,71.249 147.168 C 71.122 147.375,67.388 147.390,67.261 147.185 C 67.210 147.103,67.814 144.196,68.603 140.726 C 70.008 134.545,70.035 134.384,69.943 132.802 L 69.849 131.187 70.633 130.833 C 71.064 130.639,71.717 130.340,72.083 130.170 C 72.912 129.785,73.235 129.765,73.497 130.080 M140.739 130.758 C 142.455 131.609,142.492 132.704,141.035 139.417 C 140.477 141.983,139.891 144.721,139.732 145.500 C 139.362 147.315,139.345 147.333,138.073 147.333 C 136.700 147.333,136.729 147.562,137.594 143.564 C 139.834 133.203,139.809 133.421,138.804 132.901 C 137.135 132.039,134.113 134.034,132.775 136.881 C 132.116 138.284,131.944 138.920,130.988 143.500 C 130.138 147.565,130.253 147.361,128.849 147.299 L 127.750 147.250 127.800 146.750 C 127.848 146.278,128.143 144.854,129.080 140.583 C 129.301 139.575,129.674 137.869,129.909 136.791 C 130.393 134.571,130.471 133.648,130.283 132.330 L 130.152 131.410 131.080 130.955 C 132.568 130.225,132.833 130.464,132.833 132.534 L 132.833 133.720 133.875 132.722 C 136.133 130.561,138.803 129.797,140.739 130.758 M172.379 130.878 C 174.489 131.844,175.269 134.567,174.169 137.124 C 173.184 139.415,169.785 140.807,165.125 140.828 L 164.000 140.833 164.003 141.458 C 164.019 145.370,166.902 146.547,170.981 144.309 L 172.230 143.623 172.602 144.089 C 173.645 145.397,173.547 145.614,171.440 146.651 C 165.553 149.550,161.575 147.369,161.590 141.250 C 161.607 133.845,167.173 128.495,172.379 130.878 M125.500 131.208 C 125.501 131.415,125.129 133.308,124.675 135.417 C 124.222 137.525,123.498 140.900,123.068 142.917 C 122.039 147.742,122.237 147.333,120.931 147.333 C 119.536 147.333,119.566 147.471,120.256 144.220 C 120.583 142.678,121.105 140.217,121.417 138.750 C 121.729 137.283,122.129 135.392,122.307 134.548 L 122.629 133.012 121.190 132.965 C 119.556 132.910,119.476 132.825,119.830 131.513 L 120.013 130.833 122.756 130.833 C 125.490 130.833,125.500 130.835,125.500 131.208 M168.864 132.679 C 166.885 133.067,164.500 136.177,164.500 138.370 C 164.500 138.952,168.785 138.395,170.320 137.612 C 173.536 135.973,172.361 131.993,168.864 132.679 M152.166 132.813 C 150.463 133.369,149.426 134.707,148.534 137.500 C 147.703 140.103,147.453 143.812,148.050 144.691 C 149.261 146.475,152.626 144.906,154.031 141.904 C 154.461 140.983,155.987 134.828,155.997 133.971 C 156.004 133.308,153.224 132.468,152.166 132.813 M183.648 132.887 C 180.244 134.157,177.730 144.186,180.525 145.344 C 182.548 146.182,185.538 143.507,186.406 140.083 C 186.783 138.596,187.667 134.297,187.667 133.950 C 187.667 133.207,184.814 132.452,183.648 132.887 M59.042 133.409 C 57.833 134.100,57.111 135.105,56.611 136.792 L 56.351 137.667 56.852 137.667 C 60.182 137.667,62.333 136.436,62.333 134.531 C 62.333 133.022,60.695 132.463,59.042 133.409 M42.750 133.407 C 41.106 134.004,40.284 135.677,39.265 140.500 C 38.438 144.415,38.408 144.082,39.620 144.435 C 42.667 145.320,44.501 142.933,45.343 136.985 C 45.786 133.853,44.897 132.626,42.750 133.407 M95.704 136.926 C 95.755 136.977,95.688 137.520,95.557 138.134 C 95.425 138.748,95.282 139.419,95.239 139.625 L 95.160 140.000 90.608 140.000 C 88.104 140.000,86.014 139.958,85.963 139.907 C 85.868 139.813,86.265 137.880,86.517 137.208 L 86.658 136.833 91.135 136.833 C 93.597 136.833,95.653 136.875,95.704 136.926 " stroke="none" fill="#fbfbfb" fill-rule="evenodd"></path><path id="path1" d="M0.000 49.667 L 0.000 99.333 199.917 99.333 L 399.833 99.333 399.833 49.667 L 399.833 0.000 199.917 0.000 L 0.000 0.000 0.000 49.667 M130.798 12.042 L 130.750 13.417 129.458 13.465 L 128.167 13.514 128.167 12.090 L 128.167 10.667 129.507 10.667 L 130.847 10.667 130.798 12.042 M134.333 12.083 L 134.333 13.500 133.000 13.500 L 131.667 13.500 131.667 12.083 L 131.667 10.667 133.000 10.667 L 134.333 10.667 134.333 12.083 M101.114 14.390 C 101.867 14.772,103.333 16.142,103.333 16.465 C 103.333 16.608,102.751 17.075,101.595 17.858 L 100.940 18.303 100.253 17.595 C 99.002 16.308,96.667 16.501,96.667 17.891 C 96.667 18.430,98.356 19.833,99.006 19.833 C 99.397 19.833,101.986 21.192,102.453 21.642 C 104.651 23.762,103.923 27.792,101.124 29.005 C 98.731 30.042,95.985 29.512,94.126 27.653 C 92.927 26.453,92.914 26.536,94.457 25.446 L 95.747 24.534 96.590 25.463 C 97.703 26.687,99.104 26.921,99.993 26.032 C 101.074 24.952,100.429 23.998,97.953 23.014 C 95.070 21.869,94.096 20.957,93.667 19.000 C 92.851 15.269,97.351 12.483,101.114 14.390 M19.333 19.833 C 19.433 26.490,19.534 26.777,21.655 26.419 C 23.055 26.182,23.165 25.664,23.166 19.292 L 23.167 14.167 24.843 14.167 L 26.519 14.167 26.468 20.292 C 26.410 27.212,26.429 27.106,25.022 28.377 C 23.535 29.720,19.484 29.854,17.654 28.621 C 16.004 27.509,15.833 26.688,15.833 19.850 L 15.833 14.155 17.542 14.203 L 19.250 14.250 19.333 19.833 M34.396 15.250 C 34.694 15.800,35.467 17.262,36.114 18.500 C 37.497 21.146,38.344 22.723,38.434 22.818 C 38.469 22.856,38.449 20.925,38.389 18.527 L 38.280 14.167 39.807 14.167 L 41.333 14.167 41.333 21.667 L 41.333 29.167 39.937 29.167 L 38.541 29.167 37.913 27.958 C 37.567 27.294,37.081 26.375,36.832 25.917 C 36.584 25.458,35.751 23.853,34.982 22.348 L 33.583 19.614 33.539 24.390 L 33.495 29.167 31.997 29.167 L 30.500 29.167 30.500 21.661 L 30.500 14.155 32.177 14.203 L 33.855 14.250 34.396 15.250 M49.127 21.708 L 49.170 29.167 47.418 29.167 L 45.667 29.167 45.667 21.661 L 45.667 14.155 47.375 14.203 L 49.083 14.250 49.127 21.708 M55.333 14.251 C 55.333 14.339,57.671 22.401,58.036 23.573 L 58.241 24.229 58.357 23.740 C 58.422 23.470,58.596 22.837,58.745 22.333 C 58.894 21.829,59.125 21.004,59.259 20.500 C 59.393 19.996,59.605 19.283,59.730 18.917 C 59.855 18.550,60.161 17.500,60.410 16.583 C 61.132 13.928,60.894 14.167,62.830 14.167 C 63.916 14.167,64.500 14.230,64.500 14.347 C 64.500 14.509,64.279 15.255,62.921 19.667 C 61.779 23.376,61.248 25.119,60.686 27.000 L 60.064 29.083 58.226 29.130 L 56.388 29.177 55.761 27.130 C 55.417 26.004,55.074 24.858,55.000 24.583 C 54.925 24.308,54.664 23.446,54.419 22.667 C 53.709 20.412,51.843 14.299,51.836 14.208 C 51.835 14.185,52.621 14.167,53.583 14.167 C 54.546 14.167,55.333 14.205,55.333 14.251 M77.000 15.750 L 77.000 17.333 73.667 17.333 L 70.333 17.333 70.333 18.500 L 70.333 19.667 72.667 19.667 L 75.000 19.667 75.000 21.167 L 75.000 22.667 72.667 22.667 L 70.333 22.667 70.333 24.330 L 70.333 25.993 73.875 26.038 L 77.417 26.083 77.465 27.625 L 77.513 29.167 72.256 29.167 L 67.000 29.167 67.000 21.667 L 67.000 14.167 72.000 14.167 L 77.000 14.167 77.000 15.750 M87.153 14.344 C 88.372 14.542,88.823 14.718,89.636 15.316 C 91.791 16.902,91.174 21.990,88.753 22.598 C 88.421 22.681,88.495 22.877,89.949 25.749 C 91.853 29.509,91.882 29.167,89.661 29.167 L 87.821 29.167 86.559 26.542 C 85.865 25.098,85.232 23.748,85.152 23.542 C 85.047 23.267,84.873 23.167,84.504 23.167 L 84.000 23.167 84.000 26.167 L 84.000 29.167 82.333 29.167 L 80.667 29.167 80.667 21.667 L 80.667 14.167 83.361 14.167 C 84.843 14.167,86.550 14.247,87.153 14.344 M110.627 21.708 L 110.670 29.167 108.918 29.167 L 107.167 29.167 107.167 21.661 L 107.167 14.155 108.875 14.203 L 110.583 14.250 110.627 21.708 M124.131 15.708 L 124.083 17.250 122.208 17.297 L 120.333 17.344 120.333 23.255 L 120.333 29.167 118.667 29.167 L 117.000 29.167 117.000 23.255 L 117.000 17.344 115.125 17.297 L 113.250 17.250 113.202 15.708 L 113.154 14.167 118.667 14.167 L 124.179 14.167 124.131 15.708 M133.946 16.750 C 134.340 18.125,135.011 20.450,135.437 21.917 C 135.863 23.383,136.281 24.846,136.365 25.167 C 136.450 25.488,136.584 25.975,136.664 26.250 C 136.745 26.525,136.917 27.125,137.046 27.583 C 137.176 28.042,137.338 28.588,137.405 28.798 L 137.526 29.179 135.827 29.131 L 134.127 29.083 133.831 28.083 C 133.669 27.533,133.489 26.877,133.431 26.625 L 133.327 26.167 131.186 26.167 L 129.045 26.167 128.761 27.375 C 128.604 28.040,128.439 28.715,128.394 28.875 C 128.283 29.266,125.000 29.323,125.000 28.934 C 125.000 28.733,125.223 27.911,125.818 25.917 C 126.140 24.836,128.039 18.214,128.351 17.083 C 128.452 16.717,128.632 16.117,128.751 15.750 C 128.871 15.383,129.015 14.875,129.072 14.620 L 129.176 14.156 131.203 14.203 L 133.230 14.250 133.946 16.750 M149.167 15.750 L 149.167 17.333 147.333 17.333 L 145.500 17.333 145.500 23.250 L 145.500 29.167 143.750 29.167 L 142.000 29.167 142.000 23.250 L 142.000 17.333 140.167 17.333 L 138.333 17.333 138.333 15.750 L 138.333 14.167 143.750 14.167 L 149.167 14.167 149.167 15.750 M84.000 18.774 L 84.000 20.715 85.154 20.618 C 86.579 20.499,87.239 20.176,87.482 19.480 C 88.062 17.815,87.053 16.833,84.760 16.833 L 84.000 16.833 84.000 18.774 M131.130 17.750 C 131.077 17.933,130.911 18.608,130.761 19.250 C 130.611 19.892,130.316 21.110,130.105 21.958 L 129.721 23.500 131.205 23.500 C 132.541 23.500,132.680 23.471,132.602 23.208 C 132.554 23.048,132.282 21.904,131.998 20.667 C 131.221 17.284,131.243 17.359,131.130 17.750 M102.209 41.080 C 103.763 41.484,104.692 42.017,105.792 43.132 C 107.111 44.470,107.129 44.384,105.224 45.738 L 103.614 46.882 103.099 46.310 C 101.534 44.573,99.376 44.114,98.320 45.294 C 97.115 46.642,98.199 47.970,101.531 49.224 C 106.274 51.010,108.160 53.774,107.159 57.471 C 105.707 62.832,97.418 63.686,93.729 58.856 C 93.037 57.948,93.035 57.840,93.710 57.391 C 94.007 57.194,94.783 56.653,95.435 56.188 L 96.621 55.343 97.378 56.318 C 99.089 58.522,101.604 58.769,102.731 56.845 C 103.475 55.575,102.520 54.462,99.656 53.260 C 94.866 51.251,93.766 50.035,93.766 46.750 C 93.767 42.475,97.623 39.885,102.209 41.080 M215.716 41.096 C 218.589 41.841,220.500 44.102,220.500 46.758 L 220.500 47.167 218.201 47.167 L 215.902 47.167 215.706 46.431 C 215.216 44.600,212.633 44.316,211.792 46.000 C 211.444 46.695,211.347 55.742,211.678 56.614 C 212.597 59.040,215.600 58.215,215.796 55.483 L 215.878 54.333 214.683 54.333 L 213.489 54.333 213.536 52.542 L 213.583 50.750 217.000 50.750 L 220.417 50.750 220.417 56.250 L 220.417 61.750 219.419 61.750 L 218.421 61.750 218.086 61.059 L 217.750 60.368 217.019 60.934 C 214.168 63.142,209.064 61.874,207.512 58.573 C 206.615 56.663,206.528 46.732,207.391 44.653 C 208.633 41.659,212.128 40.166,215.716 41.096 M24.667 41.560 C 27.085 41.935,28.256 42.774,29.235 44.833 L 29.750 45.917 29.750 51.417 L 29.750 56.917 29.235 58.005 C 28.241 60.107,26.975 61.028,24.666 61.328 C 22.983 61.546,15.878 61.551,15.806 61.334 C 15.775 61.242,15.770 56.705,15.794 51.250 L 15.839 41.333 19.544 41.337 C 21.762 41.339,23.819 41.429,24.667 41.560 M49.002 47.375 C 49.006 57.468,49.116 57.902,51.667 57.902 C 54.224 57.902,54.238 57.857,54.307 48.787 L 54.365 41.324 56.641 41.370 L 58.917 41.417 58.966 48.250 C 58.997 52.632,58.948 55.562,58.829 56.417 C 58.324 60.052,56.435 61.700,52.493 61.947 C 47.741 62.244,45.175 60.482,44.560 56.500 C 44.328 55.003,44.226 41.663,44.444 41.444 C 44.506 41.383,45.556 41.333,46.778 41.333 L 49.000 41.333 49.002 47.375 M79.126 51.458 L 79.169 61.500 76.835 61.500 L 74.500 61.500 74.500 51.412 L 74.500 41.324 76.792 41.370 L 79.083 41.417 79.126 51.458 M130.167 41.569 C 133.338 42.136,134.662 43.595,134.665 46.528 C 134.667 48.591,134.131 49.641,132.532 50.705 L 132.148 50.961 132.618 51.125 C 135.167 52.013,136.003 56.715,134.082 59.360 C 132.824 61.093,131.189 61.486,125.208 61.495 L 121.333 61.500 121.333 63.417 L 121.333 65.333 116.833 65.333 L 112.333 65.333 112.333 67.000 L 112.333 68.667 115.422 68.667 L 118.510 68.667 118.463 70.708 L 118.417 72.750 115.375 72.795 L 112.333 72.841 112.333 75.087 L 112.333 77.333 117.083 77.333 L 121.833 77.333 121.833 79.418 L 121.833 81.504 114.792 81.460 L 107.750 81.417 107.707 71.375 L 107.664 61.333 114.415 61.333 L 121.167 61.333 121.167 51.444 C 121.167 46.006,121.217 41.506,121.278 41.444 C 121.489 41.233,128.866 41.336,130.167 41.569 M154.032 48.708 C 154.088 56.707,154.118 56.972,155.028 57.557 C 156.146 58.276,158.171 57.969,158.744 56.994 C 159.068 56.443,159.087 56.080,159.167 48.917 L 159.250 41.417 161.583 41.417 L 163.917 41.417 163.960 48.332 C 164.029 59.270,163.374 60.964,158.744 61.820 C 153.757 62.742,150.289 60.842,149.577 56.799 C 149.323 55.355,149.205 41.684,149.444 41.444 C 149.506 41.383,150.551 41.333,151.768 41.333 L 153.981 41.333 154.032 48.708 M187.667 41.570 C 189.594 41.851,190.293 42.137,191.287 43.049 C 194.030 45.566,193.292 51.363,190.080 52.524 C 189.331 52.795,189.197 52.387,191.583 57.100 C 192.729 59.362,193.667 61.278,193.667 61.357 C 193.667 61.436,192.544 61.500,191.171 61.500 L 188.676 61.500 187.984 60.042 C 187.603 59.240,186.813 57.571,186.229 56.333 C 185.644 55.096,185.102 53.971,185.024 53.833 C 184.943 53.690,184.587 53.561,184.191 53.532 L 183.500 53.481 183.500 57.490 L 183.500 61.500 181.250 61.500 L 179.000 61.500 179.000 51.417 L 179.000 41.333 182.542 41.337 C 184.666 41.339,186.717 41.432,187.667 41.570 M125.833 47.063 L 125.833 49.500 126.792 49.493 C 128.939 49.476,129.999 48.675,130.000 47.067 C 130.000 45.318,129.408 44.800,127.292 44.697 L 125.833 44.626 125.833 47.063 M183.500 47.505 L 183.500 50.048 185.166 49.957 C 187.663 49.819,188.422 49.220,188.407 47.397 C 188.393 45.680,187.634 45.115,185.220 45.026 L 183.500 44.962 183.500 47.505 M20.333 51.417 L 20.333 57.543 21.708 57.426 C 24.718 57.169,25.063 56.598,25.135 51.750 C 25.195 47.639,25.094 47.082,24.133 46.260 C 23.486 45.706,23.341 45.663,21.208 45.399 L 20.333 45.290 20.333 51.417 M125.833 55.440 L 125.833 58.214 127.224 58.127 C 129.582 57.980,130.488 57.207,130.496 55.333 C 130.504 53.560,129.377 52.667,127.131 52.667 L 125.833 52.667 125.833 55.440 M63.285 60.857 C 65.472 61.178,67.310 62.216,68.277 63.677 C 68.791 64.455,68.823 64.403,67.080 65.650 C 65.383 66.864,65.575 66.844,64.660 65.903 C 62.721 63.912,59.822 64.109,59.839 66.231 C 59.848 67.379,60.568 67.954,63.500 69.152 C 67.394 70.744,68.646 71.953,69.173 74.631 C 70.610 81.933,59.538 84.817,55.241 78.260 C 54.888 77.721,54.769 77.850,57.139 76.213 L 58.529 75.253 58.889 75.750 C 60.713 78.263,63.367 78.819,64.519 76.930 C 65.375 75.526,64.521 74.387,61.754 73.245 C 57.535 71.504,56.373 70.516,55.738 68.127 C 54.686 64.176,57.059 61.294,61.868 60.682 C 61.933 60.673,62.571 60.752,63.285 60.857 M88.952 60.857 C 91.144 61.178,92.862 62.145,93.898 63.640 C 94.465 64.457,94.500 64.396,92.746 65.650 C 91.052 66.862,91.250 66.840,90.368 65.917 C 88.483 63.943,85.500 64.106,85.500 66.184 C 85.500 67.379,86.171 67.901,89.517 69.305 C 93.014 70.772,94.201 71.903,94.782 74.322 C 96.472 81.367,86.272 84.891,81.464 78.922 C 80.468 77.687,80.391 77.914,82.260 76.589 C 84.211 75.206,84.106 75.216,85.013 76.333 C 86.601 78.290,89.175 78.587,90.186 76.930 C 91.034 75.539,90.059 74.221,87.451 73.237 C 82.474 71.358,80.685 69.108,81.333 65.542 C 81.863 62.628,83.728 61.166,87.535 60.682 C 87.600 60.673,88.237 60.752,88.952 60.857 M42.833 63.333 L 42.833 65.333 38.333 65.333 L 33.833 65.333 33.833 67.000 L 33.833 68.667 36.922 68.667 L 40.010 68.667 39.963 70.708 L 39.917 72.750 36.875 72.795 L 33.833 72.841 33.833 75.087 L 33.833 77.333 38.583 77.333 L 43.333 77.333 43.333 79.418 L 43.333 81.504 36.292 81.460 L 29.250 81.417 29.207 71.375 L 29.164 61.333 35.999 61.333 L 42.833 61.333 42.833 63.333 M139.953 62.292 C 140.224 62.819,141.083 64.450,141.863 65.917 C 142.644 67.383,143.792 69.558,144.415 70.750 C 145.038 71.942,145.555 72.929,145.565 72.945 C 145.575 72.960,145.562 70.354,145.536 67.153 L 145.488 61.333 147.494 61.333 L 149.500 61.333 149.500 71.422 L 149.500 81.511 147.654 81.464 L 145.808 81.417 144.936 79.750 C 143.636 77.266,141.518 73.202,140.226 70.718 L 139.083 68.519 139.040 75.010 L 138.996 81.500 136.998 81.500 L 135.000 81.500 135.000 71.417 L 135.000 61.333 137.231 61.333 L 139.462 61.333 139.953 62.292 M159.545 122.775 C 158.388 123.050,158.450 122.951,157.990 125.250 C 157.880 125.800,157.694 126.662,157.577 127.167 C 157.459 127.671,157.235 128.769,157.077 129.608 C 156.702 131.609,156.707 131.601,155.814 131.202 C 152.095 129.539,148.891 130.870,146.942 134.889 C 144.955 138.985,144.608 144.789,146.239 146.641 C 147.734 148.338,150.665 147.864,152.962 145.553 C 154.406 144.099,154.332 144.117,154.337 145.208 C 154.341 146.085,154.552 147.274,154.735 147.458 C 154.832 147.555,156.635 146.682,156.764 146.476 C 156.801 146.417,156.752 145.780,156.655 145.059 C 156.469 143.670,156.587 142.280,157.079 140.083 C 157.405 138.625,158.099 135.392,158.510 133.417 C 158.682 132.592,158.939 131.392,159.081 130.750 C 159.223 130.108,159.411 129.246,159.498 128.833 C 159.784 127.476,160.695 123.258,160.784 122.875 C 160.885 122.446,160.922 122.449,159.545 122.775 M191.335 122.768 C 190.831 122.903,190.347 123.086,190.258 123.175 C 190.100 123.333,189.490 126.013,188.856 129.333 C 188.524 131.073,188.338 131.539,188.030 131.407 C 183.179 129.327,179.450 131.314,177.846 136.833 C 177.726 137.246,177.557 137.808,177.470 138.083 C 176.891 139.920,176.689 143.360,177.075 144.809 C 178.019 148.356,181.744 148.647,184.816 145.412 L 186.000 144.166 186.000 144.987 C 186.000 145.924,186.326 147.500,186.520 147.500 C 187.300 147.500,188.414 146.481,188.376 145.802 C 188.241 143.386,188.313 142.311,188.742 140.333 C 188.991 139.188,189.383 137.387,189.612 136.333 C 189.842 135.279,190.090 134.117,190.163 133.750 C 190.237 133.383,190.378 132.708,190.476 132.250 C 190.575 131.792,190.890 130.329,191.176 129.000 C 191.463 127.671,191.763 126.246,191.843 125.833 C 191.923 125.421,192.104 124.558,192.245 123.917 C 192.606 122.268,192.709 122.398,191.335 122.768 M124.719 123.238 C 123.289 123.876,123.409 126.003,124.904 126.496 C 126.813 127.126,128.184 124.657,126.636 123.378 C 126.250 123.059,125.280 122.989,124.719 123.238 M23.917 123.478 C 19.751 124.675,16.990 128.668,15.491 135.667 C 13.748 143.804,16.476 148.482,22.476 147.648 C 27.309 146.976,30.267 143.227,32.061 135.500 C 34.100 126.716,30.605 121.556,23.917 123.478 M102.741 124.015 C 102.624 124.204,102.357 125.112,101.840 127.083 C 101.442 128.601,100.550 131.935,100.146 133.417 C 99.971 134.058,99.608 135.408,99.339 136.417 C 98.587 139.233,98.087 141.092,97.590 142.917 C 97.113 144.666,96.782 145.935,96.599 146.716 L 96.490 147.181 97.699 147.132 L 98.908 147.083 99.257 145.667 C 99.449 144.887,99.810 143.387,100.060 142.333 C 100.864 138.945,101.299 137.123,101.732 135.333 C 102.732 131.204,103.309 128.703,103.416 128.042 C 103.669 126.463,103.746 126.940,104.507 134.833 C 105.200 142.023,105.117 141.667,106.082 141.667 C 106.931 141.667,107.030 141.556,108.160 139.333 C 108.556 138.554,108.933 137.842,108.999 137.750 C 109.064 137.658,109.456 136.946,109.871 136.167 C 111.412 133.270,112.245 131.719,112.869 130.583 C 113.222 129.942,113.714 128.985,113.962 128.458 C 114.386 127.559,114.787 127.146,114.609 127.792 C 114.507 128.163,114.088 130.260,113.835 131.667 C 113.728 132.262,113.535 133.313,113.406 134.000 C 113.277 134.688,112.980 136.300,112.747 137.583 C 112.514 138.867,112.135 140.929,111.905 142.167 C 111.676 143.404,111.410 144.867,111.315 145.417 C 111.220 145.967,111.108 146.589,111.066 146.799 C 110.992 147.173,111.016 147.180,112.198 147.132 C 113.600 147.075,113.458 147.308,113.913 144.333 C 114.060 143.371,114.250 142.133,114.336 141.583 C 114.672 139.424,115.015 137.200,115.170 136.167 C 115.259 135.571,115.515 133.921,115.738 132.500 C 115.960 131.079,116.265 129.092,116.414 128.083 C 116.563 127.075,116.756 125.890,116.843 125.450 C 117.162 123.828,117.165 123.833,115.792 123.836 C 114.191 123.839,114.535 123.479,112.457 127.333 C 112.136 127.929,111.688 128.754,111.463 129.167 C 111.237 129.579,110.649 130.667,110.158 131.583 C 109.666 132.500,108.900 133.925,108.456 134.750 C 108.012 135.575,107.493 136.606,107.302 137.042 C 106.820 138.143,106.720 138.046,106.619 136.375 C 106.571 135.573,106.407 133.942,106.255 132.750 C 105.979 130.594,105.871 129.669,105.503 126.333 C 105.226 123.822,105.233 123.833,103.930 123.833 C 103.333 123.833,102.803 123.914,102.741 124.015 M26.950 126.827 C 27.907 127.410,28.059 127.948,28.040 130.667 C 27.986 138.226,24.967 144.579,21.563 144.297 C 19.994 144.167,19.500 143.236,19.500 140.414 C 19.500 132.236,23.589 124.777,26.950 126.827 M44.376 130.072 C 43.283 130.339,41.893 131.250,41.063 132.241 C 40.268 133.193,40.167 133.189,40.166 132.208 C 40.163 130.017,39.839 129.790,37.864 130.598 L 36.353 131.216 36.443 132.566 C 36.532 133.906,36.424 134.840,35.922 137.083 C 35.778 137.725,35.591 138.587,35.505 139.000 C 35.116 140.886,33.947 146.443,33.560 148.250 C 33.324 149.350,33.066 150.587,32.988 151.000 C 32.909 151.412,32.729 152.275,32.589 152.917 C 32.448 153.558,32.333 154.147,32.333 154.224 C 32.333 154.397,33.719 154.226,35.139 153.878 C 36.410 153.566,36.350 153.678,37.008 150.417 C 37.119 149.867,37.312 148.993,37.438 148.476 C 37.564 147.959,37.667 147.377,37.667 147.184 C 37.667 146.760,37.622 146.762,38.431 147.152 C 42.842 149.283,47.480 145.734,48.976 139.083 C 50.438 132.581,48.627 129.033,44.376 130.072 M59.901 130.060 C 55.192 130.862,51.968 135.393,51.940 141.250 C 51.920 145.327,53.159 147.058,56.516 147.643 C 59.311 148.129,64.485 146.586,64.117 145.376 C 63.942 144.799,63.345 143.289,63.258 143.202 C 63.209 143.153,62.549 143.406,61.793 143.765 C 58.429 145.358,55.917 144.573,55.794 141.889 L 55.750 140.917 57.833 140.717 C 61.435 140.371,62.964 139.838,64.519 138.383 C 66.901 136.155,66.875 132.349,64.466 130.729 C 63.756 130.252,63.364 130.142,61.583 129.921 C 61.308 129.887,60.552 129.950,59.901 130.060 M78.495 130.060 C 77.096 130.361,74.167 132.481,74.167 133.192 C 74.167 133.971,73.859 133.021,73.780 131.999 C 73.602 129.689,73.102 129.565,70.333 131.144 C 70.134 131.257,70.083 131.672,70.083 133.185 C 70.083 134.581,69.988 135.458,69.723 136.500 C 69.525 137.279,69.160 138.817,68.912 139.917 C 68.048 143.746,67.660 145.420,67.497 146.019 C 67.176 147.199,67.126 147.167,69.244 147.167 L 71.154 147.167 71.304 146.542 C 71.387 146.198,71.581 145.317,71.735 144.583 C 71.888 143.850,72.082 142.950,72.165 142.583 C 72.247 142.217,72.436 141.354,72.583 140.667 C 73.706 135.437,75.131 133.333,77.552 133.333 C 79.240 133.333,79.232 133.814,77.414 141.583 C 77.263 142.225,77.074 143.050,76.993 143.417 C 76.912 143.783,76.693 144.716,76.506 145.490 C 76.320 146.264,76.167 146.960,76.167 147.037 C 76.167 147.114,77.038 147.156,78.103 147.130 L 80.038 147.083 80.325 145.917 C 80.483 145.275,80.708 144.300,80.826 143.750 C 80.944 143.200,81.138 142.337,81.258 141.833 C 81.379 141.329,81.552 140.579,81.644 140.167 C 82.206 137.653,82.392 136.863,82.530 136.417 C 83.804 132.295,81.918 129.324,78.495 130.060 M136.915 130.890 C 135.656 131.358,134.640 132.053,133.618 133.146 C 132.610 134.225,132.667 134.262,132.667 132.520 C 132.667 130.594,132.510 130.429,131.262 131.041 L 130.378 131.474 130.462 133.067 C 130.509 133.963,130.466 134.972,130.365 135.372 C 130.266 135.763,130.064 136.646,129.917 137.333 C 129.769 138.021,129.581 138.883,129.500 139.250 C 129.419 139.617,129.239 140.442,129.102 141.083 C 128.964 141.725,128.664 143.112,128.436 144.167 C 128.207 145.221,127.971 146.331,127.911 146.633 L 127.803 147.183 128.922 147.133 L 130.042 147.083 130.354 145.750 C 130.527 145.017,130.737 144.079,130.822 143.667 C 132.047 137.723,132.549 136.361,134.156 134.619 C 135.473 133.194,136.467 132.670,137.863 132.668 C 139.730 132.666,139.978 133.332,139.261 136.417 C 139.111 137.058,138.923 137.921,138.843 138.333 C 138.763 138.746,138.463 140.171,138.176 141.500 C 137.890 142.829,137.576 144.292,137.478 144.750 C 137.380 145.208,137.236 145.883,137.157 146.250 C 137.079 146.617,137.011 146.976,137.007 147.049 C 136.982 147.517,139.241 147.067,139.348 146.583 C 139.813 144.492,140.053 143.374,140.333 142.000 C 140.657 140.415,140.939 139.102,141.426 136.917 C 142.351 132.769,142.187 131.538,140.612 130.823 C 139.659 130.390,138.187 130.417,136.915 130.890 M167.813 130.885 C 161.623 132.995,159.102 144.627,164.299 147.102 C 166.185 148.001,169.300 147.693,171.734 146.369 C 173.246 145.546,173.326 145.400,172.750 144.530 C 172.222 143.732,172.142 143.710,171.492 144.172 C 167.751 146.837,164.000 145.604,164.000 141.709 L 164.000 140.667 164.958 140.664 C 171.286 140.645,174.504 138.648,174.501 134.741 C 174.498 131.367,171.489 129.632,167.813 130.885 M119.996 131.428 C 119.906 131.663,119.833 132.075,119.833 132.344 L 119.833 132.833 121.250 132.833 C 122.924 132.833,122.867 132.709,122.312 135.174 C 122.116 136.041,121.899 137.050,121.830 137.417 C 121.760 137.783,121.622 138.458,121.524 138.917 C 121.425 139.375,121.110 140.837,120.823 142.167 C 120.272 144.719,120.104 145.526,119.909 146.542 L 119.790 147.167 120.884 147.167 C 121.781 147.167,121.993 147.114,122.066 146.875 C 122.152 146.588,122.281 146.000,123.100 142.167 C 123.325 141.112,123.590 139.875,123.689 139.417 C 123.789 138.958,123.929 138.283,124.002 137.917 C 124.075 137.550,124.404 135.978,124.734 134.424 C 125.064 132.870,125.333 131.463,125.333 131.299 C 125.333 131.024,125.123 131.000,122.746 131.000 L 120.158 131.000 119.996 131.428 M171.153 132.792 C 171.987 133.219,172.376 134.039,172.271 135.149 C 172.065 137.326,170.242 138.291,165.440 138.764 L 164.297 138.876 164.419 138.146 C 165.083 134.170,168.515 131.442,171.153 132.792 M155.167 133.145 C 156.282 133.711,156.272 133.551,155.444 137.385 C 154.515 141.692,154.046 142.811,152.645 144.071 C 149.638 146.774,147.268 145.769,147.563 141.917 C 148.106 134.816,151.267 131.169,155.167 133.145 M186.766 133.083 C 187.896 133.600,187.919 133.663,187.573 135.273 C 187.418 135.994,187.233 136.921,187.161 137.333 C 186.225 142.697,184.187 145.493,181.208 145.498 C 179.003 145.502,178.617 141.967,180.280 137.000 C 181.574 133.132,183.858 131.753,186.766 133.083 M61.875 133.164 C 63.221 134.222,62.144 136.768,60.118 137.317 C 59.205 137.565,56.448 137.838,56.309 137.695 C 56.188 137.570,56.675 135.955,57.054 135.226 C 58.019 133.369,60.686 132.229,61.875 133.164 M45.048 133.461 C 45.886 134.387,45.694 137.353,44.554 141.056 C 43.729 143.738,42.817 144.583,40.748 144.583 C 38.394 144.583,38.274 144.408,38.850 141.822 C 39.043 140.957,39.235 140.063,39.277 139.833 C 39.956 136.162,40.798 134.359,42.243 133.477 C 42.937 133.054,44.671 133.044,45.048 133.461 M86.527 137.542 C 86.436 137.840,86.313 138.370,86.254 138.720 C 86.195 139.070,86.106 139.464,86.056 139.595 C 85.978 139.798,86.643 139.833,90.544 139.833 L 95.123 139.833 95.227 139.208 C 95.285 138.865,95.395 138.227,95.473 137.792 L 95.614 137.000 91.153 137.000 L 86.693 137.000 86.527 137.542 " stroke="none" fill="#044c94" fill-rule="evenodd"></path><path id="path2" d="M131.725 12.000 C 131.725 12.779,131.754 13.098,131.789 12.708 C 131.824 12.319,131.824 11.681,131.789 11.292 C 131.754 10.902,131.725 11.221,131.725 12.000 M134.225 12.000 C 134.225 12.779,134.254 13.098,134.289 12.708 C 134.324 12.319,134.324 11.681,134.289 11.292 C 134.254 10.902,134.225 11.221,134.225 12.000 M98.125 13.951 C 98.331 13.991,98.669 13.991,98.875 13.951 C 99.081 13.911,98.912 13.879,98.500 13.879 C 98.087 13.879,97.919 13.911,98.125 13.951 M15.908 19.750 C 15.908 22.775,15.930 24.036,15.958 22.552 C 15.986 21.068,15.986 18.593,15.958 17.052 C 15.931 15.511,15.908 16.725,15.908 19.750 M38.379 15.000 C 38.379 15.412,38.411 15.581,38.451 15.375 C 38.491 15.169,38.491 14.831,38.451 14.625 C 38.411 14.419,38.379 14.588,38.379 15.000 M45.743 21.667 C 45.743 25.746,45.765 27.415,45.792 25.375 C 45.818 23.335,45.818 19.998,45.792 17.958 C 45.765 15.919,45.743 17.587,45.743 21.667 M107.243 21.667 C 107.243 25.746,107.265 27.415,107.292 25.375 C 107.318 23.335,107.318 19.998,107.292 17.958 C 107.265 15.919,107.243 17.587,107.243 21.667 M138.392 15.750 C 138.392 16.575,138.420 16.934,138.455 16.547 C 138.490 16.160,138.490 15.485,138.456 15.047 C 138.422 14.609,138.393 14.925,138.392 15.750 M102.000 15.052 C 102.000 15.081,102.244 15.325,102.542 15.594 L 103.083 16.083 102.594 15.542 C 102.138 15.037,102.000 14.923,102.000 15.052 M83.897 18.750 C 83.897 19.850,83.924 20.278,83.957 19.702 C 83.990 19.125,83.989 18.225,83.956 17.702 C 83.923 17.178,83.897 17.650,83.897 18.750 M99.833 17.052 C 99.833 17.081,100.077 17.325,100.375 17.594 L 100.917 18.083 100.427 17.542 C 99.971 17.037,99.833 16.923,99.833 17.052 M145.409 23.083 C 145.409 26.383,145.431 27.757,145.458 26.136 C 145.485 24.515,145.485 21.815,145.458 20.136 C 145.431 18.457,145.409 19.783,145.409 23.083 M33.333 20.333 C 33.333 21.006,33.365 21.524,33.403 21.486 C 33.525 21.364,33.563 19.341,33.446 19.223 C 33.384 19.162,33.333 19.661,33.333 20.333 M89.740 21.708 L 89.250 22.250 89.792 21.760 C 90.090 21.491,90.333 21.248,90.333 21.219 C 90.333 21.090,90.196 21.203,89.740 21.708 M83.833 26.117 C 83.787 27.786,83.808 29.093,83.879 29.021 C 83.950 28.950,83.987 27.585,83.962 25.988 L 83.916 23.083 83.833 26.117 M131.167 23.500 L 129.583 23.603 131.115 23.635 C 131.993 23.653,132.691 23.595,132.750 23.500 C 132.807 23.408,132.830 23.348,132.802 23.365 C 132.773 23.383,132.037 23.443,131.167 23.500 M129.667 26.111 C 131.470 26.232,133.463 26.240,133.391 26.125 C 133.349 26.056,132.324 26.014,131.115 26.030 C 129.906 26.047,129.254 26.083,129.667 26.111 M77.392 27.667 C 77.392 28.446,77.420 28.765,77.455 28.375 C 77.490 27.985,77.490 27.348,77.455 26.958 C 77.420 26.569,77.392 26.887,77.392 27.667 M108.542 29.115 C 108.702 29.157,108.965 29.157,109.125 29.115 C 109.285 29.073,109.154 29.039,108.833 29.039 C 108.513 29.039,108.381 29.073,108.542 29.115 M20.708 29.453 C 20.960 29.491,21.373 29.491,21.625 29.453 C 21.877 29.415,21.671 29.383,21.167 29.383 C 20.662 29.383,20.456 29.415,20.708 29.453 M98.128 29.454 C 98.428 29.491,98.878 29.490,99.128 29.452 C 99.378 29.414,99.133 29.384,98.583 29.385 C 98.033 29.386,97.828 29.417,98.128 29.454 M48.909 48.083 C 48.909 51.750,48.931 53.226,48.958 51.364 C 48.985 49.502,48.985 46.502,48.958 44.697 C 48.931 42.893,48.909 44.417,48.909 48.083 M54.409 48.083 C 54.409 51.750,54.431 53.226,54.458 51.364 C 54.485 49.502,54.485 46.502,54.458 44.697 C 54.431 42.893,54.409 44.417,54.409 48.083 M74.581 51.417 L 74.583 61.417 76.750 61.424 L 78.917 61.431 76.793 61.377 L 74.669 61.324 74.624 51.370 L 74.579 41.417 74.581 51.417 M153.910 48.333 C 153.910 52.137,153.931 53.694,153.958 51.792 C 153.985 49.890,153.985 46.777,153.958 44.875 C 153.931 42.973,153.910 44.529,153.910 48.333 M208.740 42.708 L 208.250 43.250 208.792 42.760 C 209.297 42.304,209.410 42.167,209.281 42.167 C 209.252 42.167,209.009 42.410,208.740 42.708 M125.740 44.716 C 125.694 44.835,125.680 45.979,125.709 47.258 L 125.760 49.583 125.797 47.133 L 125.833 44.682 126.958 44.624 L 128.083 44.565 126.953 44.533 C 126.156 44.510,125.798 44.564,125.740 44.716 M183.410 47.458 L 183.417 50.083 184.667 50.094 L 185.917 50.104 184.713 50.045 L 183.508 49.986 183.456 47.410 L 183.404 44.833 183.410 47.458 M93.709 46.750 C 93.711 47.117,93.745 47.247,93.785 47.040 C 93.824 46.832,93.823 46.532,93.781 46.373 C 93.739 46.214,93.707 46.383,93.709 46.750 M215.887 46.750 C 215.919 47.063,216.061 47.086,218.210 47.130 L 220.500 47.176 220.481 46.796 C 220.466 46.514,220.442 46.491,220.385 46.708 C 220.318 46.967,220.067 47.000,218.167 47.000 C 216.270 47.000,216.015 46.967,215.938 46.708 C 215.872 46.481,215.860 46.491,215.887 46.750 M192.881 47.417 C 192.882 47.875,192.915 48.043,192.953 47.789 C 192.991 47.536,192.990 47.161,192.951 46.956 C 192.911 46.751,192.880 46.958,192.881 47.417 M206.905 51.500 C 206.905 53.746,206.929 54.665,206.958 53.542 C 206.987 52.419,206.987 50.581,206.958 49.458 C 206.929 48.335,206.905 49.254,206.905 51.500 M220.408 56.250 C 220.408 59.275,220.430 60.536,220.458 59.052 C 220.486 57.568,220.486 55.093,220.458 53.552 C 220.431 52.011,220.408 53.225,220.408 56.250 M125.740 52.715 C 125.695 52.833,125.681 54.127,125.708 55.590 L 125.759 58.250 125.796 55.466 L 125.833 52.681 127.042 52.624 L 128.250 52.566 127.036 52.533 C 126.174 52.510,125.799 52.562,125.740 52.715 M183.333 57.328 L 183.333 61.324 181.125 61.375 L 178.917 61.427 181.208 61.464 L 183.500 61.500 183.500 57.417 C 183.500 55.171,183.463 53.333,183.417 53.333 C 183.371 53.333,183.333 55.131,183.333 57.328 M214.121 54.287 C 214.417 54.324,214.942 54.324,215.288 54.288 C 215.634 54.252,215.392 54.222,214.750 54.221 C 214.108 54.221,213.825 54.250,214.121 54.287 M107.218 55.750 C 107.219 56.300,107.250 56.505,107.287 56.205 C 107.325 55.906,107.324 55.456,107.286 55.205 C 107.248 54.955,107.217 55.200,107.218 55.750 M130.539 55.333 C 130.539 55.654,130.573 55.785,130.615 55.625 C 130.657 55.465,130.657 55.202,130.615 55.042 C 130.573 54.881,130.539 55.012,130.539 55.333 M133.573 59.708 L 133.083 60.250 133.625 59.760 C 133.923 59.491,134.167 59.248,134.167 59.219 C 134.167 59.090,134.029 59.203,133.573 59.708 M191.083 61.333 L 188.583 61.430 191.125 61.465 C 192.732 61.487,193.667 61.439,193.667 61.333 C 193.667 61.242,193.648 61.182,193.625 61.202 C 193.602 61.221,192.458 61.280,191.083 61.333 M17.718 61.458 C 18.800 61.487,20.525 61.487,21.551 61.458 C 22.577 61.428,21.692 61.405,19.583 61.405 C 17.475 61.405,16.635 61.429,17.718 61.458 M42.702 63.206 L 42.667 65.161 38.125 65.208 L 33.583 65.256 38.130 65.294 C 41.760 65.325,42.694 65.289,42.761 65.114 C 42.807 64.994,42.821 64.075,42.791 63.073 L 42.737 61.250 42.702 63.206 M121.167 63.247 L 121.167 65.161 116.667 65.210 L 112.167 65.258 116.708 65.254 L 121.250 65.250 121.297 63.378 L 121.344 61.506 125.297 61.458 L 129.250 61.410 125.208 61.372 L 121.167 61.333 121.167 63.247 M135.078 71.333 C 135.078 76.879,135.099 79.148,135.125 76.375 C 135.151 73.602,135.151 69.065,135.125 66.292 C 135.099 63.519,135.078 65.787,135.078 71.333 M29.205 62.167 C 29.205 62.487,29.240 62.619,29.282 62.458 C 29.323 62.298,29.323 62.035,29.282 61.875 C 29.240 61.715,29.205 61.846,29.205 62.167 M51.208 61.953 C 51.460 61.991,51.873 61.991,52.125 61.953 C 52.377 61.915,52.171 61.883,51.667 61.883 C 51.163 61.883,50.956 61.915,51.208 61.953 M99.792 61.954 C 100.090 61.991,100.577 61.991,100.875 61.954 C 101.173 61.917,100.929 61.887,100.333 61.887 C 99.737 61.887,99.494 61.917,99.792 61.954 M156.208 61.953 C 156.460 61.991,156.873 61.991,157.125 61.953 C 157.377 61.915,157.171 61.883,156.667 61.883 C 156.162 61.883,155.956 61.915,156.208 61.953 M212.961 61.954 C 213.261 61.991,213.711 61.990,213.961 61.952 C 214.212 61.914,213.967 61.884,213.417 61.885 C 212.867 61.886,212.662 61.917,212.961 61.954 M57.073 62.708 L 56.583 63.250 57.125 62.760 C 57.630 62.304,57.743 62.167,57.615 62.167 C 57.586 62.167,57.342 62.410,57.073 62.708 M82.740 62.708 L 82.250 63.250 82.792 62.760 C 83.090 62.491,83.333 62.248,83.333 62.219 C 83.333 62.090,83.196 62.203,82.740 62.708 M61.627 64.451 C 61.834 64.491,62.134 64.490,62.294 64.448 C 62.453 64.406,62.283 64.374,61.917 64.375 C 61.550 64.377,61.420 64.411,61.627 64.451 M87.208 64.448 C 87.369 64.490,87.631 64.490,87.792 64.448 C 87.952 64.406,87.821 64.372,87.500 64.372 C 87.179 64.372,87.048 64.406,87.208 64.448 M29.212 65.833 C 29.212 66.246,29.245 66.415,29.284 66.208 C 29.324 66.002,29.324 65.665,29.284 65.458 C 29.245 65.252,29.212 65.421,29.212 65.833 M29.214 67.583 C 29.216 68.042,29.248 68.209,29.286 67.956 C 29.325 67.703,29.324 67.328,29.284 67.123 C 29.244 66.918,29.213 67.125,29.214 67.583 M118.396 70.667 C 118.396 71.721,118.423 72.152,118.456 71.625 C 118.490 71.098,118.490 70.235,118.456 69.708 C 118.423 69.181,118.396 69.612,118.396 70.667 M138.907 74.583 C 138.907 77.333,138.930 78.482,138.958 77.135 C 138.986 75.789,138.986 73.539,138.958 72.135 C 138.930 70.732,138.907 71.833,138.907 74.583 M67.000 71.052 C 67.000 71.081,67.244 71.325,67.542 71.594 L 68.083 72.083 67.594 71.542 C 67.138 71.037,67.000 70.923,67.000 71.052 M92.667 71.052 C 92.667 71.081,92.910 71.325,93.208 71.594 L 93.750 72.083 93.260 71.542 C 92.804 71.037,92.667 70.923,92.667 71.052 M103.288 123.787 C 103.584 123.824,104.109 123.824,104.455 123.788 C 104.800 123.752,104.558 123.722,103.917 123.721 C 103.275 123.721,102.992 123.750,103.288 123.787 M114.833 123.770 C 115.812 123.894,117.130 123.907,117.058 123.792 C 117.015 123.723,116.404 123.678,115.698 123.692 C 114.993 123.705,114.604 123.740,114.833 123.770 M30.333 124.219 C 30.333 124.248,30.577 124.491,30.875 124.760 L 31.417 125.250 30.927 124.708 C 30.471 124.203,30.333 124.090,30.333 124.219 M103.512 127.782 C 103.549 128.214,103.810 128.581,103.822 128.218 C 103.828 128.017,103.758 127.807,103.667 127.750 C 103.575 127.693,103.505 127.708,103.512 127.782 M32.714 130.250 C 32.716 130.708,32.748 130.876,32.786 130.623 C 32.825 130.369,32.824 129.994,32.784 129.789 C 32.744 129.584,32.713 129.792,32.714 130.250 M138.542 130.453 C 138.794 130.491,139.206 130.491,139.458 130.453 C 139.710 130.415,139.504 130.383,139.000 130.383 C 138.496 130.383,138.290 130.415,138.542 130.453 M152.461 130.454 C 152.761 130.491,153.211 130.490,153.461 130.452 C 153.712 130.414,153.467 130.384,152.917 130.385 C 152.367 130.386,152.162 130.417,152.461 130.454 M169.628 130.454 C 169.928 130.491,170.378 130.490,170.628 130.452 C 170.878 130.414,170.633 130.384,170.083 130.385 C 169.533 130.386,169.328 130.417,169.628 130.454 M184.208 130.453 C 184.460 130.491,184.873 130.491,185.125 130.453 C 185.377 130.415,185.171 130.383,184.667 130.383 C 184.162 130.383,183.956 130.415,184.208 130.453 M180.240 132.208 L 179.750 132.750 180.292 132.260 C 180.797 131.804,180.910 131.667,180.781 131.667 C 180.752 131.667,180.509 131.910,180.240 132.208 M73.860 132.645 C 73.837 133.276,73.867 133.346,74.083 133.167 C 74.358 132.938,74.425 132.757,74.177 132.910 C 74.092 132.963,73.991 132.761,73.954 132.461 C 73.897 131.999,73.883 132.027,73.860 132.645 M164.742 132.708 L 164.083 133.417 164.792 132.758 C 165.450 132.145,165.577 132.000,165.450 132.000 C 165.423 132.000,165.105 132.319,164.742 132.708 M36.385 133.250 C 36.386 133.800,36.417 134.005,36.454 133.705 C 36.491 133.406,36.490 132.956,36.452 132.705 C 36.414 132.455,36.384 132.700,36.385 133.250 M60.460 132.951 C 60.668 132.991,60.968 132.990,61.127 132.948 C 61.286 132.906,61.117 132.874,60.750 132.875 C 60.383 132.877,60.253 132.911,60.460 132.951 M120.547 132.956 C 120.985 132.990,121.660 132.990,122.047 132.955 C 122.434 132.920,122.075 132.892,121.250 132.892 C 120.425 132.893,120.109 132.922,120.547 132.956 M49.553 134.833 C 49.553 135.429,49.584 135.673,49.621 135.375 C 49.658 135.077,49.658 134.590,49.621 134.292 C 49.584 133.994,49.553 134.237,49.553 134.833 M134.406 134.375 L 133.917 134.917 134.458 134.427 C 134.963 133.971,135.077 133.833,134.948 133.833 C 134.919 133.833,134.675 134.077,134.406 134.375 M88.167 136.951 C 92.110 137.069,95.795 137.072,95.725 136.958 C 95.682 136.890,93.608 136.849,91.115 136.868 C 88.623 136.887,87.296 136.924,88.167 136.951 M165.794 138.618 C 166.001 138.658,166.301 138.656,166.460 138.615 C 166.620 138.573,166.450 138.540,166.083 138.542 C 165.717 138.544,165.586 138.578,165.794 138.618 M14.875 139.750 C 14.877 140.117,14.911 140.247,14.951 140.040 C 14.991 139.832,14.990 139.532,14.948 139.373 C 14.906 139.214,14.874 139.383,14.875 139.750 M85.978 139.878 C 86.048 139.948,88.163 139.985,90.678 139.961 L 95.250 139.916 90.550 139.833 C 87.965 139.787,85.907 139.807,85.978 139.878 M19.548 140.583 C 19.549 141.042,19.581 141.209,19.620 140.956 C 19.658 140.703,19.657 140.328,19.617 140.123 C 19.578 139.918,19.546 140.125,19.548 140.583 M51.724 141.417 C 51.724 142.150,51.754 142.429,51.789 142.037 C 51.824 141.645,51.824 141.045,51.788 140.704 C 51.752 140.363,51.723 140.683,51.724 141.417 M165.625 140.784 C 165.831 140.824,166.169 140.824,166.375 140.784 C 166.581 140.745,166.412 140.712,166.000 140.712 C 165.587 140.712,165.419 140.745,165.625 140.784 M145.056 142.667 C 145.056 143.354,145.085 143.635,145.121 143.292 C 145.157 142.948,145.157 142.385,145.121 142.042 C 145.085 141.698,145.056 141.979,145.056 142.667 M176.714 142.750 C 176.716 143.208,176.748 143.376,176.786 143.123 C 176.825 142.869,176.824 142.494,176.784 142.289 C 176.744 142.084,176.713 142.292,176.714 142.750 M184.324 143.958 L 183.750 144.583 184.375 144.009 C 184.957 143.474,185.077 143.333,184.949 143.333 C 184.922 143.333,184.640 143.615,184.324 143.958 M185.881 145.083 C 185.882 145.542,185.915 145.709,185.953 145.456 C 185.991 145.203,185.990 144.828,185.951 144.623 C 185.911 144.418,185.880 144.625,185.881 145.083 M162.500 145.885 C 162.500 145.914,162.744 146.158,163.042 146.427 L 163.583 146.917 163.094 146.375 C 162.638 145.870,162.500 145.757,162.500 145.885 M148.460 147.785 C 148.668 147.824,148.968 147.823,149.127 147.781 C 149.286 147.739,149.117 147.707,148.750 147.709 C 148.383 147.711,148.253 147.745,148.460 147.785 M166.542 147.786 C 166.794 147.824,167.206 147.824,167.458 147.786 C 167.710 147.748,167.504 147.717,167.000 147.717 C 166.496 147.717,166.290 147.748,166.542 147.786 M180.208 147.782 C 180.369 147.823,180.631 147.823,180.792 147.782 C 180.952 147.740,180.821 147.705,180.500 147.705 C 180.179 147.705,180.048 147.740,180.208 147.782 " stroke="none" fill="#909bc9" fill-rule="evenodd"></path><path id="path3" d="M399.890 4.417 C 399.891 5.150,399.920 5.429,399.956 5.037 C 399.991 4.645,399.990 4.045,399.954 3.704 C 399.919 3.363,399.890 3.683,399.890 4.417 M399.879 12.000 C 399.879 12.412,399.911 12.581,399.951 12.375 C 399.991 12.169,399.991 11.831,399.951 11.625 C 399.911 11.419,399.879 11.588,399.879 12.000 M128.796 13.456 C 129.188 13.491,129.788 13.490,130.129 13.454 C 130.471 13.419,130.150 13.390,129.417 13.390 C 128.683 13.391,128.404 13.420,128.796 13.456 M132.375 13.455 C 132.719 13.491,133.281 13.491,133.625 13.455 C 133.969 13.419,133.688 13.389,133.000 13.389 C 132.313 13.389,132.031 13.419,132.375 13.455 M399.881 14.750 C 399.882 15.208,399.915 15.376,399.953 15.123 C 399.991 14.869,399.990 14.494,399.951 14.289 C 399.911 14.084,399.880 14.292,399.881 14.750 M17.572 14.288 C 18.979 14.339,19.153 14.380,19.220 14.675 C 19.279 14.939,19.290 14.930,19.272 14.628 C 19.251 14.263,19.193 14.250,17.625 14.240 L 15.999 14.231 17.572 14.288 M23.958 14.290 C 24.440 14.323,25.227 14.323,25.708 14.290 C 26.190 14.256,25.796 14.228,24.833 14.228 C 23.871 14.228,23.477 14.256,23.958 14.290 M30.576 14.375 C 30.532 14.490,30.517 17.846,30.542 21.833 L 30.587 29.083 30.627 21.714 L 30.667 14.345 32.292 14.291 L 33.917 14.236 32.286 14.202 C 31.109 14.176,30.634 14.225,30.576 14.375 M39.213 14.289 C 39.652 14.324,40.327 14.323,40.713 14.288 C 41.100 14.254,40.742 14.225,39.917 14.226 C 39.092 14.226,38.775 14.255,39.213 14.289 M46.458 14.290 C 46.940 14.323,47.727 14.323,48.208 14.290 C 48.690 14.256,48.296 14.228,47.333 14.228 C 46.371 14.228,45.977 14.256,46.458 14.290 M51.942 14.292 C 51.899 14.360,52.401 14.396,53.057 14.371 C 55.088 14.293,55.322 14.221,53.635 14.193 C 52.746 14.179,51.985 14.223,51.942 14.292 M61.109 14.292 C 61.066 14.360,61.568 14.396,62.224 14.371 C 64.368 14.289,64.615 14.223,62.885 14.195 C 61.951 14.179,61.151 14.223,61.109 14.292 M69.458 14.291 C 70.856 14.319,73.144 14.319,74.542 14.291 C 75.940 14.263,74.796 14.241,72.000 14.241 C 69.204 14.241,68.060 14.263,69.458 14.291 M81.966 14.291 C 82.727 14.322,83.927 14.322,84.633 14.290 C 85.339 14.259,84.717 14.234,83.250 14.234 C 81.783 14.234,81.206 14.260,81.966 14.291 M108.131 14.290 C 108.615 14.324,109.365 14.323,109.797 14.289 C 110.230 14.255,109.833 14.227,108.917 14.228 C 108.000 14.228,107.646 14.256,108.131 14.290 M113.237 14.390 C 113.190 14.512,113.177 15.206,113.209 15.931 L 113.266 17.250 113.300 15.794 L 113.333 14.338 118.708 14.292 L 124.083 14.245 118.703 14.206 C 114.336 14.174,113.307 14.209,113.237 14.390 M130.298 14.290 C 130.875 14.323,131.775 14.323,132.298 14.290 C 132.822 14.257,132.350 14.230,131.250 14.230 C 130.150 14.231,129.722 14.258,130.298 14.290 M141.052 14.291 C 142.593 14.319,145.068 14.319,146.552 14.291 C 148.036 14.264,146.775 14.241,143.750 14.241 C 140.725 14.241,139.511 14.264,141.052 14.291 M38.398 17.750 C 38.398 18.942,38.425 19.407,38.457 18.785 C 38.489 18.162,38.489 17.187,38.457 16.618 C 38.424 16.049,38.398 16.558,38.398 17.750 M399.899 19.000 C 399.899 20.237,399.925 20.744,399.957 20.125 C 399.989 19.506,399.989 18.494,399.957 17.875 C 399.925 17.256,399.899 17.762,399.899 19.000 M142.075 23.083 C 142.075 26.383,142.097 27.757,142.125 26.136 C 142.152 24.515,142.152 21.815,142.125 20.136 C 142.098 18.457,142.075 19.783,142.075 23.083 M71.368 19.790 C 71.982 19.822,73.032 19.822,73.701 19.791 C 74.370 19.759,73.867 19.733,72.583 19.732 C 71.300 19.732,70.753 19.758,71.368 19.790 M19.205 20.333 C 19.205 20.654,19.240 20.785,19.282 20.625 C 19.323 20.465,19.323 20.202,19.282 20.042 C 19.240 19.881,19.205 20.012,19.205 20.333 M84.208 23.115 C 84.369 23.157,84.631 23.157,84.792 23.115 C 84.952 23.073,84.821 23.039,84.500 23.039 C 84.179 23.039,84.048 23.073,84.208 23.115 M19.209 24.083 C 19.211 24.450,19.245 24.580,19.285 24.373 C 19.324 24.166,19.323 23.866,19.281 23.706 C 19.239 23.547,19.207 23.717,19.209 24.083 M399.885 26.917 C 399.886 27.467,399.917 27.672,399.954 27.372 C 399.991 27.072,399.990 26.622,399.952 26.372 C 399.914 26.122,399.884 26.367,399.885 26.917 M399.885 29.083 C 399.886 29.633,399.917 29.838,399.954 29.539 C 399.991 29.239,399.990 28.789,399.952 28.539 C 399.914 28.288,399.884 28.533,399.885 29.083 M110.500 28.806 C 110.500 28.914,110.225 29.012,109.875 29.027 L 109.250 29.053 109.813 29.122 C 110.363 29.189,110.841 28.952,110.614 28.725 C 110.551 28.662,110.500 28.699,110.500 28.806 M87.814 29.048 C 87.886 29.120,88.764 29.157,89.764 29.130 L 91.583 29.082 89.633 28.999 C 88.560 28.954,87.741 28.976,87.814 29.048 M31.542 29.121 C 31.885 29.157,32.448 29.157,32.792 29.121 C 33.135 29.085,32.854 29.056,32.167 29.056 C 31.479 29.056,31.198 29.085,31.542 29.121 M39.042 29.121 C 39.385 29.157,39.948 29.157,40.292 29.121 C 40.635 29.085,40.354 29.056,39.667 29.056 C 38.979 29.056,38.698 29.085,39.042 29.121 M47.208 29.121 C 47.552 29.157,48.115 29.157,48.458 29.121 C 48.802 29.085,48.521 29.056,47.833 29.056 C 47.146 29.056,46.865 29.085,47.208 29.121 M57.708 29.123 C 58.144 29.157,58.856 29.157,59.292 29.123 C 59.727 29.088,59.371 29.060,58.500 29.060 C 57.629 29.060,57.273 29.088,57.708 29.123 M69.542 29.125 C 70.985 29.152,73.348 29.152,74.792 29.125 C 76.235 29.097,75.054 29.074,72.167 29.074 C 69.279 29.074,68.098 29.097,69.542 29.125 M81.375 29.123 C 81.810 29.157,82.523 29.157,82.958 29.123 C 83.394 29.088,83.037 29.060,82.167 29.060 C 81.296 29.060,80.940 29.088,81.375 29.123 M107.460 29.118 C 107.668 29.158,107.968 29.156,108.127 29.115 C 108.286 29.073,108.117 29.040,107.750 29.042 C 107.383 29.044,107.253 29.078,107.460 29.118 M118.292 29.121 C 118.590 29.158,119.077 29.158,119.375 29.121 C 119.673 29.084,119.429 29.053,118.833 29.053 C 118.237 29.053,117.994 29.084,118.292 29.121 M125.961 29.121 C 126.261 29.158,126.711 29.157,126.961 29.119 C 127.212 29.081,126.967 29.051,126.417 29.052 C 125.867 29.053,125.662 29.084,125.961 29.121 M135.208 29.121 C 135.552 29.157,136.115 29.157,136.458 29.121 C 136.802 29.085,136.521 29.056,135.833 29.056 C 135.146 29.056,134.865 29.085,135.208 29.121 M143.131 29.123 C 143.615 29.157,144.365 29.156,144.797 29.122 C 145.230 29.088,144.833 29.060,143.917 29.061 C 143.000 29.061,142.646 29.089,143.131 29.123 M399.889 36.000 C 399.889 36.688,399.919 36.969,399.955 36.625 C 399.991 36.281,399.991 35.719,399.955 35.375 C 399.919 35.031,399.889 35.313,399.889 36.000 M99.877 40.953 C 100.131 40.991,100.506 40.990,100.711 40.951 C 100.916 40.911,100.708 40.880,100.250 40.881 C 99.792 40.882,99.624 40.915,99.877 40.953 M213.208 40.953 C 213.460 40.991,213.873 40.991,214.125 40.953 C 214.377 40.915,214.171 40.883,213.667 40.883 C 213.162 40.883,212.956 40.915,213.208 40.953 M17.708 41.458 C 18.694 41.487,20.306 41.487,21.292 41.458 C 22.277 41.428,21.471 41.404,19.500 41.404 C 17.529 41.404,16.723 41.428,17.708 41.458 M45.542 41.457 C 46.160 41.489,47.173 41.489,47.792 41.457 C 48.410 41.425,47.904 41.399,46.667 41.399 C 45.429 41.399,44.923 41.425,45.542 41.457 M55.542 41.457 C 56.160 41.489,57.173 41.489,57.792 41.457 C 58.410 41.425,57.904 41.399,56.667 41.399 C 55.429 41.399,54.923 41.425,55.542 41.457 M75.708 41.457 C 76.327 41.489,77.340 41.489,77.958 41.457 C 78.577 41.425,78.071 41.399,76.833 41.399 C 75.596 41.399,75.090 41.425,75.708 41.457 M123.125 41.458 C 124.156 41.487,125.844 41.487,126.875 41.458 C 127.906 41.429,127.063 41.405,125.000 41.405 C 122.938 41.405,122.094 41.429,123.125 41.458 M150.542 41.457 C 151.160 41.489,152.173 41.489,152.792 41.457 C 153.410 41.425,152.904 41.399,151.667 41.399 C 150.429 41.399,149.923 41.425,150.542 41.457 M160.368 41.457 C 160.982 41.489,162.032 41.489,162.701 41.457 C 163.370 41.426,162.867 41.399,161.583 41.399 C 160.300 41.399,159.753 41.425,160.368 41.457 M180.625 41.458 C 181.565 41.487,183.102 41.487,184.042 41.458 C 184.981 41.428,184.213 41.404,182.333 41.404 C 180.454 41.404,179.685 41.428,180.625 41.458 M58.909 48.417 C 58.909 52.175,58.931 53.736,58.958 51.886 C 58.985 50.036,58.985 46.961,58.958 45.053 C 58.931 43.145,58.909 44.658,58.909 48.417 M121.240 46.167 C 121.240 48.688,121.263 49.719,121.291 48.458 C 121.320 47.198,121.320 45.135,121.291 43.875 C 121.263 42.615,121.240 43.646,121.240 46.167 M399.885 42.917 C 399.886 43.467,399.917 43.672,399.954 43.372 C 399.991 43.072,399.990 42.622,399.952 42.372 C 399.914 42.122,399.884 42.367,399.885 42.917 M399.881 44.917 C 399.882 45.375,399.915 45.543,399.953 45.289 C 399.991 45.036,399.990 44.661,399.951 44.456 C 399.911 44.251,399.880 44.458,399.881 44.917 M183.958 44.954 C 184.256 44.991,184.744 44.991,185.042 44.954 C 185.340 44.917,185.096 44.887,184.500 44.887 C 183.904 44.887,183.660 44.917,183.958 44.954 M130.039 47.000 C 130.039 47.321,130.073 47.452,130.115 47.292 C 130.157 47.131,130.157 46.869,130.115 46.708 C 130.073 46.548,130.039 46.679,130.039 47.000 M211.405 51.417 C 211.405 53.617,211.429 54.494,211.458 53.365 C 211.487 52.237,211.487 50.437,211.458 49.365 C 211.429 48.294,211.405 49.217,211.405 51.417 M399.892 50.583 C 399.892 51.408,399.920 51.767,399.955 51.380 C 399.990 50.993,399.990 50.318,399.956 49.880 C 399.922 49.442,399.893 49.758,399.892 50.583 M121.223 52.000 C 121.223 52.688,121.252 52.969,121.288 52.625 C 121.324 52.281,121.324 51.719,121.288 51.375 C 121.252 51.031,121.223 51.313,121.223 52.000 M213.561 52.583 C 213.561 53.500,213.589 53.854,213.623 53.369 C 213.657 52.885,213.656 52.135,213.622 51.703 C 213.588 51.270,213.560 51.667,213.561 52.583 M399.881 53.583 C 399.882 54.042,399.915 54.209,399.953 53.956 C 399.991 53.703,399.990 53.328,399.951 53.123 C 399.911 52.918,399.880 53.125,399.881 53.583 M121.205 54.167 C 121.205 54.487,121.240 54.619,121.282 54.458 C 121.323 54.298,121.323 54.035,121.282 53.875 C 121.240 53.715,121.205 53.846,121.205 54.167 M215.872 54.833 C 215.872 55.154,215.906 55.285,215.948 55.125 C 215.990 54.965,215.990 54.702,215.948 54.542 C 215.906 54.381,215.872 54.512,215.872 54.833 M399.883 55.333 C 399.883 55.837,399.915 56.044,399.953 55.792 C 399.991 55.540,399.991 55.127,399.953 54.875 C 399.915 54.623,399.883 54.829,399.883 55.333 M121.234 57.583 C 121.234 59.050,121.260 59.628,121.291 58.867 C 121.322 58.106,121.322 56.906,121.290 56.200 C 121.259 55.494,121.234 56.117,121.234 57.583 M399.885 59.750 C 399.886 60.300,399.917 60.505,399.954 60.205 C 399.991 59.906,399.990 59.456,399.952 59.205 C 399.914 58.955,399.884 59.200,399.885 59.750 M399.879 62.000 C 399.879 62.413,399.911 62.581,399.951 62.375 C 399.991 62.169,399.991 61.831,399.951 61.625 C 399.911 61.419,399.879 61.587,399.879 62.000 M145.556 62.667 C 145.556 63.354,145.585 63.635,145.621 63.292 C 145.657 62.948,145.657 62.385,145.621 62.042 C 145.585 61.698,145.556 61.979,145.556 62.667 M29.205 63.167 C 29.205 63.487,29.240 63.619,29.282 63.458 C 29.323 63.298,29.323 63.035,29.282 62.875 C 29.240 62.715,29.205 62.846,29.205 63.167 M33.740 67.000 L 33.750 68.750 36.786 68.795 L 39.823 68.841 39.878 70.712 L 39.933 72.583 39.925 70.667 L 39.917 68.750 36.881 68.705 L 33.845 68.659 33.788 66.955 L 33.731 65.250 33.740 67.000 M112.240 67.000 L 112.250 68.750 115.333 68.756 L 118.417 68.762 115.381 68.711 L 112.345 68.659 112.288 66.955 L 112.231 65.250 112.240 67.000 M399.875 66.583 C 399.877 66.950,399.911 67.080,399.951 66.873 C 399.991 66.666,399.990 66.366,399.948 66.206 C 399.906 66.047,399.874 66.217,399.875 66.583 M55.539 66.667 C 55.539 66.987,55.573 67.119,55.615 66.958 C 55.657 66.798,55.657 66.535,55.615 66.375 C 55.573 66.215,55.539 66.346,55.539 66.667 M399.887 68.333 C 399.887 68.929,399.917 69.173,399.954 68.875 C 399.991 68.577,399.991 68.090,399.954 67.792 C 399.917 67.494,399.887 67.737,399.887 68.333 M138.833 68.917 C 138.833 69.360,138.864 69.691,138.901 69.653 C 139.030 69.521,139.073 68.351,138.953 68.231 C 138.887 68.165,138.833 68.474,138.833 68.917 M29.212 70.500 C 29.212 70.912,29.245 71.081,29.284 70.875 C 29.324 70.669,29.324 70.331,29.284 70.125 C 29.245 69.919,29.212 70.087,29.212 70.500 M399.897 72.083 C 399.897 73.183,399.924 73.612,399.957 73.035 C 399.990 72.459,399.989 71.559,399.956 71.035 C 399.923 70.512,399.897 70.983,399.897 72.083 M33.743 75.000 L 33.750 77.417 38.500 77.421 L 43.250 77.424 38.546 77.376 L 33.842 77.328 33.789 74.956 L 33.735 72.583 33.743 75.000 M112.243 75.125 L 112.250 77.417 117.083 77.421 L 121.917 77.425 117.130 77.376 L 112.343 77.328 112.289 75.081 L 112.235 72.833 112.243 75.125 M29.232 75.833 C 29.232 77.071,29.258 77.577,29.290 76.958 C 29.322 76.340,29.322 75.327,29.290 74.708 C 29.258 74.090,29.232 74.596,29.232 75.833 M399.892 76.417 C 399.892 77.242,399.920 77.600,399.955 77.213 C 399.990 76.827,399.990 76.152,399.956 75.713 C 399.922 75.275,399.893 75.592,399.892 76.417 M29.220 79.833 C 29.220 80.429,29.250 80.673,29.287 80.375 C 29.324 80.077,29.324 79.590,29.287 79.292 C 29.250 78.994,29.220 79.237,29.220 79.833 M399.890 81.917 C 399.891 82.650,399.920 82.929,399.956 82.537 C 399.991 82.145,399.990 81.545,399.954 81.204 C 399.919 80.863,399.890 81.183,399.890 81.917 M399.883 85.333 C 399.883 85.837,399.915 86.044,399.953 85.792 C 399.991 85.540,399.991 85.127,399.953 84.875 C 399.915 84.623,399.883 84.829,399.883 85.333 M399.875 87.583 C 399.877 87.950,399.911 88.080,399.951 87.873 C 399.991 87.666,399.990 87.366,399.948 87.206 C 399.906 87.047,399.874 87.217,399.875 87.583 M399.879 89.667 C 399.879 90.079,399.911 90.248,399.951 90.042 C 399.991 89.835,399.991 89.498,399.951 89.292 C 399.911 89.085,399.879 89.254,399.879 89.667 M399.896 93.917 C 399.896 94.925,399.924 95.316,399.957 94.786 C 399.990 94.255,399.990 93.430,399.956 92.952 C 399.922 92.474,399.895 92.908,399.896 93.917 M399.889 97.833 C 399.889 98.521,399.919 98.802,399.955 98.458 C 399.991 98.115,399.991 97.552,399.955 97.208 C 399.919 96.865,399.889 97.146,399.889 97.833 M199.917 99.333 L -0.083 99.417 199.865 99.458 C 333.029 99.486,399.848 99.444,399.917 99.333 C 399.973 99.242,399.996 99.185,399.968 99.208 C 399.940 99.231,309.917 99.287,199.917 99.333 M26.127 123.118 C 26.334 123.158,26.634 123.156,26.794 123.115 C 26.953 123.073,26.783 123.040,26.417 123.042 C 26.050 123.044,25.920 123.078,26.127 123.118 M121.466 130.957 C 122.227 130.988,123.427 130.988,124.133 130.957 C 124.839 130.926,124.217 130.901,122.750 130.901 C 121.283 130.901,120.706 130.927,121.466 130.957 M133.824 132.792 L 133.250 133.417 133.875 132.842 C 134.219 132.526,134.500 132.245,134.500 132.217 C 134.500 132.090,134.359 132.210,133.824 132.792 M174.539 134.833 C 174.539 135.154,174.573 135.285,174.615 135.125 C 174.657 134.965,174.657 134.702,174.615 134.542 C 174.573 134.381,174.539 134.512,174.539 134.833 M106.712 137.000 C 106.712 137.412,106.745 137.581,106.784 137.375 C 106.824 137.169,106.824 136.831,106.784 136.625 C 106.745 136.419,106.712 136.587,106.712 137.000 M19.542 139.250 C 19.544 139.617,19.578 139.747,19.618 139.540 C 19.658 139.332,19.656 139.032,19.615 138.873 C 19.573 138.714,19.540 138.883,19.542 139.250 M164.460 140.785 C 164.668 140.824,164.968 140.823,165.127 140.781 C 165.286 140.739,165.117 140.707,164.750 140.709 C 164.383 140.711,164.253 140.745,164.460 140.785 M156.539 143.833 C 156.539 144.154,156.573 144.285,156.615 144.125 C 156.657 143.965,156.657 143.702,156.615 143.542 C 156.573 143.381,156.539 143.512,156.539 143.833 M154.209 144.917 C 154.211 145.283,154.245 145.414,154.285 145.206 C 154.324 144.999,154.323 144.699,154.281 144.540 C 154.239 144.380,154.207 144.550,154.209 144.917 M68.464 147.290 C 68.948 147.324,69.698 147.323,70.131 147.289 C 70.563 147.255,70.167 147.227,69.250 147.228 C 68.333 147.228,67.980 147.256,68.464 147.290 M77.292 147.290 C 77.773 147.323,78.560 147.323,79.042 147.290 C 79.523 147.256,79.129 147.228,78.167 147.228 C 77.204 147.228,76.810 147.256,77.292 147.290 M97.125 147.287 C 97.423 147.324,97.910 147.324,98.208 147.287 C 98.506 147.250,98.263 147.220,97.667 147.220 C 97.071 147.220,96.827 147.250,97.125 147.287 M111.795 147.287 C 112.094 147.325,112.544 147.324,112.795 147.286 C 113.045 147.248,112.800 147.217,112.250 147.218 C 111.700 147.219,111.495 147.250,111.795 147.287 M120.461 147.287 C 120.761 147.325,121.211 147.324,121.461 147.286 C 121.712 147.248,121.467 147.217,120.917 147.218 C 120.367 147.219,120.162 147.250,120.461 147.287 M128.461 147.287 C 128.761 147.325,129.211 147.324,129.461 147.286 C 129.712 147.248,129.467 147.217,128.917 147.218 C 128.367 147.219,128.162 147.250,128.461 147.287 M137.628 147.287 C 137.928 147.325,138.378 147.324,138.628 147.286 C 138.878 147.248,138.633 147.217,138.083 147.218 C 137.533 147.219,137.328 147.250,137.628 147.287 " stroke="none" fill="#5a77af" fill-rule="evenodd"></path><path id="path4" d="M399.888 9.583 C 399.889 10.225,399.919 10.467,399.955 10.121 C 399.991 9.775,399.990 9.250,399.954 8.955 C 399.917 8.659,399.887 8.942,399.888 9.583 M130.725 12.000 C 130.725 12.779,130.754 13.098,130.789 12.708 C 130.824 12.319,130.824 11.681,130.789 11.292 C 130.754 10.902,130.725 11.221,130.725 12.000 M124.034 15.620 L 124.000 17.156 122.125 17.209 L 120.250 17.262 122.130 17.298 C 124.323 17.339,124.204 17.447,124.124 15.486 L 124.068 14.083 124.034 15.620 M49.077 21.750 C 49.077 25.875,49.098 27.539,49.125 25.447 C 49.151 23.355,49.151 19.980,49.125 17.947 C 49.098 15.914,49.077 17.625,49.077 21.750 M110.576 21.500 C 110.576 25.488,110.598 27.119,110.625 25.125 C 110.651 23.131,110.651 19.869,110.625 17.875 C 110.598 15.881,110.576 17.512,110.576 21.500 M19.212 15.667 C 19.212 16.079,19.245 16.248,19.284 16.042 C 19.324 15.835,19.324 15.498,19.284 15.292 C 19.245 15.085,19.212 15.254,19.212 15.667 M71.958 17.291 C 72.898 17.321,74.435 17.321,75.375 17.291 C 76.315 17.261,75.546 17.237,73.667 17.237 C 71.787 17.237,71.019 17.261,71.958 17.291 M114.208 17.290 C 114.735 17.323,115.598 17.323,116.125 17.290 C 116.652 17.257,116.221 17.230,115.167 17.230 C 114.112 17.230,113.681 17.257,114.208 17.290 M139.208 17.290 C 139.735 17.323,140.598 17.323,141.125 17.290 C 141.652 17.257,141.221 17.230,140.167 17.230 C 139.112 17.230,138.681 17.257,139.208 17.290 M146.375 17.290 C 146.902 17.323,147.765 17.323,148.292 17.290 C 148.819 17.257,148.387 17.230,147.333 17.230 C 146.279 17.230,145.848 17.257,146.375 17.290 M93.539 18.167 C 93.539 18.487,93.573 18.619,93.615 18.458 C 93.657 18.298,93.657 18.035,93.615 17.875 C 93.573 17.715,93.539 17.846,93.539 18.167 M74.893 21.167 C 74.893 22.037,74.922 22.394,74.956 21.958 C 74.990 21.523,74.990 20.810,74.956 20.375 C 74.922 19.940,74.893 20.296,74.893 21.167 M19.225 22.167 C 19.225 22.946,19.254 23.265,19.289 22.875 C 19.324 22.485,19.324 21.848,19.289 21.458 C 19.254 21.069,19.225 21.387,19.225 22.167 M399.872 22.333 C 399.872 22.654,399.906 22.785,399.948 22.625 C 399.990 22.465,399.990 22.202,399.948 22.042 C 399.906 21.881,399.872 22.012,399.872 22.333 M72.042 26.124 C 73.027 26.154,74.640 26.154,75.625 26.124 C 76.610 26.095,75.804 26.071,73.833 26.071 C 71.862 26.071,71.056 26.095,72.042 26.124 M399.872 30.500 C 399.872 30.821,399.906 30.952,399.948 30.792 C 399.990 30.631,399.990 30.369,399.948 30.208 C 399.906 30.048,399.872 30.179,399.872 30.500 M399.875 31.750 C 399.877 32.117,399.911 32.247,399.951 32.040 C 399.991 31.832,399.990 31.532,399.948 31.373 C 399.906 31.214,399.874 31.383,399.875 31.750 M399.875 33.583 C 399.877 33.950,399.911 34.080,399.951 33.873 C 399.991 33.666,399.990 33.366,399.948 33.206 C 399.906 33.047,399.874 33.217,399.875 33.583 M399.875 40.250 C 399.877 40.617,399.911 40.747,399.951 40.540 C 399.991 40.332,399.990 40.032,399.948 39.873 C 399.906 39.714,399.874 39.883,399.875 40.250 M44.410 48.500 C 44.410 52.396,44.431 53.990,44.458 52.042 C 44.485 50.094,44.485 46.906,44.458 44.958 C 44.431 43.010,44.410 44.604,44.410 48.500 M79.078 51.500 C 79.078 57.046,79.099 59.315,79.125 56.542 C 79.151 53.769,79.151 49.231,79.125 46.458 C 79.099 43.685,79.078 45.954,79.078 51.500 M149.410 48.667 C 149.410 52.654,149.432 54.285,149.458 52.292 C 149.485 50.298,149.485 47.035,149.458 45.042 C 149.432 43.048,149.410 44.679,149.410 48.667 M159.243 48.417 C 159.243 52.267,159.265 53.818,159.292 51.864 C 159.318 49.910,159.318 46.760,159.291 44.864 C 159.265 42.968,159.243 44.567,159.243 48.417 M163.910 48.583 C 163.910 52.525,163.932 54.114,163.958 52.114 C 163.985 50.114,163.985 46.889,163.958 44.947 C 163.931 43.005,163.910 44.642,163.910 48.583 M25.235 51.417 C 25.235 52.975,25.260 53.635,25.291 52.883 C 25.321 52.131,25.321 50.856,25.291 50.050 C 25.260 49.243,25.235 49.858,25.235 51.417 M213.609 50.792 C 213.566 50.860,214.555 50.897,215.807 50.873 C 220.008 50.794,220.442 50.733,217.052 50.700 C 215.201 50.682,213.651 50.723,213.609 50.792 M183.583 53.418 C 183.964 53.551,184.970 53.587,184.895 53.465 C 184.850 53.393,184.499 53.339,184.115 53.346 C 183.731 53.354,183.492 53.386,183.583 53.418 M49.042 55.083 C 49.044 55.450,49.078 55.580,49.118 55.373 C 49.158 55.166,49.156 54.866,49.115 54.706 C 49.073 54.547,49.040 54.717,49.042 55.083 M399.872 58.333 C 399.872 58.654,399.906 58.785,399.948 58.625 C 399.990 58.465,399.990 58.202,399.948 58.042 C 399.906 57.881,399.872 58.012,399.872 58.333 M107.748 71.417 L 107.750 81.417 114.833 81.419 L 121.917 81.422 114.876 81.376 L 107.836 81.330 107.791 71.373 L 107.746 61.417 107.748 71.417 M218.961 61.787 C 219.261 61.825,219.711 61.824,219.961 61.786 C 220.212 61.748,219.967 61.717,219.417 61.718 C 218.867 61.719,218.662 61.750,218.961 61.787 M399.872 63.167 C 399.872 63.487,399.906 63.619,399.948 63.458 C 399.990 63.298,399.990 63.035,399.948 62.875 C 399.906 62.715,399.872 62.846,399.872 63.167 M145.500 68.284 C 145.454 70.777,145.474 72.759,145.544 72.689 C 145.615 72.619,145.652 70.579,145.628 68.156 L 145.583 63.750 145.500 68.284 M35.292 72.791 C 36.140 72.821,37.527 72.821,38.375 72.791 C 39.223 72.761,38.529 72.736,36.833 72.736 C 35.137 72.736,34.444 72.761,35.292 72.791 M113.792 72.791 C 114.640 72.821,116.027 72.821,116.875 72.791 C 117.723 72.761,117.029 72.736,115.333 72.736 C 113.638 72.736,112.944 72.761,113.792 72.791 M94.883 75.667 C 94.883 76.171,94.915 76.377,94.953 76.125 C 94.991 75.873,94.991 75.460,94.953 75.208 C 94.915 74.956,94.883 75.162,94.883 75.667 M69.212 75.667 C 69.212 76.079,69.245 76.248,69.284 76.042 C 69.324 75.835,69.324 75.498,69.284 75.292 C 69.245 75.085,69.212 75.254,69.212 75.667 M67.406 80.042 L 66.917 80.583 67.458 80.094 C 67.963 79.638,68.077 79.500,67.948 79.500 C 67.919 79.500,67.675 79.744,67.406 80.042 M32.792 81.458 C 34.740 81.485,37.927 81.485,39.875 81.458 C 41.823 81.431,40.229 81.410,36.333 81.410 C 32.438 81.410,30.844 81.431,32.792 81.458 M135.958 81.457 C 136.531 81.489,137.469 81.489,138.042 81.457 C 138.615 81.424,138.146 81.398,137.000 81.398 C 135.854 81.398,135.385 81.424,135.958 81.457 M146.708 81.456 C 147.235 81.490,148.098 81.490,148.625 81.456 C 149.152 81.423,148.721 81.396,147.667 81.396 C 146.612 81.396,146.181 81.423,146.708 81.456 M61.795 81.954 C 62.094 81.991,62.544 81.990,62.795 81.952 C 63.045 81.914,62.800 81.884,62.250 81.885 C 61.700 81.886,61.495 81.917,61.795 81.954 M87.542 81.953 C 87.794 81.991,88.206 81.991,88.458 81.953 C 88.710 81.915,88.504 81.883,88.000 81.883 C 87.496 81.883,87.290 81.915,87.542 81.953 M132.718 132.583 C 132.719 133.133,132.750 133.338,132.787 133.039 C 132.825 132.739,132.824 132.289,132.786 132.039 C 132.748 131.788,132.717 132.033,132.718 132.583 M82.872 133.500 C 82.872 133.821,82.906 133.952,82.948 133.792 C 82.990 133.631,82.990 133.369,82.948 133.208 C 82.906 133.048,82.872 133.179,82.872 133.500 M139.548 134.250 C 139.549 134.708,139.581 134.876,139.620 134.623 C 139.658 134.369,139.657 133.994,139.617 133.789 C 139.578 133.584,139.546 133.792,139.548 134.250 M172.212 134.833 C 172.212 135.246,172.245 135.415,172.284 135.208 C 172.324 135.002,172.324 134.665,172.284 134.458 C 172.245 134.252,172.212 134.421,172.212 134.833 M164.627 138.785 C 164.834 138.824,165.134 138.823,165.294 138.781 C 165.453 138.739,165.283 138.707,164.917 138.709 C 164.550 138.711,164.420 138.745,164.627 138.785 M166.708 140.615 C 166.869 140.657,167.131 140.657,167.292 140.615 C 167.452 140.573,167.321 140.539,167.000 140.539 C 166.679 140.539,166.548 140.573,166.708 140.615 M147.555 142.583 C 147.555 143.225,147.586 143.467,147.622 143.121 C 147.658 142.775,147.657 142.250,147.620 141.955 C 147.583 141.659,147.554 141.942,147.555 142.583 M105.708 141.782 C 105.869 141.823,106.131 141.823,106.292 141.782 C 106.452 141.740,106.321 141.705,106.000 141.705 C 105.679 141.705,105.548 141.740,105.708 141.782 M188.212 143.833 C 188.212 144.246,188.245 144.415,188.284 144.208 C 188.324 144.002,188.324 143.665,188.284 143.458 C 188.245 143.252,188.212 143.421,188.212 143.833 M184.491 145.792 L 183.917 146.417 184.542 145.842 C 185.123 145.308,185.243 145.167,185.116 145.167 C 185.088 145.167,184.807 145.448,184.491 145.792 " stroke="none" fill="#2b5a9d" fill-rule="evenodd"></path></g></svg>