<svg xmlns="http://www.w3.org/2000/svg" xmlns:xlink="http://www.w3.org/1999/xlink" viewBox="0 0 59 51" fill="#fff" fill-rule="evenodd" stroke="#000" stroke-linecap="round" stroke-linejoin="round"><use xlink:href="#A" x=".5" y=".5"/><symbol id="A" overflow="visible"><g fill-rule="nonzero"><g stroke-width=".142"><path d="M3.956 5.68H6.32v-4.11H3.959V.189h49.42v1.428h-2.551V5.68h2.551v37.907H50.77l.023 4.109h2.586v1.374H3.956v-1.303h2.338l-.011-4.381-2.324-.012zm10.298-4.11h-4.015v3.968h4.015V1.571zm7.959 0h-4.017v3.968h4.015zm8.243 0H26.44v3.968h4.015V1.571zm8.148 0h-4.015v3.968h4.015zm7.983 0h-4.017v3.968h4.015zM14.508 43.799h-4.015v3.968h4.015zm7.959 0h-4.015v3.968h4.015zm8.243 0h-4.014v3.968h4.015zm8.148 0h-4.015v3.968h4.015v-3.968zm7.983 0h-4.015v3.968h4.015v-3.968z" fill="#70767c"/><path d="M3.72 5.491h2.362v-4.11H3.72V0h49.42v1.428H50.59v4.063h2.551v37.907h-2.609l.024 4.109h2.586v1.374H3.72v-1.303h2.338l-.011-4.381-2.324-.012zm10.298-4.11h-4.015v3.968h4.015zm7.959 0h-4.015v3.968h4.015V1.382zm8.243 0h-4.015v3.968h4.015zm8.148 0H34.35v3.968h4.015zm7.983 0h-4.015v3.968h4.015V1.382zM14.272 43.61h-4.015v3.968h4.015zm7.959 0h-4.015v3.968h4.015zm8.243 0h-4.015v3.968h4.015zm8.148 0h-4.015v3.968h4.015V43.61zm7.983 0h-4.015v3.968h4.015z" fill="#bcc6d2"/><path d="M6.058 7.121h44.921v34.647H6.058z" fill="#000"/></g><g stroke="none"><path d="M1.285 12.549s1.304-4.365 3.923-3.939c8.006 0 1.691 29.9 9.697 29.9s1.575-29.758 9.13-29.758 2.925 29.404 9.656 29.404 1.723-29.404 9.636-29.404 2.858 29.806 9.494 29.806c1.724-.094 2.687-3.159 2.687-3.159s.183-.478.585-.265c.106.038.192.117.239.219s.05.219.009.324-1.464 3.873-3.59 3.779c-7.557 0-3.165-29.806-9.423-29.806s-1.698 29.805-9.694 29.805S30.5 9.601 24.03 9.601s.096 29.853-9.21 29.853-2.548-29.9-9.612-29.9c-2.291 0-3.035 3.236-3.035 3.236s-.098.277-.522.097-.367-.34-.367-.34z" fill="#00ffa3"/><path d="M1.285 12.549s1.304-4.365 3.923-3.939c8.006 0 1.691 29.9 9.697 29.9s1.575-29.758 9.13-29.758 2.925 29.404 9.656 29.404 1.723-29.404 9.636-29.404 2.858 29.806 9.494 29.806c1.724-.094 2.687-3.159 2.687-3.159s.183-.478.585-.265c.106.038.192.117.239.219s.05.219.008.324c0 0-1.464 3.873-3.59 3.779-7.558 0-3.165-29.806-9.424-29.806s-1.698 29.806-9.694 29.806S30.5 9.601 24.03 9.601s.096 29.853-9.21 29.853-2.551-29.9-9.612-29.9c-2.291 0-3.035 3.235-3.035 3.235s-.098.277-.522.097-.367-.337-.367-.337z" fill="#000" opacity=".37"/><use xlink:href="#C" fill="#e50027"/><use xlink:href="#C" fill="#000" opacity=".5"/><use xlink:href="#D" fill="#405ea6"/><use xlink:href="#D" fill="#000" opacity=".5"/><path d="M49.42 24.621H15.977V7.758z" fill="#c4c4c4"/><path d="M49.42 24.622H15.977v16.58z" fill="#898989"/><path d="M48.358 24.551L15.269 7.9v33.23z" fill="#000"/><path d="M45.311 24.55L17.82 38.438V10.663z" fill="#f5e702"/><use xlink:href="#E" fill="#f4eded"/></g></g><g stroke-linejoin="miter" stroke-width=".283"><use xlink:href="#E" stroke="#fff" fill="none"/><path d="M30.857 23.323l-.024 2.622-2.858.023v2.929h-2.74V26.11H22v-2.787h3.141l.023-3.165h2.905l-.024 3.141z" fill="#f4eded" fill-rule="nonzero"/></g><path d="M27.031 24.102h3.118v1.866h-3.118v2.881h-1.984l-.023-2.74h-2.952v-2.007h2.952v-3.094h2.007z" stroke="none" fill="#000" fill-rule="nonzero"/></symbol><defs ><path id="C" d="M1.381 15.977h21.681l24.161 7.298h9.14s.992-.071.992 1.346-.945 1.346-.945 1.346h-9.258l-23.807-7.333-21.965.035a1.47 1.47 0 0 1-1.027-1.382c-.001-.622.423-1.163 1.027-1.311z"/><path id="D" d="M1.027 29.723h21.681s4.322 4.535 4.322 1.559-4.039 1.098-4.039 1.098l-21.965.035A1.47 1.47 0 0 1 0 31.034c-.001-.622.423-1.163 1.027-1.311z"/><path id="E" d="M31.631 22.766l-.028 2.884-3.144.028v3.221h-3.009v-3.065h-3.562v-3.065h3.455l.01-3.316 3.212-.023-.026 3.316z"/></defs></svg>