<svg id="svg" version="1.1" xmlns="http://www.w3.org/2000/svg" xmlns:xlink="http://www.w3.org/1999/xlink" width="400" height="166.5" viewBox="0, 0, 400,166.5"><g id="svgg"><path id="path0" d="M88.333 13.083 C 88.333 13.250,88.167 13.333,87.833 13.333 C 87.500 13.333,87.333 13.417,87.333 13.583 C 87.333 13.721,87.221 13.833,87.083 13.833 C 86.917 13.833,86.833 14.000,86.833 14.333 C 86.833 14.667,86.750 14.833,86.583 14.833 C 86.398 14.833,86.333 15.028,86.333 15.583 C 86.333 16.139,86.269 16.333,86.083 16.333 C 85.917 16.333,85.833 16.500,85.833 16.833 C 85.833 17.167,85.750 17.333,85.583 17.333 C 85.398 17.333,85.333 17.528,85.333 18.083 C 85.333 18.639,85.269 18.833,85.083 18.833 C 84.919 18.833,84.833 18.998,84.833 19.316 C 84.833 19.590,84.726 19.839,84.583 19.894 C 84.418 19.957,84.333 20.218,84.333 20.661 C 84.333 21.148,84.264 21.333,84.083 21.333 C 83.919 21.333,83.833 21.498,83.833 21.813 C 83.833 22.077,83.721 22.386,83.583 22.500 C 83.446 22.614,83.333 22.961,83.333 23.270 C 83.333 23.660,83.256 23.833,83.083 23.833 C 82.910 23.833,82.833 24.007,82.833 24.396 C 82.833 24.706,82.721 25.053,82.583 25.167 C 82.446 25.281,82.333 25.590,82.333 25.854 C 82.333 26.169,82.248 26.333,82.083 26.333 C 81.898 26.333,81.833 26.528,81.833 27.083 C 81.833 27.639,81.769 27.833,81.583 27.833 C 81.417 27.833,81.333 28.000,81.333 28.333 C 81.333 28.667,81.250 28.833,81.083 28.833 C 80.898 28.833,80.833 29.028,80.833 29.583 C 80.833 30.139,80.769 30.333,80.583 30.333 C 80.417 30.333,80.333 30.500,80.333 30.833 C 80.333 31.167,80.250 31.333,80.083 31.333 C 79.898 31.333,79.833 31.528,79.833 32.083 C 79.833 32.639,79.769 32.833,79.583 32.833 C 79.417 32.833,79.333 33.000,79.333 33.333 C 79.333 33.667,79.250 33.833,79.083 33.833 C 78.898 33.833,78.833 34.028,78.833 34.583 C 78.833 35.139,78.769 35.333,78.583 35.333 C 78.417 35.333,78.333 35.500,78.333 35.833 C 78.333 36.167,78.250 36.333,78.083 36.333 C 77.898 36.333,77.833 36.528,77.833 37.083 C 77.833 37.639,77.769 37.833,77.583 37.833 C 77.419 37.833,77.333 37.998,77.333 38.316 C 77.333 38.590,77.226 38.839,77.083 38.894 C 76.918 38.957,76.833 39.218,76.833 39.661 C 76.833 40.148,76.764 40.333,76.583 40.333 C 76.419 40.333,76.333 40.498,76.333 40.813 C 76.333 41.077,76.221 41.386,76.083 41.500 C 75.946 41.614,75.833 41.961,75.833 42.270 C 75.833 42.660,75.756 42.833,75.583 42.833 C 75.410 42.833,75.333 43.007,75.333 43.396 C 75.333 43.706,75.221 44.053,75.083 44.167 C 74.946 44.281,74.833 44.590,74.833 44.854 C 74.833 45.169,74.748 45.333,74.583 45.333 C 74.398 45.333,74.333 45.528,74.333 46.083 C 74.333 46.639,74.269 46.833,74.083 46.833 C 73.917 46.833,73.833 47.000,73.833 47.333 C 73.833 47.667,73.750 47.833,73.583 47.833 C 73.398 47.833,73.333 48.028,73.333 48.583 C 73.333 49.139,73.269 49.333,73.083 49.333 C 72.917 49.333,72.833 49.500,72.833 49.833 C 72.833 50.167,72.750 50.333,72.583 50.333 C 72.398 50.333,72.333 50.528,72.333 51.083 C 72.333 51.639,72.269 51.833,72.083 51.833 C 71.917 51.833,71.833 52.000,71.833 52.333 C 71.833 52.667,71.750 52.833,71.583 52.833 C 71.398 52.833,71.333 53.028,71.333 53.583 C 71.333 54.139,71.269 54.333,71.083 54.333 C 70.917 54.333,70.833 54.500,70.833 54.833 C 70.833 55.167,70.750 55.333,70.583 55.333 C 70.398 55.333,70.333 55.528,70.333 56.083 C 70.333 56.639,70.269 56.833,70.083 56.833 C 69.917 56.833,69.833 57.000,69.833 57.333 C 69.833 57.667,69.750 57.833,69.583 57.833 C 69.398 57.833,69.333 58.028,69.333 58.583 C 69.333 59.139,69.269 59.333,69.083 59.333 C 68.919 59.333,68.833 59.498,68.833 59.816 C 68.833 60.090,68.726 60.339,68.583 60.394 C 68.418 60.457,68.333 60.718,68.333 61.161 C 68.333 61.648,68.264 61.833,68.083 61.833 C 67.919 61.833,67.833 61.998,67.833 62.313 C 67.833 62.577,67.721 62.886,67.583 63.000 C 67.446 63.114,67.333 63.461,67.333 63.770 C 67.333 64.160,67.256 64.333,67.083 64.333 C 66.910 64.333,66.833 64.507,66.833 64.896 C 66.833 65.206,66.721 65.553,66.583 65.667 C 66.446 65.781,66.333 66.090,66.333 66.354 C 66.333 66.669,66.248 66.833,66.083 66.833 C 65.898 66.833,65.833 67.028,65.833 67.583 C 65.833 68.139,65.769 68.333,65.583 68.333 C 65.417 68.333,65.333 68.500,65.333 68.833 C 65.333 69.167,65.250 69.333,65.083 69.333 C 64.898 69.333,64.833 69.528,64.833 70.083 C 64.833 70.639,64.769 70.833,64.583 70.833 C 64.417 70.833,64.333 71.000,64.333 71.333 C 64.333 71.667,64.250 71.833,64.083 71.833 C 63.898 71.833,63.833 72.028,63.833 72.583 C 63.833 73.139,63.769 73.333,63.583 73.333 C 63.417 73.333,63.333 73.500,63.333 73.833 C 63.333 74.167,63.250 74.333,63.083 74.333 C 62.898 74.333,62.833 74.528,62.833 75.083 C 62.833 75.639,62.769 75.833,62.583 75.833 C 62.417 75.833,62.333 76.000,62.333 76.333 C 62.333 76.667,62.250 76.833,62.083 76.833 C 61.917 76.833,61.833 77.000,61.833 77.333 C 61.833 77.667,61.750 77.833,61.583 77.833 C 61.417 77.833,61.333 78.000,61.333 78.333 C 61.333 78.667,61.250 78.833,61.083 78.833 C 60.917 78.833,60.833 79.000,60.833 79.333 C 60.833 79.667,60.750 79.833,60.583 79.833 C 60.446 79.833,60.333 79.946,60.333 80.083 C 60.333 80.221,60.221 80.333,60.083 80.333 C 59.946 80.333,59.833 80.446,59.833 80.583 C 59.833 80.721,59.721 80.833,59.583 80.833 C 59.446 80.833,59.333 80.946,59.333 81.083 C 59.333 81.240,59.175 81.333,58.911 81.333 C 58.679 81.333,58.446 81.446,58.394 81.583 C 58.341 81.721,58.193 81.833,58.066 81.833 C 57.938 81.833,57.833 81.946,57.833 82.083 C 57.833 82.250,57.667 82.333,57.333 82.333 C 57.000 82.333,56.833 82.417,56.833 82.583 C 56.833 82.771,56.632 82.833,56.020 82.833 C 55.501 82.833,55.133 82.924,55.000 83.083 C 54.844 83.271,54.425 83.333,53.313 83.333 C 52.109 83.333,51.833 83.380,51.833 83.583 C 51.833 83.769,51.639 83.833,51.083 83.833 L 50.333 83.833 50.333 86.000 L 50.333 88.167 62.250 88.167 L 74.167 88.167 74.167 86.000 L 74.167 83.833 73.667 83.833 C 73.333 83.833,73.167 83.750,73.167 83.583 C 73.167 83.384,72.919 83.333,71.934 83.333 C 70.993 83.333,70.680 83.274,70.606 83.083 C 70.543 82.918,70.282 82.833,69.839 82.833 C 69.352 82.833,69.167 82.764,69.167 82.583 C 69.167 82.446,69.054 82.333,68.917 82.333 C 68.779 82.333,68.667 82.239,68.667 82.123 C 68.667 82.007,68.498 81.838,68.292 81.748 C 68.085 81.657,67.843 81.415,67.752 81.208 C 67.662 81.002,67.493 80.833,67.377 80.833 C 67.254 80.833,67.167 80.625,67.167 80.333 C 67.167 80.000,67.083 79.833,66.917 79.833 C 66.729 79.833,66.667 79.632,66.667 79.018 C 66.667 78.447,66.742 78.174,66.917 78.106 C 67.082 78.043,67.167 77.782,67.167 77.339 C 67.167 76.852,67.236 76.667,67.417 76.667 C 67.602 76.667,67.667 76.472,67.667 75.917 C 67.667 75.361,67.731 75.167,67.917 75.167 C 68.083 75.167,68.167 75.000,68.167 74.667 C 68.167 74.333,68.250 74.167,68.417 74.167 C 68.602 74.167,68.667 73.972,68.667 73.417 C 68.667 72.861,68.731 72.667,68.917 72.667 C 69.081 72.667,69.167 72.502,69.167 72.184 C 69.167 71.910,69.274 71.661,69.417 71.606 C 69.582 71.543,69.667 71.282,69.667 70.839 C 69.667 70.352,69.736 70.167,69.917 70.167 C 70.081 70.167,70.167 70.002,70.167 69.684 C 70.167 69.410,70.274 69.161,70.417 69.106 C 70.582 69.043,70.667 68.782,70.667 68.339 C 70.667 67.852,70.736 67.667,70.917 67.667 C 71.090 67.667,71.167 67.493,71.167 67.104 C 71.167 66.794,71.279 66.447,71.417 66.333 C 71.554 66.219,71.667 65.910,71.667 65.646 C 71.667 65.331,71.752 65.167,71.917 65.167 C 72.083 65.167,72.167 65.000,72.167 64.667 L 72.167 64.167 86.750 64.167 L 101.333 64.167 101.333 64.839 C 101.333 65.282,101.418 65.543,101.583 65.606 C 101.726 65.661,101.833 65.910,101.833 66.184 C 101.833 66.502,101.919 66.667,102.083 66.667 C 102.269 66.667,102.333 66.861,102.333 67.417 C 102.333 67.972,102.398 68.167,102.583 68.167 C 102.750 68.167,102.833 68.333,102.833 68.667 C 102.833 69.000,102.917 69.167,103.083 69.167 C 103.269 69.167,103.333 69.361,103.333 69.917 C 103.333 70.472,103.398 70.667,103.583 70.667 C 103.750 70.667,103.833 70.833,103.833 71.167 C 103.833 71.500,103.917 71.667,104.083 71.667 C 104.269 71.667,104.333 71.861,104.333 72.417 C 104.333 72.972,104.398 73.167,104.583 73.167 C 104.748 73.167,104.833 73.331,104.833 73.646 C 104.833 73.910,104.946 74.219,105.083 74.333 C 105.221 74.447,105.333 74.794,105.333 75.104 C 105.333 75.493,105.410 75.667,105.583 75.667 C 105.764 75.667,105.833 75.852,105.833 76.339 C 105.833 76.782,105.918 77.043,106.083 77.106 C 106.226 77.161,106.333 77.410,106.333 77.684 C 106.333 78.002,106.419 78.167,106.583 78.167 C 106.769 78.167,106.833 78.361,106.833 78.917 C 106.833 79.472,106.898 79.667,107.083 79.667 C 107.250 79.667,107.333 79.833,107.333 80.167 C 107.333 80.500,107.417 80.667,107.583 80.667 C 107.722 80.667,107.833 80.815,107.833 81.000 C 107.833 81.185,107.722 81.333,107.583 81.333 C 107.417 81.333,107.333 81.500,107.333 81.833 C 107.333 82.278,107.278 82.333,106.833 82.333 C 106.500 82.333,106.333 82.417,106.333 82.583 C 106.333 82.750,106.167 82.833,105.833 82.833 C 105.500 82.833,105.333 82.917,105.333 83.083 C 105.333 83.290,105.028 83.333,103.583 83.333 C 102.139 83.333,101.833 83.377,101.833 83.583 C 101.833 83.783,101.583 83.833,100.583 83.833 L 99.333 83.833 99.333 86.000 L 99.333 88.167 114.500 88.167 L 129.667 88.167 129.667 86.000 L 129.667 83.833 127.354 83.833 C 125.501 83.833,125.000 83.784,124.833 83.583 C 124.677 83.395,124.258 83.333,123.146 83.333 C 121.942 83.333,121.667 83.287,121.667 83.083 C 121.667 82.917,121.500 82.833,121.167 82.833 C 120.833 82.833,120.667 82.750,120.667 82.583 C 120.667 82.417,120.500 82.333,120.167 82.333 C 119.722 82.333,119.667 82.278,119.667 81.833 C 119.667 81.500,119.583 81.333,119.417 81.333 C 119.250 81.333,119.167 81.167,119.167 80.833 C 119.167 80.500,119.083 80.333,118.917 80.333 C 118.750 80.333,118.667 80.167,118.667 79.833 C 118.667 79.500,118.583 79.333,118.417 79.333 C 118.231 79.333,118.167 79.139,118.167 78.583 C 118.167 78.028,118.102 77.833,117.917 77.833 C 117.750 77.833,117.667 77.667,117.667 77.333 C 117.667 77.000,117.583 76.833,117.417 76.833 C 117.231 76.833,117.167 76.639,117.167 76.083 C 117.167 75.528,117.102 75.333,116.917 75.333 C 116.750 75.333,116.667 75.167,116.667 74.833 C 116.667 74.500,116.583 74.333,116.417 74.333 C 116.231 74.333,116.167 74.139,116.167 73.583 C 116.167 73.028,116.102 72.833,115.917 72.833 C 115.750 72.833,115.667 72.667,115.667 72.333 C 115.667 72.000,115.583 71.833,115.417 71.833 C 115.231 71.833,115.167 71.639,115.167 71.083 C 115.167 70.528,115.102 70.333,114.917 70.333 C 114.752 70.333,114.667 70.169,114.667 69.854 C 114.667 69.590,114.554 69.281,114.417 69.167 C 114.279 69.053,114.167 68.706,114.167 68.396 C 114.167 68.007,114.090 67.833,113.917 67.833 C 113.752 67.833,113.667 67.669,113.667 67.354 C 113.667 67.090,113.554 66.781,113.417 66.667 C 113.279 66.553,113.167 66.206,113.167 65.896 C 113.167 65.507,113.090 65.333,112.917 65.333 C 112.744 65.333,112.667 65.160,112.667 64.770 C 112.667 64.461,112.554 64.114,112.417 64.000 C 112.279 63.886,112.167 63.577,112.167 63.313 C 112.167 62.998,112.081 62.833,111.917 62.833 C 111.736 62.833,111.667 62.648,111.667 62.161 C 111.667 61.718,111.582 61.457,111.417 61.394 C 111.274 61.339,111.167 61.090,111.167 60.816 C 111.167 60.498,111.081 60.333,110.917 60.333 C 110.736 60.333,110.667 60.148,110.667 59.661 C 110.667 59.218,110.582 58.957,110.417 58.894 C 110.274 58.839,110.167 58.590,110.167 58.316 C 110.167 57.998,110.081 57.833,109.917 57.833 C 109.731 57.833,109.667 57.639,109.667 57.083 C 109.667 56.528,109.602 56.333,109.417 56.333 C 109.250 56.333,109.167 56.167,109.167 55.833 C 109.167 55.500,109.083 55.333,108.917 55.333 C 108.731 55.333,108.667 55.139,108.667 54.583 C 108.667 54.028,108.602 53.833,108.417 53.833 C 108.250 53.833,108.167 53.667,108.167 53.333 C 108.167 53.000,108.083 52.833,107.917 52.833 C 107.731 52.833,107.667 52.639,107.667 52.083 C 107.667 51.528,107.602 51.333,107.417 51.333 C 107.250 51.333,107.167 51.167,107.167 50.833 C 107.167 50.500,107.083 50.333,106.917 50.333 C 106.731 50.333,106.667 50.139,106.667 49.583 C 106.667 49.028,106.602 48.833,106.417 48.833 C 106.250 48.833,106.167 48.667,106.167 48.333 C 106.167 48.000,106.083 47.833,105.917 47.833 C 105.731 47.833,105.667 47.639,105.667 47.083 C 105.667 46.528,105.602 46.333,105.417 46.333 C 105.250 46.333,105.167 46.167,105.167 45.833 C 105.167 45.500,105.083 45.333,104.917 45.333 C 104.731 45.333,104.667 45.139,104.667 44.583 C 104.667 44.028,104.602 43.833,104.417 43.833 C 104.250 43.833,104.167 43.667,104.167 43.333 C 104.167 43.000,104.083 42.833,103.917 42.833 C 103.731 42.833,103.667 42.639,103.667 42.083 C 103.667 41.528,103.602 41.333,103.417 41.333 C 103.250 41.333,103.167 41.167,103.167 40.833 C 103.167 40.500,103.083 40.333,102.917 40.333 C 102.731 40.333,102.667 40.139,102.667 39.583 C 102.667 39.028,102.602 38.833,102.417 38.833 C 102.252 38.833,102.167 38.669,102.167 38.354 C 102.167 38.090,102.054 37.781,101.917 37.667 C 101.779 37.553,101.667 37.206,101.667 36.896 C 101.667 36.507,101.590 36.333,101.417 36.333 C 101.252 36.333,101.167 36.169,101.167 35.854 C 101.167 35.590,101.054 35.281,100.917 35.167 C 100.779 35.053,100.667 34.706,100.667 34.396 C 100.667 34.007,100.590 33.833,100.417 33.833 C 100.244 33.833,100.167 33.660,100.167 33.270 C 100.167 32.961,100.054 32.614,99.917 32.500 C 99.779 32.386,99.667 32.077,99.667 31.813 C 99.667 31.498,99.581 31.333,99.417 31.333 C 99.236 31.333,99.167 31.148,99.167 30.661 C 99.167 30.218,99.082 29.957,98.917 29.894 C 98.774 29.839,98.667 29.590,98.667 29.316 C 98.667 28.998,98.581 28.833,98.417 28.833 C 98.231 28.833,98.167 28.639,98.167 28.083 C 98.167 27.528,98.102 27.333,97.917 27.333 C 97.750 27.333,97.667 27.167,97.667 26.833 C 97.667 26.500,97.583 26.333,97.417 26.333 C 97.231 26.333,97.167 26.139,97.167 25.583 C 97.167 25.028,97.102 24.833,96.917 24.833 C 96.750 24.833,96.667 24.667,96.667 24.333 C 96.667 24.000,96.583 23.833,96.417 23.833 C 96.231 23.833,96.167 23.639,96.167 23.083 C 96.167 22.528,96.102 22.333,95.917 22.333 C 95.750 22.333,95.667 22.167,95.667 21.833 C 95.667 21.500,95.583 21.333,95.417 21.333 C 95.231 21.333,95.167 21.139,95.167 20.583 C 95.167 20.028,95.102 19.833,94.917 19.833 C 94.750 19.833,94.667 19.667,94.667 19.333 C 94.667 19.000,94.583 18.833,94.417 18.833 C 94.231 18.833,94.167 18.639,94.167 18.083 C 94.167 17.528,94.102 17.333,93.917 17.333 C 93.750 17.333,93.667 17.167,93.667 16.833 C 93.667 16.500,93.583 16.333,93.417 16.333 C 93.231 16.333,93.167 16.139,93.167 15.583 C 93.167 15.028,93.102 14.833,92.917 14.833 C 92.750 14.833,92.667 14.667,92.667 14.333 C 92.667 14.000,92.583 13.833,92.417 13.833 C 92.279 13.833,92.167 13.721,92.167 13.583 C 92.167 13.446,92.054 13.333,91.917 13.333 C 91.779 13.333,91.667 13.221,91.667 13.083 C 91.667 12.878,91.370 12.833,90.000 12.833 C 88.630 12.833,88.333 12.878,88.333 13.083 M12.833 18.000 L 12.833 20.667 16.816 20.667 C 20.201 20.667,20.812 20.704,20.894 20.917 C 20.971 21.119,21.357 21.167,22.911 21.167 C 24.509 21.167,24.833 21.209,24.833 21.417 C 24.833 21.581,24.998 21.667,25.313 21.667 C 25.577 21.667,25.886 21.779,26.000 21.917 C 26.114 22.054,26.348 22.167,26.520 22.167 C 26.693 22.167,26.833 22.279,26.833 22.417 C 26.833 22.554,26.946 22.667,27.083 22.667 C 27.221 22.667,27.333 22.779,27.333 22.917 C 27.333 23.054,27.446 23.167,27.583 23.167 C 27.778 23.167,27.833 23.389,27.833 24.167 C 27.833 24.944,27.889 25.167,28.083 25.167 C 28.305 25.167,28.333 29.898,28.333 66.750 C 28.333 103.602,28.305 108.333,28.083 108.333 C 27.889 108.333,27.833 108.556,27.833 109.333 C 27.833 110.111,27.778 110.333,27.583 110.333 C 27.446 110.333,27.333 110.446,27.333 110.583 C 27.333 110.721,27.221 110.833,27.083 110.833 C 26.946 110.833,26.833 110.946,26.833 111.083 C 26.833 111.240,26.675 111.333,26.411 111.333 C 26.179 111.333,25.946 111.446,25.894 111.583 C 25.840 111.722,25.593 111.833,25.336 111.833 C 25.082 111.833,24.781 111.946,24.667 112.083 C 24.506 112.278,24.054 112.333,22.646 112.333 C 21.146 112.333,20.833 112.376,20.833 112.583 C 20.833 112.799,20.278 112.833,16.833 112.833 L 12.833 112.833 12.833 115.500 L 12.833 118.167 52.250 118.167 L 91.667 118.167 91.667 116.684 C 91.667 115.521,91.720 115.182,91.917 115.106 C 92.123 115.027,92.167 114.588,92.167 112.589 C 92.167 110.547,92.206 110.167,92.417 110.167 C 92.626 110.167,92.667 109.808,92.667 107.934 C 92.667 106.104,92.712 105.685,92.917 105.606 C 93.123 105.527,93.167 105.088,93.167 103.089 C 93.167 101.047,93.206 100.667,93.417 100.667 C 93.626 100.667,93.667 100.308,93.667 98.434 C 93.667 96.604,93.712 96.185,93.917 96.106 C 94.123 96.027,94.167 95.588,94.167 93.589 C 94.167 91.547,94.206 91.167,94.417 91.167 C 94.626 91.167,94.667 90.808,94.667 88.934 C 94.667 87.104,94.712 86.685,94.917 86.606 C 95.123 86.527,95.167 86.088,95.167 84.089 C 95.167 82.047,95.206 81.667,95.417 81.667 C 95.619 81.667,95.667 81.398,95.667 80.250 L 95.667 78.833 93.250 78.833 L 90.833 78.833 90.833 81.083 C 90.833 82.972,90.793 83.333,90.583 83.333 C 90.375 83.333,90.333 83.667,90.333 85.333 C 90.333 87.000,90.292 87.333,90.083 87.333 C 89.884 87.333,89.833 87.581,89.833 88.566 C 89.833 89.507,89.774 89.820,89.583 89.894 C 89.394 89.966,89.333 90.273,89.333 91.161 C 89.333 92.092,89.282 92.333,89.083 92.333 C 88.895 92.333,88.833 92.535,88.833 93.146 C 88.833 93.666,88.743 94.034,88.583 94.167 C 88.431 94.293,88.333 94.659,88.333 95.104 C 88.333 95.641,88.267 95.833,88.083 95.833 C 87.919 95.833,87.833 95.998,87.833 96.316 C 87.833 96.590,87.726 96.839,87.583 96.894 C 87.418 96.957,87.333 97.218,87.333 97.661 C 87.333 98.148,87.264 98.333,87.083 98.333 C 86.917 98.333,86.833 98.500,86.833 98.833 C 86.833 99.167,86.750 99.333,86.583 99.333 C 86.417 99.333,86.333 99.500,86.333 99.833 C 86.333 100.167,86.250 100.333,86.083 100.333 C 85.917 100.333,85.833 100.500,85.833 100.833 C 85.833 101.167,85.750 101.333,85.583 101.333 C 85.446 101.333,85.333 101.438,85.333 101.566 C 85.333 101.693,85.221 101.841,85.083 101.894 C 84.946 101.946,84.833 102.179,84.833 102.411 C 84.833 102.675,84.740 102.833,84.583 102.833 C 84.446 102.833,84.333 102.946,84.333 103.083 C 84.333 103.221,84.221 103.333,84.083 103.333 C 83.946 103.333,83.833 103.474,83.833 103.646 C 83.833 103.818,83.721 104.053,83.583 104.167 C 83.446 104.281,83.333 104.477,83.333 104.604 C 83.333 104.730,83.221 104.833,83.083 104.833 C 82.946 104.833,82.833 104.946,82.833 105.083 C 82.833 105.221,82.721 105.333,82.583 105.333 C 82.446 105.333,82.333 105.446,82.333 105.583 C 82.333 105.721,82.221 105.833,82.083 105.833 C 81.946 105.833,81.833 105.946,81.833 106.083 C 81.833 106.221,81.721 106.333,81.583 106.333 C 81.446 106.333,81.333 106.446,81.333 106.583 C 81.333 106.721,81.230 106.833,81.104 106.833 C 80.977 106.833,80.781 106.946,80.667 107.083 C 80.553 107.221,80.318 107.333,80.146 107.333 C 79.974 107.333,79.833 107.446,79.833 107.583 C 79.833 107.721,79.721 107.833,79.583 107.833 C 79.446 107.833,79.333 107.946,79.333 108.083 C 79.333 108.250,79.167 108.333,78.833 108.333 C 78.500 108.333,78.333 108.417,78.333 108.583 C 78.333 108.721,78.230 108.833,78.104 108.833 C 77.977 108.833,77.781 108.946,77.667 109.083 C 77.553 109.221,77.318 109.333,77.146 109.333 C 76.974 109.333,76.833 109.446,76.833 109.583 C 76.833 109.748,76.669 109.833,76.354 109.833 C 76.090 109.833,75.781 109.946,75.667 110.083 C 75.553 110.221,75.206 110.333,74.896 110.333 C 74.507 110.333,74.333 110.410,74.333 110.583 C 74.333 110.769,74.139 110.833,73.583 110.833 C 73.028 110.833,72.833 110.898,72.833 111.083 C 72.833 111.269,72.639 111.333,72.083 111.333 C 71.528 111.333,71.333 111.398,71.333 111.583 C 71.333 111.783,71.083 111.833,70.083 111.833 C 69.083 111.833,68.833 111.883,68.833 112.083 C 68.833 112.292,68.500 112.333,66.833 112.333 C 65.167 112.333,64.833 112.375,64.833 112.583 C 64.833 112.802,63.713 112.833,55.750 112.833 C 47.787 112.833,46.667 112.802,46.667 112.583 C 46.667 112.383,46.417 112.333,45.417 112.333 C 44.417 112.333,44.167 112.283,44.167 112.083 C 44.167 111.946,44.032 111.833,43.867 111.833 C 43.483 111.833,43.167 111.517,43.167 111.133 C 43.167 110.968,43.054 110.833,42.917 110.833 C 42.717 110.833,42.667 110.583,42.667 109.583 C 42.667 108.583,42.617 108.333,42.417 108.333 C 42.036 108.333,42.036 26.649,42.417 26.333 C 42.598 26.183,42.667 25.786,42.667 24.896 C 42.667 23.914,42.717 23.667,42.917 23.667 C 43.054 23.667,43.167 23.554,43.167 23.417 C 43.167 23.279,43.279 23.167,43.417 23.167 C 43.554 23.167,43.667 23.054,43.667 22.917 C 43.667 22.779,43.779 22.667,43.917 22.667 C 44.054 22.667,44.167 22.554,44.167 22.417 C 44.167 22.250,44.333 22.167,44.667 22.167 C 45.000 22.167,45.167 22.083,45.167 21.917 C 45.167 21.731,45.361 21.667,45.917 21.667 C 46.472 21.667,46.667 21.602,46.667 21.417 C 46.667 21.207,47.019 21.167,48.839 21.167 C 50.615 21.167,51.028 21.121,51.106 20.917 C 51.189 20.702,51.937 20.667,56.434 20.667 L 61.667 20.667 61.667 18.000 L 61.667 15.333 60.000 15.333 C 58.630 15.333,58.333 15.378,58.333 15.583 C 58.333 15.804,55.873 15.833,37.187 15.833 C 18.594 15.833,16.016 15.803,15.833 15.583 C 15.679 15.398,15.267 15.333,14.230 15.333 L 12.833 15.333 12.833 18.000 M283.333 18.000 L 283.333 20.667 286.816 20.667 C 289.757 20.667,290.313 20.705,290.394 20.917 C 290.470 21.116,290.829 21.167,292.161 21.167 C 293.536 21.167,293.833 21.211,293.833 21.417 C 293.833 21.602,294.028 21.667,294.583 21.667 C 295.139 21.667,295.333 21.731,295.333 21.917 C 295.333 22.081,295.498 22.167,295.816 22.167 C 296.090 22.167,296.339 22.274,296.394 22.417 C 296.446 22.554,296.679 22.667,296.911 22.667 C 297.175 22.667,297.333 22.760,297.333 22.917 C 297.333 23.054,297.446 23.167,297.583 23.167 C 297.721 23.167,297.833 23.279,297.833 23.417 C 297.833 23.554,297.946 23.667,298.083 23.667 C 298.221 23.667,298.333 23.779,298.333 23.917 C 298.333 24.054,298.446 24.167,298.583 24.167 C 298.721 24.167,298.833 24.279,298.833 24.417 C 298.833 24.554,298.946 24.667,299.083 24.667 C 299.221 24.667,299.333 24.779,299.333 24.917 C 299.333 25.054,299.446 25.167,299.583 25.167 C 299.721 25.167,299.833 25.279,299.833 25.417 C 299.833 25.554,299.946 25.667,300.083 25.667 C 300.250 25.667,300.333 25.833,300.333 26.167 C 300.333 26.500,300.417 26.667,300.583 26.667 C 300.721 26.667,300.833 26.779,300.833 26.917 C 300.833 27.054,300.946 27.167,301.083 27.167 C 301.250 27.167,301.333 27.333,301.333 27.667 C 301.333 28.000,301.417 28.167,301.583 28.167 C 301.721 28.167,301.833 28.279,301.833 28.417 C 301.833 28.554,301.946 28.667,302.083 28.667 C 302.250 28.667,302.333 28.833,302.333 29.167 C 302.333 29.500,302.417 29.667,302.583 29.667 C 302.721 29.667,302.833 29.779,302.833 29.917 C 302.833 30.054,302.946 30.167,303.083 30.167 C 303.250 30.167,303.333 30.333,303.333 30.667 C 303.333 31.000,303.417 31.167,303.583 31.167 C 303.721 31.167,303.833 31.279,303.833 31.417 C 303.833 31.554,303.946 31.667,304.083 31.667 C 304.250 31.667,304.333 31.833,304.333 32.167 C 304.333 32.500,304.417 32.667,304.583 32.667 C 304.721 32.667,304.833 32.779,304.833 32.917 C 304.833 33.054,304.946 33.167,305.083 33.167 C 305.250 33.167,305.333 33.333,305.333 33.667 C 305.333 34.000,305.417 34.167,305.583 34.167 C 305.721 34.167,305.833 34.270,305.833 34.396 C 305.833 34.523,305.946 34.719,306.083 34.833 C 306.221 34.947,306.333 35.182,306.333 35.354 C 306.333 35.526,306.446 35.667,306.583 35.667 C 306.721 35.667,306.833 35.770,306.833 35.896 C 306.833 36.023,306.946 36.219,307.083 36.333 C 307.221 36.447,307.333 36.682,307.333 36.854 C 307.333 37.026,307.446 37.167,307.583 37.167 C 307.721 37.167,307.833 37.307,307.833 37.480 C 307.833 37.652,307.946 37.886,308.083 38.000 C 308.221 38.114,308.333 38.311,308.333 38.437 C 308.333 38.563,308.446 38.667,308.583 38.667 C 308.721 38.667,308.833 38.807,308.833 38.980 C 308.833 39.152,308.946 39.386,309.083 39.500 C 309.221 39.614,309.333 39.811,309.333 39.937 C 309.333 40.063,309.446 40.167,309.583 40.167 C 309.740 40.167,309.833 40.325,309.833 40.589 C 309.833 40.821,309.946 41.054,310.083 41.106 C 310.221 41.159,310.333 41.307,310.333 41.434 C 310.333 41.562,310.446 41.667,310.583 41.667 C 310.740 41.667,310.833 41.825,310.833 42.089 C 310.833 42.321,310.946 42.554,311.083 42.606 C 311.221 42.659,311.333 42.807,311.333 42.934 C 311.333 43.062,311.446 43.167,311.583 43.167 C 311.740 43.167,311.833 43.325,311.833 43.589 C 311.833 43.821,311.946 44.054,312.083 44.106 C 312.221 44.159,312.333 44.307,312.333 44.434 C 312.333 44.562,312.446 44.667,312.583 44.667 C 312.750 44.667,312.833 44.833,312.833 45.167 C 312.833 45.500,312.917 45.667,313.083 45.667 C 313.221 45.667,313.333 45.779,313.333 45.917 C 313.333 46.054,313.446 46.167,313.583 46.167 C 313.750 46.167,313.833 46.333,313.833 46.667 C 313.833 47.000,313.917 47.167,314.083 47.167 C 314.221 47.167,314.333 47.279,314.333 47.417 C 314.333 47.554,314.446 47.667,314.583 47.667 C 314.750 47.667,314.833 47.833,314.833 48.167 C 314.833 48.500,314.917 48.667,315.083 48.667 C 315.221 48.667,315.333 48.779,315.333 48.917 C 315.333 49.054,315.446 49.167,315.583 49.167 C 315.750 49.167,315.833 49.333,315.833 49.667 C 315.833 50.000,315.917 50.167,316.083 50.167 C 316.221 50.167,316.333 50.279,316.333 50.417 C 316.333 50.554,316.446 50.667,316.583 50.667 C 316.750 50.667,316.833 50.833,316.833 51.167 C 316.833 51.500,316.917 51.667,317.083 51.667 C 317.221 51.667,317.333 51.779,317.333 51.917 C 317.333 52.054,317.446 52.167,317.583 52.167 C 317.750 52.167,317.833 52.333,317.833 52.667 C 317.833 53.000,317.917 53.167,318.083 53.167 C 318.221 53.167,318.333 53.279,318.333 53.417 C 318.333 53.554,318.446 53.667,318.583 53.667 C 318.750 53.667,318.833 53.833,318.833 54.167 C 318.833 54.500,318.917 54.667,319.083 54.667 C 319.221 54.667,319.333 54.779,319.333 54.917 C 319.333 55.054,319.446 55.167,319.583 55.167 C 319.750 55.167,319.833 55.333,319.833 55.667 C 319.833 56.000,319.917 56.167,320.083 56.167 C 320.221 56.167,320.333 56.279,320.333 56.417 C 320.333 56.554,320.446 56.667,320.583 56.667 C 320.750 56.667,320.833 56.833,320.833 57.167 C 320.833 57.500,320.917 57.667,321.083 57.667 C 321.221 57.667,321.333 57.779,321.333 57.917 C 321.333 58.054,321.446 58.167,321.583 58.167 C 321.750 58.167,321.833 58.333,321.833 58.667 C 321.833 59.000,321.917 59.167,322.083 59.167 C 322.221 59.167,322.333 59.279,322.333 59.417 C 322.333 59.554,322.446 59.667,322.583 59.667 C 322.750 59.667,322.833 59.833,322.833 60.167 C 322.833 60.500,322.917 60.667,323.083 60.667 C 323.221 60.667,323.333 60.779,323.333 60.917 C 323.333 61.054,323.446 61.167,323.583 61.167 C 323.750 61.167,323.833 61.333,323.833 61.667 C 323.833 62.000,323.917 62.167,324.083 62.167 C 324.221 62.167,324.333 62.279,324.333 62.417 C 324.333 62.554,324.446 62.667,324.583 62.667 C 324.750 62.667,324.833 62.833,324.833 63.167 C 324.833 63.500,324.917 63.667,325.083 63.667 C 325.221 63.667,325.333 63.779,325.333 63.917 C 325.333 64.054,325.446 64.167,325.583 64.167 C 325.750 64.167,325.833 64.333,325.833 64.667 C 325.833 65.000,325.917 65.167,326.083 65.167 C 326.221 65.167,326.333 65.270,326.333 65.396 C 326.333 65.523,326.446 65.719,326.583 65.833 C 326.721 65.947,326.833 66.182,326.833 66.354 C 326.833 66.526,326.946 66.667,327.083 66.667 C 327.221 66.667,327.333 66.807,327.333 66.980 C 327.333 67.152,327.221 67.386,327.083 67.500 C 326.946 67.614,326.833 67.848,326.833 68.020 C 326.833 68.193,326.721 68.333,326.583 68.333 C 326.446 68.333,326.333 68.438,326.333 68.566 C 326.333 68.693,326.221 68.841,326.083 68.894 C 325.946 68.946,325.833 69.179,325.833 69.411 C 325.833 69.675,325.740 69.833,325.583 69.833 C 325.446 69.833,325.333 69.946,325.333 70.083 C 325.333 70.221,325.221 70.333,325.083 70.333 C 324.917 70.333,324.833 70.500,324.833 70.833 C 324.833 71.167,324.750 71.333,324.583 71.333 C 324.446 71.333,324.333 71.446,324.333 71.583 C 324.333 71.721,324.221 71.833,324.083 71.833 C 323.917 71.833,323.833 72.000,323.833 72.333 C 323.833 72.667,323.750 72.833,323.583 72.833 C 323.446 72.833,323.333 72.946,323.333 73.083 C 323.333 73.221,323.221 73.333,323.083 73.333 C 322.917 73.333,322.833 73.500,322.833 73.833 C 322.833 74.167,322.750 74.333,322.583 74.333 C 322.446 74.333,322.333 74.446,322.333 74.583 C 322.333 74.721,322.221 74.833,322.083 74.833 C 321.917 74.833,321.833 75.000,321.833 75.333 C 321.833 75.667,321.750 75.833,321.583 75.833 C 321.446 75.833,321.333 75.946,321.333 76.083 C 321.333 76.221,321.221 76.333,321.083 76.333 C 320.917 76.333,320.833 76.500,320.833 76.833 C 320.833 77.167,320.750 77.333,320.583 77.333 C 320.446 77.333,320.333 77.446,320.333 77.583 C 320.333 77.721,320.221 77.833,320.083 77.833 C 319.917 77.833,319.833 78.000,319.833 78.333 C 319.833 78.667,319.750 78.833,319.583 78.833 C 319.446 78.833,319.333 78.946,319.333 79.083 C 319.333 79.221,319.221 79.333,319.083 79.333 C 318.917 79.333,318.833 79.500,318.833 79.833 C 318.833 80.167,318.750 80.333,318.583 80.333 C 318.446 80.333,318.333 80.446,318.333 80.583 C 318.333 80.721,318.221 80.833,318.083 80.833 C 317.946 80.833,317.833 80.974,317.833 81.146 C 317.833 81.318,317.721 81.553,317.583 81.667 C 317.446 81.781,317.333 81.977,317.333 82.104 C 317.333 82.230,317.221 82.333,317.083 82.333 C 316.946 82.333,316.833 82.437,316.833 82.563 C 316.833 82.689,316.721 82.886,316.583 83.000 C 316.446 83.114,316.333 83.348,316.333 83.520 C 316.333 83.693,316.221 83.833,316.083 83.833 C 315.946 83.833,315.833 83.938,315.833 84.066 C 315.833 84.193,315.721 84.341,315.583 84.394 C 315.446 84.446,315.333 84.679,315.333 84.911 C 315.333 85.175,315.240 85.333,315.083 85.333 C 314.946 85.333,314.833 85.446,314.833 85.583 C 314.833 85.721,314.721 85.833,314.583 85.833 C 314.417 85.833,314.333 86.000,314.333 86.333 C 314.333 86.667,314.250 86.833,314.083 86.833 C 313.946 86.833,313.833 86.946,313.833 87.083 C 313.833 87.221,313.721 87.333,313.583 87.333 C 313.417 87.333,313.333 87.500,313.333 87.833 C 313.333 88.167,313.250 88.333,313.083 88.333 C 312.946 88.333,312.833 88.446,312.833 88.583 C 312.833 88.721,312.721 88.833,312.583 88.833 C 312.417 88.833,312.333 89.000,312.333 89.333 C 312.333 89.667,312.250 89.833,312.083 89.833 C 311.946 89.833,311.833 89.946,311.833 90.083 C 311.833 90.221,311.721 90.333,311.583 90.333 C 311.417 90.333,311.333 90.500,311.333 90.833 C 311.333 91.167,311.250 91.333,311.083 91.333 C 310.946 91.333,310.833 91.446,310.833 91.583 C 310.833 91.721,310.721 91.833,310.583 91.833 C 310.417 91.833,310.333 92.000,310.333 92.333 C 310.333 92.667,310.250 92.833,310.083 92.833 C 309.946 92.833,309.833 92.946,309.833 93.083 C 309.833 93.221,309.721 93.333,309.583 93.333 C 309.417 93.333,309.333 93.500,309.333 93.833 C 309.333 94.167,309.250 94.333,309.083 94.333 C 308.946 94.333,308.833 94.446,308.833 94.583 C 308.833 94.721,308.721 94.833,308.583 94.833 C 308.417 94.833,308.333 95.000,308.333 95.333 C 308.333 95.667,308.250 95.833,308.083 95.833 C 307.946 95.833,307.833 95.946,307.833 96.083 C 307.833 96.221,307.721 96.333,307.583 96.333 C 307.446 96.333,307.333 96.474,307.333 96.646 C 307.333 96.818,307.221 97.053,307.083 97.167 C 306.946 97.281,306.833 97.477,306.833 97.604 C 306.833 97.730,306.721 97.833,306.583 97.833 C 306.446 97.833,306.333 97.937,306.333 98.063 C 306.333 98.189,306.221 98.386,306.083 98.500 C 305.946 98.614,305.833 98.848,305.833 99.020 C 305.833 99.193,305.721 99.333,305.583 99.333 C 305.446 99.333,305.333 99.438,305.333 99.566 C 305.333 99.693,305.221 99.841,305.083 99.894 C 304.946 99.946,304.833 100.179,304.833 100.411 C 304.833 100.675,304.740 100.833,304.583 100.833 C 304.446 100.833,304.333 100.938,304.333 101.066 C 304.333 101.193,304.221 101.341,304.083 101.394 C 303.946 101.446,303.833 101.679,303.833 101.911 C 303.833 102.175,303.740 102.333,303.583 102.333 C 303.446 102.333,303.333 102.446,303.333 102.583 C 303.333 102.721,303.221 102.833,303.083 102.833 C 302.917 102.833,302.833 103.000,302.833 103.333 C 302.833 103.667,302.750 103.833,302.583 103.833 C 302.446 103.833,302.333 103.946,302.333 104.083 C 302.333 104.221,302.221 104.333,302.083 104.333 C 301.946 104.333,301.833 104.446,301.833 104.583 C 301.833 104.721,301.721 104.833,301.583 104.833 C 301.446 104.833,301.333 104.974,301.333 105.146 C 301.333 105.318,301.221 105.553,301.083 105.667 C 300.946 105.781,300.833 105.977,300.833 106.104 C 300.833 106.230,300.721 106.333,300.583 106.333 C 300.446 106.333,300.333 106.446,300.333 106.583 C 300.333 106.721,300.230 106.833,300.104 106.833 C 299.977 106.833,299.781 106.946,299.667 107.083 C 299.553 107.221,299.318 107.333,299.146 107.333 C 298.974 107.333,298.833 107.446,298.833 107.583 C 298.833 107.721,298.721 107.833,298.583 107.833 C 298.446 107.833,298.333 107.946,298.333 108.083 C 298.333 108.221,298.221 108.333,298.083 108.333 C 297.946 108.333,297.833 108.446,297.833 108.583 C 297.833 108.750,297.667 108.833,297.333 108.833 C 297.000 108.833,296.833 108.917,296.833 109.083 C 296.833 109.221,296.693 109.333,296.520 109.333 C 296.348 109.333,296.114 109.446,296.000 109.583 C 295.886 109.721,295.661 109.833,295.500 109.833 C 295.339 109.833,295.114 109.946,295.000 110.083 C 294.886 110.221,294.577 110.333,294.313 110.333 C 293.998 110.333,293.833 110.419,293.833 110.583 C 293.833 110.750,293.667 110.833,293.333 110.833 C 293.000 110.833,292.833 110.917,292.833 111.083 C 292.833 111.275,292.620 111.333,291.911 111.333 C 291.246 111.333,290.963 111.403,290.894 111.583 C 290.823 111.766,290.535 111.833,289.816 111.833 C 289.054 111.833,288.833 111.889,288.833 112.083 C 288.833 112.292,288.500 112.333,286.833 112.333 C 285.167 112.333,284.833 112.375,284.833 112.583 C 284.833 112.790,284.528 112.833,283.083 112.833 L 281.333 112.833 281.333 115.500 L 281.333 118.167 284.875 118.186 C 286.823 118.197,288.285 118.240,288.125 118.282 C 287.880 118.346,287.833 118.557,287.833 119.596 C 287.833 120.585,287.783 120.833,287.583 120.833 C 287.383 120.833,287.333 121.083,287.333 122.083 C 287.333 123.083,287.283 123.333,287.083 123.333 C 286.889 123.333,286.833 123.556,286.833 124.333 C 286.833 125.111,286.778 125.333,286.583 125.333 C 286.389 125.333,286.333 125.556,286.333 126.333 C 286.333 127.111,286.278 127.333,286.083 127.333 C 285.898 127.333,285.833 127.528,285.833 128.083 C 285.833 128.639,285.769 128.833,285.583 128.833 C 285.398 128.833,285.333 129.028,285.333 129.583 C 285.333 130.139,285.269 130.333,285.083 130.333 C 284.919 130.333,284.833 130.498,284.833 130.816 C 284.833 131.090,284.726 131.339,284.583 131.394 C 284.418 131.457,284.333 131.718,284.333 132.161 C 284.333 132.648,284.264 132.833,284.083 132.833 C 283.917 132.833,283.833 133.000,283.833 133.333 C 283.833 133.667,283.750 133.833,283.583 133.833 C 283.417 133.833,283.333 134.000,283.333 134.333 C 283.333 134.667,283.250 134.833,283.083 134.833 C 282.917 134.833,282.833 135.000,282.833 135.333 C 282.833 135.667,282.750 135.833,282.583 135.833 C 282.446 135.833,282.333 135.946,282.333 136.083 C 282.333 136.221,282.221 136.333,282.083 136.333 C 281.917 136.333,281.833 136.500,281.833 136.833 C 281.833 137.167,281.750 137.333,281.583 137.333 C 281.446 137.333,281.333 137.446,281.333 137.583 C 281.333 137.721,281.221 137.833,281.083 137.833 C 280.946 137.833,280.833 137.946,280.833 138.083 C 280.833 138.221,280.721 138.333,280.583 138.333 C 280.446 138.333,280.333 138.446,280.333 138.583 C 280.333 138.721,280.221 138.833,280.083 138.833 C 279.946 138.833,279.833 138.946,279.833 139.083 C 279.833 139.221,279.721 139.333,279.583 139.333 C 279.446 139.333,279.333 139.446,279.333 139.583 C 279.333 139.721,279.221 139.833,279.083 139.833 C 278.946 139.833,278.833 139.946,278.833 140.083 C 278.833 140.221,278.721 140.333,278.583 140.333 C 278.446 140.333,278.333 140.446,278.333 140.583 C 278.333 140.721,278.221 140.833,278.083 140.833 C 277.946 140.833,277.833 140.946,277.833 141.083 C 277.833 141.221,277.721 141.333,277.583 141.333 C 277.446 141.333,277.333 141.446,277.333 141.583 C 277.333 141.750,277.167 141.833,276.833 141.833 C 276.500 141.833,276.333 141.917,276.333 142.083 C 276.333 142.221,276.221 142.333,276.083 142.333 C 275.946 142.333,275.833 142.446,275.833 142.583 C 275.833 142.750,275.667 142.833,275.333 142.833 C 275.000 142.833,274.833 142.917,274.833 143.083 C 274.833 143.250,274.667 143.333,274.333 143.333 C 274.000 143.333,273.833 143.417,273.833 143.583 C 273.833 143.769,273.639 143.833,273.083 143.833 C 272.528 143.833,272.333 143.898,272.333 144.083 C 272.333 144.269,272.139 144.333,271.583 144.333 C 271.028 144.333,270.833 144.398,270.833 144.583 C 270.833 144.769,270.639 144.833,270.083 144.833 C 269.528 144.833,269.333 144.898,269.333 145.083 C 269.333 145.283,269.083 145.333,268.083 145.333 C 267.083 145.333,266.833 145.383,266.833 145.583 C 266.833 145.790,266.528 145.833,265.083 145.833 C 263.639 145.833,263.333 145.877,263.333 146.083 C 263.333 146.304,261.519 146.333,248.000 146.333 C 234.481 146.333,232.667 146.304,232.667 146.083 C 232.667 145.898,232.472 145.833,231.917 145.833 C 231.361 145.833,231.167 145.769,231.167 145.583 C 231.167 145.446,231.054 145.333,230.917 145.333 C 230.779 145.333,230.667 145.221,230.667 145.083 C 230.667 144.946,230.554 144.833,230.417 144.833 C 230.216 144.833,230.167 144.576,230.167 143.520 C 230.167 142.557,230.100 142.152,229.917 142.000 C 229.697 141.818,229.667 139.332,229.667 121.480 L 229.667 101.167 236.730 101.167 C 242.804 101.167,243.822 101.202,244.000 101.417 C 244.168 101.619,244.696 101.667,246.770 101.667 C 248.937 101.667,249.333 101.705,249.333 101.917 C 249.333 102.111,249.556 102.167,250.333 102.167 C 251.111 102.167,251.333 102.222,251.333 102.417 C 251.333 102.602,251.528 102.667,252.083 102.667 C 252.639 102.667,252.833 102.731,252.833 102.917 C 252.833 103.083,253.000 103.167,253.333 103.167 C 253.667 103.167,253.833 103.250,253.833 103.417 C 253.833 103.554,253.946 103.667,254.083 103.667 C 254.221 103.667,254.333 103.779,254.333 103.917 C 254.333 104.054,254.474 104.167,254.647 104.167 C 254.956 104.167,255.833 105.144,255.833 105.489 C 255.833 105.587,255.946 105.667,256.083 105.667 C 256.221 105.667,256.333 105.779,256.333 105.917 C 256.333 106.054,256.446 106.167,256.583 106.167 C 256.750 106.167,256.833 106.333,256.833 106.667 C 256.833 107.000,256.917 107.167,257.083 107.167 C 257.269 107.167,257.333 107.361,257.333 107.917 C 257.333 108.472,257.398 108.667,257.583 108.667 C 257.775 108.667,257.833 108.880,257.833 109.589 C 257.833 110.254,257.903 110.537,258.083 110.606 C 258.293 110.687,258.333 111.207,258.333 113.856 C 258.333 116.506,258.373 117.026,258.583 117.106 C 258.753 117.172,258.833 117.437,258.833 117.934 L 258.833 118.667 261.000 118.667 L 263.167 118.667 263.167 98.500 L 263.167 78.333 261.000 78.333 L 258.833 78.333 258.833 79.333 C 258.833 80.111,258.778 80.333,258.583 80.333 C 258.370 80.333,258.333 80.806,258.333 83.583 C 258.333 86.361,258.297 86.833,258.083 86.833 C 257.889 86.833,257.833 87.056,257.833 87.833 C 257.833 88.611,257.778 88.833,257.583 88.833 C 257.398 88.833,257.333 89.028,257.333 89.583 C 257.333 90.139,257.269 90.333,257.083 90.333 C 256.917 90.333,256.833 90.500,256.833 90.833 C 256.833 91.167,256.750 91.333,256.583 91.333 C 256.446 91.333,256.333 91.446,256.333 91.583 C 256.333 91.721,256.221 91.833,256.083 91.833 C 255.946 91.833,255.833 91.946,255.833 92.083 C 255.833 92.221,255.721 92.333,255.583 92.333 C 255.446 92.333,255.333 92.446,255.333 92.583 C 255.333 92.721,255.221 92.833,255.083 92.833 C 254.946 92.833,254.833 92.946,254.833 93.083 C 254.833 93.221,254.721 93.333,254.583 93.333 C 254.446 93.333,254.333 93.446,254.333 93.583 C 254.333 93.750,254.167 93.833,253.833 93.833 C 253.500 93.833,253.333 93.917,253.333 94.083 C 253.333 94.250,253.167 94.333,252.833 94.333 C 252.500 94.333,252.333 94.417,252.333 94.583 C 252.333 94.769,252.139 94.833,251.583 94.833 C 251.028 94.833,250.833 94.898,250.833 95.083 C 250.833 95.283,250.583 95.333,249.583 95.333 C 248.583 95.333,248.333 95.383,248.333 95.583 C 248.333 95.803,247.185 95.833,239.000 95.833 L 229.667 95.833 229.667 77.687 C 229.667 61.760,229.697 59.515,229.917 59.333 C 230.098 59.183,230.167 58.786,230.167 57.896 C 230.167 56.914,230.217 56.667,230.417 56.667 C 230.554 56.667,230.667 56.554,230.667 56.417 C 230.667 56.279,230.779 56.167,230.917 56.167 C 231.054 56.167,231.167 56.054,231.167 55.917 C 231.167 55.750,231.333 55.667,231.667 55.667 C 232.000 55.667,232.167 55.583,232.167 55.417 C 232.167 55.196,234.035 55.167,247.982 55.167 C 261.887 55.167,263.809 55.197,263.894 55.417 C 263.968 55.612,264.299 55.667,265.394 55.667 C 266.488 55.667,266.819 55.722,266.894 55.917 C 266.963 56.096,267.243 56.167,267.891 56.167 C 268.489 56.167,268.862 56.251,269.000 56.417 C 269.133 56.576,269.501 56.667,270.020 56.667 C 270.632 56.667,270.833 56.729,270.833 56.917 C 270.833 57.083,271.000 57.167,271.333 57.167 C 271.667 57.167,271.833 57.250,271.833 57.417 C 271.833 57.581,271.998 57.667,272.313 57.667 C 272.577 57.667,272.886 57.779,273.000 57.917 C 273.114 58.054,273.348 58.167,273.520 58.167 C 273.693 58.167,273.833 58.279,273.833 58.417 C 273.833 58.583,274.000 58.667,274.333 58.667 C 274.667 58.667,274.833 58.750,274.833 58.917 C 274.833 59.054,274.938 59.167,275.066 59.167 C 275.193 59.167,275.341 59.279,275.394 59.417 C 275.446 59.554,275.679 59.667,275.911 59.667 C 276.175 59.667,276.333 59.760,276.333 59.917 C 276.333 60.054,276.446 60.167,276.583 60.167 C 276.721 60.167,276.833 60.279,276.833 60.417 C 276.833 60.554,276.946 60.667,277.083 60.667 C 277.221 60.667,277.333 60.779,277.333 60.917 C 277.333 61.054,277.446 61.167,277.583 61.167 C 277.721 61.167,277.833 61.279,277.833 61.417 C 277.833 61.554,277.946 61.667,278.083 61.667 C 278.221 61.667,278.333 61.779,278.333 61.917 C 278.333 62.054,278.446 62.167,278.583 62.167 C 278.750 62.167,278.833 62.333,278.833 62.667 C 278.833 63.000,278.917 63.167,279.083 63.167 C 279.221 63.167,279.333 63.279,279.333 63.417 C 279.333 63.554,279.446 63.667,279.583 63.667 C 279.750 63.667,279.833 63.833,279.833 64.167 C 279.833 64.500,279.917 64.667,280.083 64.667 C 280.250 64.667,280.333 64.833,280.333 65.167 C 280.333 65.500,280.417 65.667,280.583 65.667 C 280.750 65.667,280.833 65.833,280.833 66.167 C 280.833 66.500,280.917 66.667,281.083 66.667 C 281.250 66.667,281.333 66.833,281.333 67.167 C 281.333 67.500,281.417 67.667,281.583 67.667 C 281.769 67.667,281.833 67.861,281.833 68.417 C 281.833 68.972,281.898 69.167,282.083 69.167 C 282.267 69.167,282.333 69.359,282.333 69.896 C 282.333 70.341,282.431 70.707,282.583 70.833 C 282.743 70.966,282.833 71.334,282.833 71.854 C 282.833 72.465,282.895 72.667,283.083 72.667 C 283.283 72.667,283.333 72.917,283.333 73.917 C 283.333 74.917,283.383 75.167,283.583 75.167 C 283.787 75.167,283.833 75.444,283.833 76.667 C 283.833 77.889,283.880 78.167,284.083 78.167 C 284.290 78.167,284.333 78.472,284.333 79.917 C 284.333 81.361,284.377 81.667,284.583 81.667 C 284.783 81.667,284.833 81.917,284.833 82.921 L 284.833 84.176 287.208 84.130 L 289.583 84.083 289.633 83.652 C 289.661 83.413,289.569 83.126,289.425 83.007 C 289.221 82.838,289.167 82.416,289.167 81.000 C 289.167 79.610,289.111 79.161,288.917 79.000 C 288.723 78.839,288.667 78.390,288.667 77.000 C 288.667 75.610,288.611 75.161,288.417 75.000 C 288.224 74.840,288.167 74.399,288.167 73.083 C 288.167 71.767,288.109 71.326,287.917 71.167 C 287.723 71.006,287.667 70.557,287.667 69.167 C 287.667 67.777,287.611 67.328,287.417 67.167 C 287.223 67.006,287.167 66.557,287.167 65.167 C 287.167 63.777,287.111 63.328,286.917 63.167 C 286.723 63.006,286.667 62.557,286.667 61.167 C 286.667 59.777,286.611 59.328,286.417 59.167 C 286.223 59.006,286.167 58.557,286.167 57.167 C 286.167 55.777,286.111 55.328,285.917 55.167 C 285.723 55.006,285.667 54.557,285.667 53.167 C 285.667 51.777,285.611 51.328,285.417 51.167 C 285.279 51.053,285.167 50.706,285.167 50.396 L 285.167 49.833 250.667 49.833 L 216.167 49.833 216.167 48.833 C 216.167 48.056,216.111 47.833,215.917 47.833 C 215.704 47.833,215.667 47.410,215.667 45.020 C 215.667 42.723,215.621 42.169,215.417 42.000 C 215.213 41.831,215.167 41.288,215.167 39.083 C 215.167 36.878,215.120 36.336,214.917 36.167 C 214.713 35.997,214.667 35.443,214.667 33.146 C 214.667 30.757,214.629 30.333,214.417 30.333 C 214.204 30.333,214.167 29.889,214.167 27.333 C 214.167 24.778,214.130 24.333,213.917 24.333 C 213.704 24.333,213.667 23.898,213.667 21.411 C 213.667 18.968,213.626 18.474,213.417 18.394 C 213.234 18.323,213.167 18.035,213.167 17.316 L 213.167 16.333 167.000 16.333 L 120.833 16.333 120.833 19.313 C 120.833 21.758,120.788 22.330,120.583 22.500 C 120.378 22.671,120.333 23.251,120.333 25.770 C 120.333 28.382,120.296 28.833,120.083 28.833 C 119.870 28.833,119.833 29.276,119.833 31.816 C 119.833 34.313,119.793 34.813,119.583 34.894 C 119.373 34.974,119.333 35.496,119.333 38.161 C 119.333 40.870,119.297 41.333,119.083 41.333 C 118.870 41.333,118.833 41.778,118.833 44.333 C 118.833 46.889,118.796 47.333,118.583 47.333 C 118.378 47.333,118.333 47.630,118.333 49.000 L 118.333 50.667 120.500 50.667 L 122.667 50.667 122.667 49.917 C 122.667 49.361,122.731 49.167,122.917 49.167 C 123.128 49.167,123.167 48.778,123.167 46.667 C 123.167 44.556,123.206 44.167,123.417 44.167 C 123.623 44.167,123.667 43.863,123.667 42.437 C 123.667 41.103,123.724 40.660,123.917 40.500 C 124.100 40.348,124.167 39.945,124.167 38.997 C 124.167 38.000,124.224 37.680,124.417 37.606 C 124.606 37.534,124.667 37.227,124.667 36.339 C 124.667 35.408,124.718 35.167,124.917 35.167 C 125.111 35.167,125.167 34.944,125.167 34.167 C 125.167 33.389,125.222 33.167,125.417 33.167 C 125.590 33.167,125.667 32.993,125.667 32.604 C 125.667 32.294,125.779 31.947,125.917 31.833 C 126.054 31.719,126.167 31.410,126.167 31.146 C 126.167 30.831,126.252 30.667,126.417 30.667 C 126.583 30.667,126.667 30.500,126.667 30.167 C 126.667 29.833,126.750 29.667,126.917 29.667 C 127.083 29.667,127.167 29.500,127.167 29.167 C 127.167 28.833,127.250 28.667,127.417 28.667 C 127.554 28.667,127.667 28.562,127.667 28.434 C 127.667 28.307,127.779 28.159,127.917 28.106 C 128.054 28.054,128.167 27.821,128.167 27.589 C 128.167 27.325,128.260 27.167,128.417 27.167 C 128.554 27.167,128.667 27.054,128.667 26.917 C 128.667 26.779,128.779 26.667,128.917 26.667 C 129.054 26.667,129.167 26.554,129.167 26.417 C 129.167 26.279,129.279 26.167,129.417 26.167 C 129.554 26.167,129.667 26.054,129.667 25.917 C 129.667 25.779,129.770 25.667,129.896 25.667 C 130.023 25.667,130.219 25.554,130.333 25.417 C 130.447 25.279,130.682 25.167,130.854 25.167 C 131.026 25.167,131.167 25.054,131.167 24.917 C 131.167 24.760,131.325 24.667,131.589 24.667 C 131.821 24.667,132.054 24.554,132.106 24.417 C 132.159 24.279,132.384 24.167,132.606 24.167 C 132.829 24.167,133.054 24.054,133.106 23.917 C 133.161 23.774,133.410 23.667,133.684 23.667 C 134.002 23.667,134.167 23.581,134.167 23.417 C 134.167 23.231,134.361 23.167,134.917 23.167 C 135.472 23.167,135.667 23.102,135.667 22.917 C 135.667 22.717,135.917 22.667,136.917 22.667 C 137.917 22.667,138.167 22.617,138.167 22.417 C 138.167 22.208,138.500 22.167,140.167 22.167 C 141.833 22.167,142.167 22.125,142.167 21.917 C 142.167 21.698,143.093 21.667,149.500 21.667 C 155.907 21.667,156.833 21.698,156.833 21.917 C 156.833 22.102,157.028 22.167,157.583 22.167 C 158.139 22.167,158.333 22.231,158.333 22.417 C 158.333 22.583,158.500 22.667,158.833 22.667 C 159.167 22.667,159.333 22.750,159.333 22.917 C 159.333 23.054,159.446 23.167,159.583 23.167 C 159.769 23.167,159.833 23.361,159.833 23.917 C 159.833 24.472,159.898 24.667,160.083 24.667 C 160.305 24.667,160.333 29.426,160.333 66.500 C 160.333 103.574,160.305 108.333,160.083 108.333 C 159.898 108.333,159.833 108.528,159.833 109.083 C 159.833 109.639,159.769 109.833,159.583 109.833 C 159.446 109.833,159.333 109.946,159.333 110.083 C 159.333 110.221,159.221 110.333,159.083 110.333 C 158.946 110.333,158.833 110.446,158.833 110.583 C 158.833 110.721,158.721 110.833,158.583 110.833 C 158.446 110.833,158.333 110.946,158.333 111.083 C 158.333 111.264,158.148 111.333,157.661 111.333 C 157.218 111.333,156.957 111.418,156.894 111.583 C 156.827 111.757,156.556 111.833,156.003 111.833 C 155.499 111.833,155.131 111.925,155.000 112.083 C 154.834 112.283,154.341 112.333,152.563 112.333 C 150.692 112.333,150.333 112.374,150.333 112.583 C 150.333 112.801,149.556 112.833,144.333 112.833 L 138.333 112.833 138.333 115.500 L 138.333 118.167 141.672 118.167 C 144.486 118.167,145.026 118.127,145.106 117.917 C 145.252 117.536,189.333 117.536,189.333 117.917 C 189.333 118.131,189.824 118.167,192.750 118.167 L 196.167 118.167 196.167 115.500 L 196.167 112.833 190.167 112.833 C 184.944 112.833,184.167 112.801,184.167 112.583 C 184.167 112.373,183.799 112.333,181.854 112.333 C 180.001 112.333,179.500 112.284,179.333 112.083 C 179.208 111.933,178.843 111.833,178.414 111.833 C 177.935 111.833,177.671 111.752,177.606 111.583 C 177.543 111.418,177.282 111.333,176.839 111.333 C 176.352 111.333,176.167 111.264,176.167 111.083 C 176.167 110.946,176.054 110.833,175.917 110.833 C 175.779 110.833,175.667 110.721,175.667 110.583 C 175.667 110.446,175.554 110.333,175.417 110.333 C 175.279 110.333,175.167 110.221,175.167 110.083 C 175.167 109.946,175.054 109.833,174.917 109.833 C 174.731 109.833,174.667 109.639,174.667 109.083 C 174.667 108.528,174.602 108.333,174.417 108.333 C 174.195 108.333,174.167 103.574,174.167 66.500 C 174.167 29.426,174.195 24.667,174.417 24.667 C 174.602 24.667,174.667 24.472,174.667 23.917 C 174.667 23.361,174.731 23.167,174.917 23.167 C 175.054 23.167,175.167 23.054,175.167 22.917 C 175.167 22.779,175.279 22.667,175.417 22.667 C 175.554 22.667,175.667 22.554,175.667 22.417 C 175.667 22.231,175.861 22.167,176.417 22.167 C 176.972 22.167,177.167 22.102,177.167 21.917 C 177.167 21.698,178.120 21.667,184.750 21.667 C 191.380 21.667,192.333 21.698,192.333 21.917 C 192.333 22.124,192.646 22.167,194.146 22.167 C 195.554 22.167,196.006 22.222,196.167 22.417 C 196.308 22.587,196.686 22.667,197.354 22.667 C 198.113 22.667,198.333 22.723,198.333 22.917 C 198.333 23.111,198.556 23.167,199.333 23.167 C 200.111 23.167,200.333 23.222,200.333 23.417 C 200.333 23.583,200.500 23.667,200.833 23.667 C 201.167 23.667,201.333 23.750,201.333 23.917 C 201.333 24.083,201.500 24.167,201.833 24.167 C 202.167 24.167,202.333 24.250,202.333 24.417 C 202.333 24.583,202.500 24.667,202.833 24.667 C 203.167 24.667,203.333 24.750,203.333 24.917 C 203.333 25.054,203.446 25.167,203.583 25.167 C 203.721 25.167,203.833 25.279,203.833 25.417 C 203.833 25.554,203.946 25.667,204.083 25.667 C 204.221 25.667,204.333 25.744,204.333 25.837 C 204.333 25.931,204.522 26.080,204.753 26.168 C 204.984 26.256,205.244 26.516,205.332 26.747 C 205.420 26.978,205.569 27.167,205.663 27.167 C 205.756 27.167,205.833 27.279,205.833 27.417 C 205.833 27.554,205.946 27.667,206.083 27.667 C 206.221 27.667,206.333 27.779,206.333 27.917 C 206.333 28.054,206.446 28.167,206.583 28.167 C 206.750 28.167,206.833 28.333,206.833 28.667 C 206.833 29.000,206.917 29.167,207.083 29.167 C 207.221 29.167,207.333 29.270,207.333 29.396 C 207.333 29.523,207.446 29.719,207.583 29.833 C 207.721 29.947,207.833 30.294,207.833 30.604 C 207.833 30.993,207.910 31.167,208.083 31.167 C 208.250 31.167,208.333 31.333,208.333 31.667 C 208.333 32.000,208.417 32.167,208.583 32.167 C 208.775 32.167,208.833 32.380,208.833 33.089 C 208.833 33.754,208.903 34.037,209.083 34.106 C 209.253 34.172,209.333 34.437,209.333 34.934 C 209.333 35.474,209.399 35.667,209.583 35.667 C 209.784 35.667,209.833 35.924,209.833 36.980 C 209.833 37.943,209.900 38.348,210.083 38.500 C 210.271 38.656,210.333 39.075,210.333 40.187 C 210.333 41.391,210.380 41.667,210.583 41.667 C 210.793 41.667,210.833 42.019,210.833 43.839 C 210.833 45.615,210.879 46.028,211.083 46.106 C 211.284 46.184,211.333 46.558,211.333 48.018 L 211.333 49.833 205.833 49.833 L 200.333 49.833 200.333 52.500 L 200.333 55.167 205.833 55.167 C 210.611 55.167,211.333 55.199,211.333 55.417 C 211.333 55.611,211.556 55.667,212.333 55.667 C 213.111 55.667,213.333 55.722,213.333 55.917 C 213.333 56.083,213.500 56.167,213.833 56.167 C 214.167 56.167,214.333 56.250,214.333 56.417 C 214.333 56.554,214.446 56.667,214.583 56.667 C 214.740 56.667,214.833 56.825,214.833 57.089 C 214.833 57.321,214.946 57.554,215.083 57.606 C 215.253 57.672,215.333 57.937,215.333 58.434 C 215.333 58.974,215.399 59.167,215.583 59.167 C 215.964 59.167,215.964 141.851,215.583 142.167 C 215.431 142.293,215.333 142.659,215.333 143.104 C 215.333 143.641,215.267 143.833,215.083 143.833 C 214.946 143.833,214.833 143.908,214.833 144.000 C 214.833 144.216,214.216 144.833,214.000 144.833 C 213.908 144.833,213.833 144.946,213.833 145.083 C 213.833 145.250,213.667 145.333,213.333 145.333 C 213.000 145.333,212.833 145.417,212.833 145.583 C 212.833 145.778,212.611 145.833,211.833 145.833 C 211.056 145.833,210.833 145.889,210.833 146.083 C 210.833 146.300,210.139 146.333,205.583 146.333 L 200.333 146.333 200.333 149.000 L 200.333 151.667 243.750 151.667 C 282.231 151.667,287.167 151.638,287.167 151.417 C 287.167 151.279,287.279 151.167,287.417 151.167 C 287.620 151.167,287.667 150.889,287.667 149.667 C 287.667 148.444,287.713 148.167,287.917 148.167 C 288.120 148.167,288.167 147.889,288.167 146.667 C 288.167 145.444,288.213 145.167,288.417 145.167 C 288.620 145.167,288.667 144.889,288.667 143.667 C 288.667 142.444,288.713 142.167,288.917 142.167 C 289.120 142.167,289.167 141.889,289.167 140.667 C 289.167 139.444,289.213 139.167,289.417 139.167 C 289.620 139.167,289.667 138.889,289.667 137.667 C 289.667 136.444,289.713 136.167,289.917 136.167 C 290.120 136.167,290.167 135.889,290.167 134.667 C 290.167 133.444,290.213 133.167,290.417 133.167 C 290.620 133.167,290.667 132.891,290.667 131.684 C 290.667 130.521,290.720 130.182,290.917 130.106 C 291.113 130.031,291.167 129.692,291.167 128.526 C 291.167 127.409,291.229 126.989,291.417 126.833 C 291.605 126.677,291.667 126.258,291.667 125.146 C 291.667 123.942,291.713 123.667,291.917 123.667 C 292.120 123.667,292.167 123.389,292.167 122.167 C 292.167 120.944,292.213 120.667,292.417 120.667 C 292.617 120.667,292.667 120.417,292.667 119.417 L 292.667 118.167 305.417 118.167 L 318.167 118.167 318.167 115.500 L 318.167 112.833 317.167 112.833 C 316.389 112.833,316.167 112.778,316.167 112.583 C 316.167 112.389,315.944 112.333,315.167 112.333 C 314.389 112.333,314.167 112.278,314.167 112.083 C 314.167 111.898,313.972 111.833,313.417 111.833 C 312.861 111.833,312.667 111.769,312.667 111.583 C 312.667 111.417,312.500 111.333,312.167 111.333 C 311.833 111.333,311.667 111.250,311.667 111.083 C 311.667 110.946,311.554 110.833,311.417 110.833 C 311.279 110.833,311.167 110.721,311.167 110.583 C 311.167 110.446,311.054 110.333,310.917 110.333 C 310.779 110.333,310.667 110.221,310.667 110.083 C 310.667 109.946,310.554 109.833,310.417 109.833 C 310.279 109.833,310.167 109.721,310.167 109.583 C 310.167 109.446,310.054 109.333,309.917 109.333 C 309.750 109.333,309.667 109.167,309.667 108.833 C 309.667 108.500,309.583 108.333,309.417 108.333 C 309.250 108.333,309.167 108.167,309.167 107.833 C 309.167 107.500,309.083 107.333,308.917 107.333 C 308.720 107.333,308.667 107.102,308.667 106.250 C 308.667 105.398,308.720 105.167,308.917 105.167 C 309.083 105.167,309.167 105.000,309.167 104.667 C 309.167 104.333,309.250 104.167,309.417 104.167 C 309.583 104.167,309.667 104.000,309.667 103.667 C 309.667 103.333,309.750 103.167,309.917 103.167 C 310.054 103.167,310.167 103.054,310.167 102.917 C 310.167 102.779,310.279 102.667,310.417 102.667 C 310.583 102.667,310.667 102.500,310.667 102.167 C 310.667 101.833,310.750 101.667,310.917 101.667 C 311.054 101.667,311.167 101.554,311.167 101.417 C 311.167 101.279,311.279 101.167,311.417 101.167 C 311.583 101.167,311.667 101.000,311.667 100.667 C 311.667 100.333,311.750 100.167,311.917 100.167 C 312.054 100.167,312.167 100.054,312.167 99.917 C 312.167 99.779,312.279 99.667,312.417 99.667 C 312.583 99.667,312.667 99.500,312.667 99.167 C 312.667 98.833,312.750 98.667,312.917 98.667 C 313.054 98.667,313.167 98.554,313.167 98.417 C 313.167 98.279,313.279 98.167,313.417 98.167 C 313.554 98.167,313.667 98.026,313.667 97.854 C 313.667 97.682,313.779 97.447,313.917 97.333 C 314.054 97.219,314.167 97.023,314.167 96.896 C 314.167 96.770,314.279 96.667,314.417 96.667 C 314.554 96.667,314.667 96.563,314.667 96.437 C 314.667 96.311,314.779 96.114,314.917 96.000 C 315.054 95.886,315.167 95.652,315.167 95.480 C 315.167 95.307,315.279 95.167,315.417 95.167 C 315.554 95.167,315.667 95.062,315.667 94.934 C 315.667 94.807,315.779 94.659,315.917 94.606 C 316.054 94.554,316.167 94.321,316.167 94.089 C 316.167 93.825,316.260 93.667,316.417 93.667 C 316.554 93.667,316.667 93.554,316.667 93.417 C 316.667 93.279,316.779 93.167,316.917 93.167 C 317.083 93.167,317.167 93.000,317.167 92.667 C 317.167 92.333,317.250 92.167,317.417 92.167 C 317.554 92.167,317.667 92.054,317.667 91.917 C 317.667 91.779,317.779 91.667,317.917 91.667 C 318.083 91.667,318.167 91.500,318.167 91.167 C 318.167 90.833,318.250 90.667,318.417 90.667 C 318.554 90.667,318.667 90.554,318.667 90.417 C 318.667 90.279,318.779 90.167,318.917 90.167 C 319.083 90.167,319.167 90.000,319.167 89.667 C 319.167 89.333,319.250 89.167,319.417 89.167 C 319.554 89.167,319.667 89.054,319.667 88.917 C 319.667 88.779,319.779 88.667,319.917 88.667 C 320.083 88.667,320.167 88.500,320.167 88.167 C 320.167 87.833,320.250 87.667,320.417 87.667 C 320.554 87.667,320.667 87.554,320.667 87.417 C 320.667 87.279,320.779 87.167,320.917 87.167 C 321.083 87.167,321.167 87.000,321.167 86.667 C 321.167 86.333,321.250 86.167,321.417 86.167 C 321.554 86.167,321.667 86.054,321.667 85.917 C 321.667 85.779,321.779 85.667,321.917 85.667 C 322.083 85.667,322.167 85.500,322.167 85.167 C 322.167 84.833,322.250 84.667,322.417 84.667 C 322.554 84.667,322.667 84.554,322.667 84.417 C 322.667 84.279,322.779 84.167,322.917 84.167 C 323.083 84.167,323.167 84.000,323.167 83.667 C 323.167 83.333,323.250 83.167,323.417 83.167 C 323.554 83.167,323.667 83.054,323.667 82.917 C 323.667 82.779,323.779 82.667,323.917 82.667 C 324.083 82.667,324.167 82.500,324.167 82.167 C 324.167 81.833,324.250 81.667,324.417 81.667 C 324.554 81.667,324.667 81.554,324.667 81.417 C 324.667 81.279,324.779 81.167,324.917 81.167 C 325.083 81.167,325.167 81.000,325.167 80.667 C 325.167 80.333,325.250 80.167,325.417 80.167 C 325.554 80.167,325.667 80.054,325.667 79.917 C 325.667 79.779,325.779 79.667,325.917 79.667 C 326.054 79.667,326.167 79.526,326.167 79.354 C 326.167 79.182,326.279 78.947,326.417 78.833 C 326.554 78.719,326.667 78.523,326.667 78.396 C 326.667 78.270,326.779 78.167,326.917 78.167 C 327.054 78.167,327.167 78.026,327.167 77.854 C 327.167 77.682,327.279 77.447,327.417 77.333 C 327.554 77.219,327.667 77.023,327.667 76.896 C 327.667 76.770,327.779 76.667,327.917 76.667 C 328.054 76.667,328.167 76.562,328.167 76.434 C 328.167 76.307,328.279 76.159,328.417 76.106 C 328.554 76.054,328.667 75.821,328.667 75.589 C 328.667 75.325,328.760 75.167,328.917 75.167 C 329.054 75.167,329.167 75.062,329.167 74.934 C 329.167 74.807,329.279 74.659,329.417 74.606 C 329.554 74.554,329.667 74.321,329.667 74.089 C 329.667 73.825,329.760 73.667,329.917 73.667 C 330.054 73.667,330.167 73.554,330.167 73.417 C 330.167 73.279,330.279 73.167,330.417 73.167 C 330.584 73.167,330.673 72.987,330.686 72.625 C 330.697 72.327,330.740 72.215,330.782 72.375 C 330.823 72.535,330.965 72.667,331.096 72.667 C 331.226 72.667,331.333 72.779,331.333 72.917 C 331.333 73.054,331.446 73.167,331.583 73.167 C 331.750 73.167,331.833 73.333,331.833 73.667 C 331.833 74.000,331.917 74.167,332.083 74.167 C 332.221 74.167,332.333 74.279,332.333 74.417 C 332.333 74.554,332.446 74.667,332.583 74.667 C 332.750 74.667,332.833 74.833,332.833 75.167 C 332.833 75.500,332.917 75.667,333.083 75.667 C 333.221 75.667,333.333 75.779,333.333 75.917 C 333.333 76.054,333.446 76.167,333.583 76.167 C 333.750 76.167,333.833 76.333,333.833 76.667 C 333.833 77.000,333.917 77.167,334.083 77.167 C 334.221 77.167,334.333 77.279,334.333 77.417 C 334.333 77.554,334.446 77.667,334.583 77.667 C 334.750 77.667,334.833 77.833,334.833 78.167 C 334.833 78.500,334.917 78.667,335.083 78.667 C 335.221 78.667,335.333 78.779,335.333 78.917 C 335.333 79.054,335.446 79.167,335.583 79.167 C 335.750 79.167,335.833 79.333,335.833 79.667 C 335.833 80.000,335.917 80.167,336.083 80.167 C 336.221 80.167,336.333 80.279,336.333 80.417 C 336.333 80.554,336.446 80.667,336.583 80.667 C 336.750 80.667,336.833 80.833,336.833 81.167 C 336.833 81.500,336.917 81.667,337.083 81.667 C 337.221 81.667,337.333 81.779,337.333 81.917 C 337.333 82.054,337.446 82.167,337.583 82.167 C 337.750 82.167,337.833 82.333,337.833 82.667 C 337.833 83.000,337.917 83.167,338.083 83.167 C 338.221 83.167,338.333 83.279,338.333 83.417 C 338.333 83.554,338.446 83.667,338.583 83.667 C 338.750 83.667,338.833 83.833,338.833 84.167 C 338.833 84.500,338.917 84.667,339.083 84.667 C 339.221 84.667,339.333 84.779,339.333 84.917 C 339.333 85.054,339.446 85.167,339.583 85.167 C 339.750 85.167,339.833 85.333,339.833 85.667 C 339.833 86.000,339.917 86.167,340.083 86.167 C 340.221 86.167,340.333 86.279,340.333 86.417 C 340.333 86.554,340.446 86.667,340.583 86.667 C 340.750 86.667,340.833 86.833,340.833 87.167 C 340.833 87.500,340.917 87.667,341.083 87.667 C 341.221 87.667,341.333 87.779,341.333 87.917 C 341.333 88.054,341.446 88.167,341.583 88.167 C 341.750 88.167,341.833 88.333,341.833 88.667 C 341.833 89.000,341.917 89.167,342.083 89.167 C 342.221 89.167,342.333 89.270,342.333 89.396 C 342.333 89.523,342.446 89.719,342.583 89.833 C 342.721 89.947,342.833 90.182,342.833 90.354 C 342.833 90.526,342.946 90.667,343.083 90.667 C 343.221 90.667,343.333 90.770,343.333 90.896 C 343.333 91.023,343.446 91.219,343.583 91.333 C 343.721 91.447,343.833 91.682,343.833 91.854 C 343.833 92.026,343.946 92.167,344.083 92.167 C 344.221 92.167,344.333 92.270,344.333 92.396 C 344.333 92.523,344.446 92.719,344.583 92.833 C 344.721 92.947,344.833 93.182,344.833 93.354 C 344.833 93.526,344.946 93.667,345.083 93.667 C 345.221 93.667,345.333 93.770,345.333 93.896 C 345.333 94.023,345.446 94.219,345.583 94.333 C 345.721 94.447,345.833 94.682,345.833 94.854 C 345.833 95.026,345.946 95.167,346.083 95.167 C 346.221 95.167,346.333 95.270,346.333 95.396 C 346.333 95.523,346.446 95.719,346.583 95.833 C 346.721 95.947,346.833 96.182,346.833 96.354 C 346.833 96.526,346.946 96.667,347.083 96.667 C 347.221 96.667,347.333 96.807,347.333 96.980 C 347.333 97.152,347.446 97.386,347.583 97.500 C 347.721 97.614,347.833 97.811,347.833 97.937 C 347.833 98.063,347.946 98.167,348.083 98.167 C 348.221 98.167,348.333 98.307,348.333 98.480 C 348.333 98.652,348.446 98.886,348.583 99.000 C 348.721 99.114,348.833 99.311,348.833 99.437 C 348.833 99.563,348.946 99.667,349.083 99.667 C 349.221 99.667,349.333 99.807,349.333 99.980 C 349.333 100.152,349.446 100.386,349.583 100.500 C 349.721 100.614,349.833 100.811,349.833 100.937 C 349.833 101.063,349.946 101.167,350.083 101.167 C 350.221 101.167,350.333 101.307,350.333 101.480 C 350.333 101.652,350.446 101.886,350.583 102.000 C 350.721 102.114,350.833 102.311,350.833 102.437 C 350.833 102.563,350.946 102.667,351.083 102.667 C 351.240 102.667,351.333 102.825,351.333 103.089 C 351.333 103.321,351.446 103.554,351.583 103.606 C 351.721 103.659,351.833 103.807,351.833 103.934 C 351.833 104.062,351.946 104.167,352.083 104.167 C 352.240 104.167,352.333 104.325,352.333 104.589 C 352.333 104.821,352.446 105.054,352.583 105.106 C 352.721 105.159,352.833 105.307,352.833 105.434 C 352.833 105.562,352.946 105.667,353.083 105.667 C 353.240 105.667,353.333 105.825,353.333 106.089 C 353.333 106.321,353.446 106.554,353.583 106.606 C 353.721 106.659,353.833 106.807,353.833 106.934 C 353.833 107.062,353.946 107.167,354.083 107.167 C 354.250 107.167,354.333 107.333,354.333 107.667 C 354.333 108.000,354.417 108.167,354.583 108.167 C 354.758 108.167,354.833 108.343,354.833 108.750 C 354.833 109.157,354.758 109.333,354.583 109.333 C 354.446 109.333,354.333 109.446,354.333 109.583 C 354.333 109.721,354.221 109.833,354.083 109.833 C 353.946 109.833,353.833 109.946,353.833 110.083 C 353.833 110.221,353.721 110.333,353.583 110.333 C 353.446 110.333,353.333 110.446,353.333 110.583 C 353.333 110.750,353.167 110.833,352.833 110.833 C 352.500 110.833,352.333 110.917,352.333 111.083 C 352.333 111.250,352.167 111.333,351.833 111.333 C 351.500 111.333,351.333 111.417,351.333 111.583 C 351.333 111.769,351.139 111.833,350.583 111.833 C 350.028 111.833,349.833 111.898,349.833 112.083 C 349.833 112.283,349.586 112.333,348.604 112.333 C 347.714 112.333,347.317 112.402,347.167 112.583 C 347.034 112.743,346.666 112.833,346.146 112.833 L 345.333 112.833 345.333 115.500 L 345.333 118.167 348.000 118.167 C 350.259 118.167,350.667 118.128,350.667 117.917 C 350.667 117.696,352.370 117.667,365.000 117.667 C 377.630 117.667,379.333 117.696,379.333 117.917 C 379.333 118.132,379.880 118.167,383.250 118.167 L 387.167 118.167 387.167 115.500 L 387.167 112.833 383.667 112.833 C 380.667 112.833,380.167 112.798,380.167 112.583 C 380.167 112.377,379.861 112.333,378.417 112.333 C 376.972 112.333,376.667 112.290,376.667 112.083 C 376.667 111.898,376.472 111.833,375.917 111.833 C 375.361 111.833,375.167 111.769,375.167 111.583 C 375.167 111.417,375.000 111.333,374.667 111.333 C 374.333 111.333,374.167 111.250,374.167 111.083 C 374.167 110.917,374.000 110.833,373.667 110.833 C 373.333 110.833,373.167 110.750,373.167 110.583 C 373.167 110.446,373.054 110.333,372.917 110.333 C 372.779 110.333,372.667 110.221,372.667 110.083 C 372.667 109.946,372.554 109.833,372.417 109.833 C 372.279 109.833,372.167 109.721,372.167 109.583 C 372.167 109.446,372.054 109.333,371.917 109.333 C 371.779 109.333,371.667 109.221,371.667 109.083 C 371.667 108.946,371.554 108.833,371.417 108.833 C 371.279 108.833,371.167 108.721,371.167 108.583 C 371.167 108.446,371.054 108.333,370.917 108.333 C 370.750 108.333,370.667 108.167,370.667 107.833 C 370.667 107.500,370.583 107.333,370.417 107.333 C 370.279 107.333,370.167 107.221,370.167 107.083 C 370.167 106.946,370.054 106.833,369.917 106.833 C 369.760 106.833,369.667 106.675,369.667 106.411 C 369.667 106.179,369.554 105.946,369.417 105.894 C 369.279 105.841,369.167 105.693,369.167 105.566 C 369.167 105.438,369.054 105.333,368.917 105.333 C 368.750 105.333,368.667 105.167,368.667 104.833 C 368.667 104.500,368.583 104.333,368.417 104.333 C 368.279 104.333,368.167 104.221,368.167 104.083 C 368.167 103.946,368.054 103.833,367.917 103.833 C 367.750 103.833,367.667 103.667,367.667 103.333 C 367.667 103.000,367.583 102.833,367.417 102.833 C 367.279 102.833,367.167 102.721,367.167 102.583 C 367.167 102.446,367.054 102.333,366.917 102.333 C 366.750 102.333,366.667 102.167,366.667 101.833 C 366.667 101.500,366.583 101.333,366.417 101.333 C 366.279 101.333,366.167 101.221,366.167 101.083 C 366.167 100.946,366.054 100.833,365.917 100.833 C 365.750 100.833,365.667 100.667,365.667 100.333 C 365.667 100.000,365.583 99.833,365.417 99.833 C 365.279 99.833,365.167 99.721,365.167 99.583 C 365.167 99.446,365.054 99.333,364.917 99.333 C 364.750 99.333,364.667 99.167,364.667 98.833 C 364.667 98.500,364.583 98.333,364.417 98.333 C 364.279 98.333,364.167 98.221,364.167 98.083 C 364.167 97.946,364.054 97.833,363.917 97.833 C 363.750 97.833,363.667 97.667,363.667 97.333 C 363.667 97.000,363.583 96.833,363.417 96.833 C 363.279 96.833,363.167 96.721,363.167 96.583 C 363.167 96.446,363.054 96.333,362.917 96.333 C 362.750 96.333,362.667 96.167,362.667 95.833 C 362.667 95.500,362.583 95.333,362.417 95.333 C 362.279 95.333,362.167 95.221,362.167 95.083 C 362.167 94.946,362.054 94.833,361.917 94.833 C 361.750 94.833,361.667 94.667,361.667 94.333 C 361.667 94.000,361.583 93.833,361.417 93.833 C 361.279 93.833,361.167 93.721,361.167 93.583 C 361.167 93.446,361.054 93.333,360.917 93.333 C 360.750 93.333,360.667 93.167,360.667 92.833 C 360.667 92.500,360.583 92.333,360.417 92.333 C 360.279 92.333,360.167 92.221,360.167 92.083 C 360.167 91.946,360.054 91.833,359.917 91.833 C 359.750 91.833,359.667 91.667,359.667 91.333 C 359.667 91.000,359.583 90.833,359.417 90.833 C 359.279 90.833,359.167 90.721,359.167 90.583 C 359.167 90.446,359.054 90.333,358.917 90.333 C 358.750 90.333,358.667 90.167,358.667 89.833 C 358.667 89.500,358.583 89.333,358.417 89.333 C 358.279 89.333,358.167 89.221,358.167 89.083 C 358.167 88.946,358.054 88.833,357.917 88.833 C 357.750 88.833,357.667 88.667,357.667 88.333 C 357.667 88.000,357.583 87.833,357.417 87.833 C 357.279 87.833,357.167 87.721,357.167 87.583 C 357.167 87.446,357.054 87.333,356.917 87.333 C 356.750 87.333,356.667 87.167,356.667 86.833 C 356.667 86.500,356.583 86.333,356.417 86.333 C 356.279 86.333,356.167 86.230,356.167 86.104 C 356.167 85.977,356.054 85.781,355.917 85.667 C 355.779 85.553,355.667 85.318,355.667 85.146 C 355.667 84.974,355.554 84.833,355.417 84.833 C 355.279 84.833,355.167 84.730,355.167 84.604 C 355.167 84.477,355.054 84.281,354.917 84.167 C 354.779 84.053,354.667 83.818,354.667 83.646 C 354.667 83.474,354.554 83.333,354.417 83.333 C 354.279 83.333,354.167 83.230,354.167 83.104 C 354.167 82.977,354.054 82.781,353.917 82.667 C 353.779 82.553,353.667 82.318,353.667 82.146 C 353.667 81.974,353.554 81.833,353.417 81.833 C 353.279 81.833,353.167 81.693,353.167 81.520 C 353.167 81.348,353.054 81.114,352.917 81.000 C 352.779 80.886,352.667 80.689,352.667 80.563 C 352.667 80.437,352.554 80.333,352.417 80.333 C 352.260 80.333,352.167 80.175,352.167 79.911 C 352.167 79.679,352.054 79.446,351.917 79.394 C 351.779 79.341,351.667 79.193,351.667 79.066 C 351.667 78.938,351.554 78.833,351.417 78.833 C 351.260 78.833,351.167 78.675,351.167 78.411 C 351.167 78.179,351.054 77.946,350.917 77.894 C 350.779 77.841,350.667 77.693,350.667 77.566 C 350.667 77.438,350.554 77.333,350.417 77.333 C 350.250 77.333,350.167 77.167,350.167 76.833 C 350.167 76.500,350.083 76.333,349.917 76.333 C 349.779 76.333,349.667 76.221,349.667 76.083 C 349.667 75.946,349.554 75.833,349.417 75.833 C 349.250 75.833,349.167 75.667,349.167 75.333 C 349.167 75.000,349.083 74.833,348.917 74.833 C 348.779 74.833,348.667 74.721,348.667 74.583 C 348.667 74.446,348.554 74.333,348.417 74.333 C 348.250 74.333,348.167 74.167,348.167 73.833 C 348.167 73.500,348.083 73.333,347.917 73.333 C 347.779 73.333,347.667 73.221,347.667 73.083 C 347.667 72.946,347.554 72.833,347.417 72.833 C 347.250 72.833,347.167 72.667,347.167 72.333 C 347.167 72.000,347.083 71.833,346.917 71.833 C 346.779 71.833,346.667 71.721,346.667 71.583 C 346.667 71.446,346.554 71.333,346.417 71.333 C 346.250 71.333,346.167 71.167,346.167 70.833 C 346.167 70.500,346.083 70.333,345.917 70.333 C 345.779 70.333,345.667 70.221,345.667 70.083 C 345.667 69.946,345.554 69.833,345.417 69.833 C 345.250 69.833,345.167 69.667,345.167 69.333 C 345.167 69.000,345.083 68.833,344.917 68.833 C 344.779 68.833,344.667 68.721,344.667 68.583 C 344.667 68.446,344.554 68.333,344.417 68.333 C 344.250 68.333,344.167 68.167,344.167 67.833 C 344.167 67.500,344.083 67.333,343.917 67.333 C 343.779 67.333,343.667 67.221,343.667 67.083 C 343.667 66.946,343.554 66.833,343.417 66.833 C 343.250 66.833,343.167 66.667,343.167 66.333 C 343.167 66.000,343.083 65.833,342.917 65.833 C 342.779 65.833,342.667 65.721,342.667 65.583 C 342.667 65.446,342.554 65.333,342.417 65.333 C 342.250 65.333,342.167 65.167,342.167 64.833 C 342.167 64.500,342.083 64.333,341.917 64.333 C 341.779 64.333,341.667 64.221,341.667 64.083 C 341.667 63.946,341.554 63.833,341.417 63.833 C 341.250 63.833,341.167 63.667,341.167 63.333 C 341.167 63.000,341.083 62.833,340.917 62.833 C 340.779 62.833,340.667 62.721,340.667 62.583 C 340.667 62.446,340.554 62.333,340.417 62.333 C 340.250 62.333,340.167 62.167,340.167 61.833 C 340.167 61.500,340.083 61.333,339.917 61.333 C 339.779 61.333,339.667 61.221,339.667 61.083 C 339.667 60.946,339.554 60.833,339.417 60.833 C 339.242 60.833,339.167 60.657,339.167 60.250 C 339.167 59.843,339.242 59.667,339.417 59.667 C 339.583 59.667,339.667 59.500,339.667 59.167 C 339.667 58.833,339.750 58.667,339.917 58.667 C 340.054 58.667,340.167 58.554,340.167 58.417 C 340.167 58.279,340.279 58.167,340.417 58.167 C 340.583 58.167,340.667 58.000,340.667 57.667 C 340.667 57.333,340.750 57.167,340.917 57.167 C 341.054 57.167,341.167 57.054,341.167 56.917 C 341.167 56.779,341.279 56.667,341.417 56.667 C 341.583 56.667,341.667 56.500,341.667 56.167 C 341.667 55.833,341.750 55.667,341.917 55.667 C 342.054 55.667,342.167 55.554,342.167 55.417 C 342.167 55.279,342.279 55.167,342.417 55.167 C 342.554 55.167,342.667 55.063,342.667 54.937 C 342.667 54.811,342.779 54.614,342.917 54.500 C 343.054 54.386,343.167 54.152,343.167 53.980 C 343.167 53.807,343.279 53.667,343.417 53.667 C 343.554 53.667,343.667 53.554,343.667 53.417 C 343.667 53.279,343.779 53.167,343.917 53.167 C 344.083 53.167,344.167 53.000,344.167 52.667 C 344.167 52.333,344.250 52.167,344.417 52.167 C 344.554 52.167,344.667 52.054,344.667 51.917 C 344.667 51.779,344.779 51.667,344.917 51.667 C 345.083 51.667,345.167 51.500,345.167 51.167 C 345.167 50.833,345.250 50.667,345.417 50.667 C 345.554 50.667,345.667 50.554,345.667 50.417 C 345.667 50.279,345.779 50.167,345.917 50.167 C 346.083 50.167,346.167 50.000,346.167 49.667 C 346.167 49.333,346.250 49.167,346.417 49.167 C 346.554 49.167,346.667 49.054,346.667 48.917 C 346.667 48.779,346.779 48.667,346.917 48.667 C 347.083 48.667,347.167 48.500,347.167 48.167 C 347.167 47.833,347.250 47.667,347.417 47.667 C 347.554 47.667,347.667 47.554,347.667 47.417 C 347.667 47.279,347.779 47.167,347.917 47.167 C 348.054 47.167,348.167 47.026,348.167 46.854 C 348.167 46.682,348.279 46.447,348.417 46.333 C 348.554 46.219,348.667 46.023,348.667 45.896 C 348.667 45.770,348.779 45.667,348.917 45.667 C 349.054 45.667,349.167 45.562,349.167 45.434 C 349.167 45.307,349.279 45.159,349.417 45.106 C 349.554 45.054,349.667 44.821,349.667 44.589 C 349.667 44.325,349.760 44.167,349.917 44.167 C 350.054 44.167,350.167 44.054,350.167 43.917 C 350.167 43.779,350.279 43.667,350.417 43.667 C 350.583 43.667,350.667 43.500,350.667 43.167 C 350.667 42.833,350.750 42.667,350.917 42.667 C 351.054 42.667,351.167 42.554,351.167 42.417 C 351.167 42.279,351.279 42.167,351.417 42.167 C 351.583 42.167,351.667 42.000,351.667 41.667 C 351.667 41.333,351.750 41.167,351.917 41.167 C 352.054 41.167,352.167 41.054,352.167 40.917 C 352.167 40.779,352.279 40.667,352.417 40.667 C 352.583 40.667,352.667 40.500,352.667 40.167 C 352.667 39.833,352.750 39.667,352.917 39.667 C 353.054 39.667,353.167 39.554,353.167 39.417 C 353.167 39.279,353.279 39.167,353.417 39.167 C 353.583 39.167,353.667 39.000,353.667 38.667 C 353.667 38.333,353.750 38.167,353.917 38.167 C 354.054 38.167,354.167 38.054,354.167 37.917 C 354.167 37.779,354.279 37.667,354.417 37.667 C 354.554 37.667,354.667 37.563,354.667 37.437 C 354.667 37.311,354.779 37.114,354.917 37.000 C 355.054 36.886,355.167 36.652,355.167 36.480 C 355.167 36.307,355.279 36.167,355.417 36.167 C 355.554 36.167,355.667 36.054,355.667 35.917 C 355.667 35.779,355.779 35.667,355.917 35.667 C 356.083 35.667,356.167 35.500,356.167 35.167 C 356.167 34.833,356.250 34.667,356.417 34.667 C 356.554 34.667,356.667 34.554,356.667 34.417 C 356.667 34.279,356.779 34.167,356.917 34.167 C 357.083 34.167,357.167 34.000,357.167 33.667 C 357.167 33.333,357.250 33.167,357.417 33.167 C 357.554 33.167,357.667 33.054,357.667 32.917 C 357.667 32.779,357.779 32.667,357.917 32.667 C 358.083 32.667,358.167 32.500,358.167 32.167 C 358.167 31.833,358.250 31.667,358.417 31.667 C 358.554 31.667,358.667 31.554,358.667 31.417 C 358.667 31.279,358.779 31.167,358.917 31.167 C 359.083 31.167,359.167 31.000,359.167 30.667 C 359.167 30.333,359.250 30.167,359.417 30.167 C 359.554 30.167,359.667 30.054,359.667 29.917 C 359.667 29.779,359.779 29.667,359.917 29.667 C 360.054 29.667,360.167 29.554,360.167 29.417 C 360.167 29.279,360.279 29.167,360.417 29.167 C 360.583 29.167,360.667 29.000,360.667 28.667 C 360.667 28.333,360.750 28.167,360.917 28.167 C 361.054 28.167,361.167 28.054,361.167 27.917 C 361.167 27.779,361.279 27.667,361.417 27.667 C 361.554 27.667,361.667 27.554,361.667 27.417 C 361.667 27.279,361.779 27.167,361.917 27.167 C 362.054 27.167,362.167 27.054,362.167 26.917 C 362.167 26.779,362.279 26.667,362.417 26.667 C 362.554 26.667,362.667 26.554,362.667 26.417 C 362.667 26.279,362.779 26.167,362.917 26.167 C 363.054 26.167,363.167 26.054,363.167 25.917 C 363.167 25.779,363.307 25.667,363.480 25.667 C 363.652 25.667,363.886 25.554,364.000 25.417 C 364.114 25.279,364.311 25.167,364.437 25.167 C 364.563 25.167,364.667 25.054,364.667 24.917 C 364.667 24.779,364.779 24.667,364.917 24.667 C 365.054 24.667,365.167 24.554,365.167 24.417 C 365.167 24.250,365.333 24.167,365.667 24.167 C 366.000 24.167,366.167 24.083,366.167 23.917 C 366.167 23.750,366.333 23.667,366.667 23.667 C 367.000 23.667,367.167 23.583,367.167 23.417 C 367.167 23.250,367.333 23.167,367.667 23.167 C 368.000 23.167,368.167 23.083,368.167 22.917 C 368.167 22.731,368.361 22.667,368.917 22.667 C 369.472 22.667,369.667 22.602,369.667 22.417 C 369.667 22.233,369.859 22.167,370.396 22.167 C 370.841 22.167,371.207 22.069,371.333 21.917 C 371.478 21.742,371.862 21.667,372.604 21.667 C 373.437 21.667,373.667 21.613,373.667 21.417 C 373.667 21.208,374.000 21.167,375.667 21.167 C 377.333 21.167,377.667 21.125,377.667 20.917 C 377.667 20.710,377.972 20.667,379.417 20.667 L 381.167 20.667 381.167 18.000 L 381.167 15.333 362.750 15.333 L 344.333 15.333 344.333 18.000 L 344.333 20.667 345.333 20.667 C 346.111 20.667,346.333 20.722,346.333 20.917 C 346.333 21.111,346.556 21.167,347.333 21.167 C 348.111 21.167,348.333 21.222,348.333 21.417 C 348.333 21.602,348.528 21.667,349.083 21.667 C 349.639 21.667,349.833 21.731,349.833 21.917 C 349.833 22.054,349.946 22.167,350.083 22.167 C 350.221 22.167,350.333 22.279,350.333 22.417 C 350.333 22.583,350.500 22.667,350.833 22.667 C 351.167 22.667,351.333 22.750,351.333 22.917 C 351.333 23.054,351.446 23.167,351.583 23.167 C 351.721 23.167,351.833 23.279,351.833 23.417 C 351.833 23.554,351.946 23.667,352.083 23.667 C 352.221 23.667,352.333 23.779,352.333 23.917 C 352.333 24.054,352.446 24.167,352.583 24.167 C 352.750 24.167,352.833 24.333,352.833 24.667 C 352.833 25.000,352.917 25.167,353.083 25.167 C 353.248 25.167,353.333 25.331,353.333 25.646 C 353.333 25.910,353.446 26.219,353.583 26.333 C 353.734 26.458,353.833 26.823,353.833 27.250 C 353.833 27.677,353.734 28.042,353.583 28.167 C 353.446 28.281,353.333 28.590,353.333 28.854 C 353.333 29.169,353.248 29.333,353.083 29.333 C 352.946 29.333,352.833 29.446,352.833 29.583 C 352.833 29.721,352.721 29.833,352.583 29.833 C 352.417 29.833,352.333 30.000,352.333 30.333 C 352.333 30.667,352.250 30.833,352.083 30.833 C 351.946 30.833,351.833 30.946,351.833 31.083 C 351.833 31.221,351.721 31.333,351.583 31.333 C 351.417 31.333,351.333 31.500,351.333 31.833 C 351.333 32.167,351.250 32.333,351.083 32.333 C 350.946 32.333,350.833 32.446,350.833 32.583 C 350.833 32.721,350.721 32.833,350.583 32.833 C 350.417 32.833,350.333 33.000,350.333 33.333 C 350.333 33.667,350.250 33.833,350.083 33.833 C 349.946 33.833,349.833 33.946,349.833 34.083 C 349.833 34.221,349.721 34.333,349.583 34.333 C 349.417 34.333,349.333 34.500,349.333 34.833 C 349.333 35.167,349.250 35.333,349.083 35.333 C 348.946 35.333,348.833 35.446,348.833 35.583 C 348.833 35.721,348.721 35.833,348.583 35.833 C 348.417 35.833,348.333 36.000,348.333 36.333 C 348.333 36.667,348.250 36.833,348.083 36.833 C 347.946 36.833,347.833 36.946,347.833 37.083 C 347.833 37.221,347.721 37.333,347.583 37.333 C 347.417 37.333,347.333 37.500,347.333 37.833 C 347.333 38.167,347.250 38.333,347.083 38.333 C 346.946 38.333,346.833 38.446,346.833 38.583 C 346.833 38.721,346.721 38.833,346.583 38.833 C 346.446 38.833,346.333 38.974,346.333 39.146 C 346.333 39.318,346.221 39.553,346.083 39.667 C 345.946 39.781,345.833 39.977,345.833 40.104 C 345.833 40.230,345.721 40.333,345.583 40.333 C 345.446 40.333,345.333 40.437,345.333 40.563 C 345.333 40.689,345.221 40.886,345.083 41.000 C 344.946 41.114,344.833 41.348,344.833 41.520 C 344.833 41.693,344.721 41.833,344.583 41.833 C 344.446 41.833,344.333 41.938,344.333 42.066 C 344.333 42.193,344.221 42.341,344.083 42.394 C 343.946 42.446,343.833 42.679,343.833 42.911 C 343.833 43.175,343.740 43.333,343.583 43.333 C 343.446 43.333,343.333 43.446,343.333 43.583 C 343.333 43.721,343.221 43.833,343.083 43.833 C 342.917 43.833,342.833 44.000,342.833 44.333 C 342.833 44.667,342.750 44.833,342.583 44.833 C 342.446 44.833,342.333 44.946,342.333 45.083 C 342.333 45.221,342.221 45.333,342.083 45.333 C 341.917 45.333,341.833 45.500,341.833 45.833 C 341.833 46.167,341.750 46.333,341.583 46.333 C 341.446 46.333,341.333 46.446,341.333 46.583 C 341.333 46.721,341.221 46.833,341.083 46.833 C 340.917 46.833,340.833 47.000,340.833 47.333 C 340.833 47.667,340.750 47.833,340.583 47.833 C 340.446 47.833,340.333 47.946,340.333 48.083 C 340.333 48.221,340.221 48.333,340.083 48.333 C 339.917 48.333,339.833 48.500,339.833 48.833 C 339.833 49.167,339.750 49.333,339.583 49.333 C 339.446 49.333,339.333 49.446,339.333 49.583 C 339.333 49.721,339.221 49.833,339.083 49.833 C 338.917 49.833,338.833 50.000,338.833 50.333 C 338.833 50.667,338.750 50.833,338.583 50.833 C 338.446 50.833,338.333 50.946,338.333 51.083 C 338.333 51.221,338.221 51.333,338.083 51.333 C 337.917 51.333,337.833 51.500,337.833 51.833 C 337.833 52.167,337.750 52.333,337.583 52.333 C 337.446 52.333,337.333 52.446,337.333 52.583 C 337.333 52.721,337.221 52.833,337.083 52.833 C 336.946 52.833,336.833 52.974,336.833 53.146 C 336.833 53.318,336.721 53.553,336.583 53.667 C 336.446 53.781,336.333 53.977,336.333 54.104 C 336.333 54.230,336.226 54.333,336.096 54.333 C 335.965 54.333,335.823 54.465,335.782 54.625 C 335.709 54.903,335.704 54.903,335.686 54.625 C 335.675 54.465,335.554 54.333,335.417 54.333 C 335.279 54.333,335.167 54.221,335.167 54.083 C 335.167 53.946,335.054 53.833,334.917 53.833 C 334.750 53.833,334.667 53.667,334.667 53.333 C 334.667 53.000,334.583 52.833,334.417 52.833 C 334.279 52.833,334.167 52.721,334.167 52.583 C 334.167 52.446,334.054 52.333,333.917 52.333 C 333.750 52.333,333.667 52.167,333.667 51.833 C 333.667 51.500,333.583 51.333,333.417 51.333 C 333.279 51.333,333.167 51.221,333.167 51.083 C 333.167 50.946,333.054 50.833,332.917 50.833 C 332.750 50.833,332.667 50.667,332.667 50.333 C 332.667 50.000,332.583 49.833,332.417 49.833 C 332.279 49.833,332.167 49.721,332.167 49.583 C 332.167 49.446,332.054 49.333,331.917 49.333 C 331.750 49.333,331.667 49.167,331.667 48.833 C 331.667 48.500,331.583 48.333,331.417 48.333 C 331.279 48.333,331.167 48.221,331.167 48.083 C 331.167 47.946,331.054 47.833,330.917 47.833 C 330.750 47.833,330.667 47.667,330.667 47.333 C 330.667 47.000,330.583 46.833,330.417 46.833 C 330.279 46.833,330.167 46.721,330.167 46.583 C 330.167 46.446,330.054 46.333,329.917 46.333 C 329.750 46.333,329.667 46.167,329.667 45.833 C 329.667 45.500,329.583 45.333,329.417 45.333 C 329.279 45.333,329.167 45.221,329.167 45.083 C 329.167 44.946,329.054 44.833,328.917 44.833 C 328.750 44.833,328.667 44.667,328.667 44.333 C 328.667 44.000,328.583 43.833,328.417 43.833 C 328.279 43.833,328.167 43.721,328.167 43.583 C 328.167 43.446,328.054 43.333,327.917 43.333 C 327.750 43.333,327.667 43.167,327.667 42.833 C 327.667 42.500,327.583 42.333,327.417 42.333 C 327.279 42.333,327.167 42.221,327.167 42.083 C 327.167 41.946,327.054 41.833,326.917 41.833 C 326.750 41.833,326.667 41.667,326.667 41.333 C 326.667 41.000,326.583 40.833,326.417 40.833 C 326.279 40.833,326.167 40.721,326.167 40.583 C 326.167 40.446,326.054 40.333,325.917 40.333 C 325.750 40.333,325.667 40.167,325.667 39.833 C 325.667 39.500,325.583 39.333,325.417 39.333 C 325.279 39.333,325.167 39.221,325.167 39.083 C 325.167 38.946,325.054 38.833,324.917 38.833 C 324.750 38.833,324.667 38.667,324.667 38.333 C 324.667 38.000,324.583 37.833,324.417 37.833 C 324.279 37.833,324.167 37.721,324.167 37.583 C 324.167 37.446,324.054 37.333,323.917 37.333 C 323.750 37.333,323.667 37.167,323.667 36.833 C 323.667 36.500,323.583 36.333,323.417 36.333 C 323.279 36.333,323.167 36.221,323.167 36.083 C 323.167 35.946,323.054 35.833,322.917 35.833 C 322.750 35.833,322.667 35.667,322.667 35.333 C 322.667 35.000,322.583 34.833,322.417 34.833 C 322.279 34.833,322.167 34.721,322.167 34.583 C 322.167 34.446,322.054 34.333,321.917 34.333 C 321.750 34.333,321.667 34.167,321.667 33.833 C 321.667 33.500,321.583 33.333,321.417 33.333 C 321.279 33.333,321.167 33.221,321.167 33.083 C 321.167 32.946,321.054 32.833,320.917 32.833 C 320.750 32.833,320.667 32.667,320.667 32.333 C 320.667 32.000,320.583 31.833,320.417 31.833 C 320.279 31.833,320.167 31.721,320.167 31.583 C 320.167 31.446,320.054 31.333,319.917 31.333 C 319.750 31.333,319.667 31.167,319.667 30.833 C 319.667 30.500,319.583 30.333,319.417 30.333 C 319.279 30.333,319.167 30.221,319.167 30.083 C 319.167 29.946,319.054 29.833,318.917 29.833 C 318.750 29.833,318.667 29.667,318.667 29.333 C 318.667 29.000,318.583 28.833,318.417 28.833 C 318.279 28.833,318.167 28.721,318.167 28.583 C 318.167 28.446,318.054 28.333,317.917 28.333 C 317.750 28.333,317.667 28.167,317.667 27.833 C 317.667 27.500,317.583 27.333,317.417 27.333 C 317.279 27.333,317.167 27.221,317.167 27.083 C 317.167 26.946,317.054 26.833,316.917 26.833 C 316.750 26.833,316.667 26.667,316.667 26.333 C 316.667 26.000,316.583 25.833,316.417 25.833 C 316.251 25.833,316.167 25.668,316.167 25.346 C 316.167 25.021,316.069 24.832,315.875 24.782 C 315.597 24.709,315.597 24.704,315.875 24.686 C 316.084 24.672,316.167 24.524,316.167 24.167 C 316.167 23.833,316.250 23.667,316.417 23.667 C 316.554 23.667,316.667 23.554,316.667 23.417 C 316.667 23.260,316.825 23.167,317.089 23.167 C 317.321 23.167,317.554 23.054,317.606 22.917 C 317.659 22.779,317.807 22.667,317.934 22.667 C 318.062 22.667,318.167 22.554,318.167 22.417 C 318.167 22.250,318.333 22.167,318.667 22.167 C 319.000 22.167,319.167 22.083,319.167 21.917 C 319.167 21.731,319.361 21.667,319.917 21.667 C 320.472 21.667,320.667 21.602,320.667 21.417 C 320.667 21.217,320.917 21.167,321.917 21.167 C 322.917 21.167,323.167 21.117,323.167 20.917 C 323.167 20.717,323.417 20.667,324.417 20.667 L 325.667 20.667 325.667 18.000 L 325.667 15.333 324.078 15.333 C 322.820 15.333,322.470 15.385,322.394 15.583 C 322.309 15.803,320.194 15.833,304.750 15.833 C 289.306 15.833,287.191 15.803,287.106 15.583 C 287.029 15.382,286.652 15.333,285.172 15.333 L 283.333 15.333 283.333 18.000 M87.094 28.667 C 87.267 28.667,87.333 28.876,87.333 29.417 C 87.333 29.972,87.398 30.167,87.583 30.167 C 87.750 30.167,87.833 30.333,87.833 30.667 C 87.833 31.000,87.917 31.167,88.083 31.167 C 88.269 31.167,88.333 31.361,88.333 31.917 C 88.333 32.472,88.398 32.667,88.583 32.667 C 88.750 32.667,88.833 32.833,88.833 33.167 C 88.833 33.500,88.917 33.667,89.083 33.667 C 89.269 33.667,89.333 33.861,89.333 34.417 C 89.333 34.972,89.398 35.167,89.583 35.167 C 89.750 35.167,89.833 35.333,89.833 35.667 C 89.833 36.000,89.917 36.167,90.083 36.167 C 90.269 36.167,90.333 36.361,90.333 36.917 C 90.333 37.472,90.398 37.667,90.583 37.667 C 90.748 37.667,90.833 37.831,90.833 38.146 C 90.833 38.410,90.946 38.719,91.083 38.833 C 91.221 38.947,91.333 39.294,91.333 39.604 C 91.333 39.993,91.410 40.167,91.583 40.167 C 91.756 40.167,91.833 40.340,91.833 40.730 C 91.833 41.039,91.946 41.386,92.083 41.500 C 92.221 41.614,92.333 41.923,92.333 42.187 C 92.333 42.502,92.419 42.667,92.583 42.667 C 92.764 42.667,92.833 42.852,92.833 43.339 C 92.833 43.782,92.918 44.043,93.083 44.106 C 93.226 44.161,93.333 44.410,93.333 44.684 C 93.333 45.002,93.419 45.167,93.583 45.167 C 93.769 45.167,93.833 45.361,93.833 45.917 C 93.833 46.472,93.898 46.667,94.083 46.667 C 94.250 46.667,94.333 46.833,94.333 47.167 C 94.333 47.500,94.417 47.667,94.583 47.667 C 94.769 47.667,94.833 47.861,94.833 48.417 C 94.833 48.972,94.898 49.167,95.083 49.167 C 95.250 49.167,95.333 49.333,95.333 49.667 C 95.333 50.000,95.417 50.167,95.583 50.167 C 95.769 50.167,95.833 50.361,95.833 50.917 C 95.833 51.472,95.898 51.667,96.083 51.667 C 96.250 51.667,96.333 51.833,96.333 52.167 C 96.333 52.500,96.417 52.667,96.583 52.667 C 96.769 52.667,96.833 52.861,96.833 53.417 C 96.833 53.972,96.898 54.167,97.083 54.167 C 97.250 54.167,97.333 54.333,97.333 54.667 C 97.333 55.000,97.417 55.167,97.583 55.167 C 97.769 55.167,97.833 55.361,97.833 55.917 C 97.833 56.472,97.898 56.667,98.083 56.667 C 98.256 56.667,98.333 56.840,98.333 57.230 C 98.333 57.539,98.446 57.886,98.583 58.000 C 98.721 58.114,98.833 58.423,98.833 58.687 C 98.833 59.002,98.919 59.167,99.083 59.167 C 99.222 59.167,99.333 59.315,99.333 59.500 C 99.333 59.830,99.222 59.833,86.750 59.833 L 74.167 59.833 74.167 59.250 C 74.167 58.843,74.242 58.667,74.417 58.667 C 74.583 58.667,74.667 58.500,74.667 58.167 C 74.667 57.833,74.750 57.667,74.917 57.667 C 75.102 57.667,75.167 57.472,75.167 56.917 C 75.167 56.361,75.231 56.167,75.417 56.167 C 75.583 56.167,75.667 56.000,75.667 55.667 C 75.667 55.333,75.750 55.167,75.917 55.167 C 76.102 55.167,76.167 54.972,76.167 54.417 C 76.167 53.861,76.231 53.667,76.417 53.667 C 76.583 53.667,76.667 53.500,76.667 53.167 C 76.667 52.833,76.750 52.667,76.917 52.667 C 77.102 52.667,77.167 52.472,77.167 51.917 C 77.167 51.361,77.231 51.167,77.417 51.167 C 77.583 51.167,77.667 51.000,77.667 50.667 C 77.667 50.333,77.750 50.167,77.917 50.167 C 78.102 50.167,78.167 49.972,78.167 49.417 C 78.167 48.861,78.231 48.667,78.417 48.667 C 78.581 48.667,78.667 48.502,78.667 48.184 C 78.667 47.910,78.774 47.661,78.917 47.606 C 79.082 47.543,79.167 47.282,79.167 46.839 C 79.167 46.352,79.236 46.167,79.417 46.167 C 79.581 46.167,79.667 46.002,79.667 45.687 C 79.667 45.423,79.779 45.114,79.917 45.000 C 80.054 44.886,80.167 44.539,80.167 44.230 C 80.167 43.840,80.244 43.667,80.417 43.667 C 80.590 43.667,80.667 43.493,80.667 43.104 C 80.667 42.794,80.779 42.447,80.917 42.333 C 81.054 42.219,81.167 41.910,81.167 41.646 C 81.167 41.331,81.252 41.167,81.417 41.167 C 81.602 41.167,81.667 40.972,81.667 40.417 C 81.667 39.861,81.731 39.667,81.917 39.667 C 82.083 39.667,82.167 39.500,82.167 39.167 C 82.167 38.833,82.250 38.667,82.417 38.667 C 82.602 38.667,82.667 38.472,82.667 37.917 C 82.667 37.361,82.731 37.167,82.917 37.167 C 83.083 37.167,83.167 37.000,83.167 36.667 C 83.167 36.333,83.250 36.167,83.417 36.167 C 83.602 36.167,83.667 35.972,83.667 35.417 C 83.667 34.861,83.731 34.667,83.917 34.667 C 84.083 34.667,84.167 34.500,84.167 34.167 C 84.167 33.833,84.250 33.667,84.417 33.667 C 84.602 33.667,84.667 33.472,84.667 32.917 C 84.667 32.361,84.731 32.167,84.917 32.167 C 85.081 32.167,85.167 32.002,85.167 31.684 C 85.167 31.410,85.274 31.161,85.417 31.106 C 85.582 31.043,85.667 30.782,85.667 30.339 C 85.667 29.852,85.736 29.667,85.917 29.667 C 86.081 29.667,86.167 29.502,86.167 29.187 C 86.167 28.923,86.279 28.614,86.417 28.500 C 86.554 28.386,86.679 28.133,86.693 27.938 C 86.708 27.743,86.750 27.827,86.787 28.125 C 86.828 28.454,86.949 28.667,87.094 28.667 " stroke="none" fill="#040404" fill-rule="evenodd"></path><path id="path1" d="" stroke="none" fill="#080404" fill-rule="evenodd"></path><path id="path2" d="" stroke="none" fill="#080404" fill-rule="evenodd"></path><path id="path3" d="" stroke="none" fill="#080404" fill-rule="evenodd"></path><path id="path4" d="" stroke="none" fill="#080404" fill-rule="evenodd"></path></g></svg>